%TF.GenerationSoftware,KiCad,Pcbnew,4.0.7-e2-6376~58~ubuntu16.04.1*%
%TF.CreationDate,2018-01-20T15:49:45+01:00*%
%TF.ProjectId,Modulo_bluetooth,4D6F64756C6F5F626C7565746F6F7468,rev?*%
%TF.FileFunction,Legend,Top*%
%FSLAX46Y46*%
G04 Gerber Fmt 4.6, Leading zero omitted, Abs format (unit mm)*
G04 Created by KiCad (PCBNEW 4.0.7-e2-6376~58~ubuntu16.04.1) date Sat Jan 20 15:49:45 2018*
%MOMM*%
%LPD*%
G01*
G04 APERTURE LIST*
%ADD10C,0.100000*%
%ADD11C,0.120000*%
%ADD12C,0.127000*%
%ADD13C,0.150000*%
G04 APERTURE END LIST*
D10*
D11*
X12026000Y-25138000D02*
X12026000Y-24138000D01*
X10326000Y-24138000D02*
X10326000Y-25138000D01*
X3929000Y-22899000D02*
X2929000Y-22899000D01*
X2929000Y-24599000D02*
X3929000Y-24599000D01*
X3929000Y-25058000D02*
X2929000Y-25058000D01*
X2929000Y-26758000D02*
X3929000Y-26758000D01*
D12*
X10990580Y-32006540D02*
X10990580Y-29207460D01*
X10888980Y-29207460D02*
X10888980Y-32006540D01*
X10789920Y-32006540D02*
X10789920Y-29207460D01*
X10690860Y-29207460D02*
X10690860Y-32006540D01*
X10589260Y-29207460D02*
X10589260Y-32006540D01*
X11089640Y-29207460D02*
X6690360Y-29207460D01*
X6690360Y-29207460D02*
X6690360Y-32006540D01*
X6690360Y-32006540D02*
X11089640Y-32006540D01*
X11089640Y-32006540D02*
X11089640Y-29207460D01*
D11*
X16278000Y-24322000D02*
X16278000Y-22922000D01*
X16278000Y-22922000D02*
X13478000Y-22922000D01*
X16278000Y-24322000D02*
X13478000Y-24322000D01*
D13*
X15459000Y-28942000D02*
X14259000Y-28942000D01*
X14259000Y-27192000D02*
X15459000Y-27192000D01*
X7782000Y-27192000D02*
X8982000Y-27192000D01*
X8982000Y-28942000D02*
X7782000Y-28942000D01*
X15459000Y-31101000D02*
X14259000Y-31101000D01*
X14259000Y-29351000D02*
X15459000Y-29351000D01*
X15459000Y-26783000D02*
X14259000Y-26783000D01*
X14259000Y-25033000D02*
X15459000Y-25033000D01*
X4179000Y-29464000D02*
G75*
G03X4179000Y-29464000I-750000J0D01*
G01*
X4529000Y-31114000D02*
X4829000Y-31114000D01*
X4829000Y-31114000D02*
X4829000Y-27814000D01*
X4829000Y-27814000D02*
X4529000Y-27814000D01*
X2329000Y-31114000D02*
X2029000Y-31114000D01*
X2029000Y-31114000D02*
X2029000Y-27814000D01*
X2029000Y-27814000D02*
X2329000Y-27814000D01*
D11*
X9738000Y-25665000D02*
X9738000Y-23865000D01*
X6518000Y-23865000D02*
X6518000Y-26315000D01*
M02*
