M48
;DRILL file {KiCad 4.0.7-e2-6376~58~ubuntu16.04.1} date Sat Jan 20 15:49:51 2018
;FORMAT={-:-/ absolute / metric / decimal}
FMAT,2
METRIC,TZ
T1C0.330
T2C1.016
T3C0.800
%
G90
G05
M71
T1
X1.143Y-31.115
X2.54Y-21.971
X4.627Y-3.12
X4.699Y-1.651
X4.699Y-18.669
X4.953Y-28.956
X5.842Y-6.731
X9.017Y-32.258
X11.303Y-27.178
X11.684Y-28.956
X13.208Y-18.415
X13.843Y-31.877
X14.859Y-31.623
X16.891Y-22.225
X17.653Y-24.384
T2
X2.794Y-33.528
X5.334Y-33.528
X7.874Y-33.528
X10.414Y-33.528
X12.954Y-33.528
X15.494Y-33.528
T3
X3.429Y-29.464
T0
M30
