%TF.GenerationSoftware,KiCad,Pcbnew,4.0.7-e2-6376~58~ubuntu16.04.1*%
%TF.CreationDate,2018-01-20T15:49:45+01:00*%
%TF.ProjectId,Modulo_bluetooth,4D6F64756C6F5F626C7565746F6F7468,rev?*%
%TF.FileFunction,Copper,L2,Bot,Signal*%
%FSLAX46Y46*%
G04 Gerber Fmt 4.6, Leading zero omitted, Abs format (unit mm)*
G04 Created by KiCad (PCBNEW 4.0.7-e2-6376~58~ubuntu16.04.1) date Sat Jan 20 15:49:45 2018*
%MOMM*%
%LPD*%
G01*
G04 APERTURE LIST*
%ADD10C,0.100000*%
%ADD11R,1.727200X2.032000*%
%ADD12O,1.727200X2.032000*%
%ADD13C,0.685800*%
%ADD14C,0.254000*%
G04 APERTURE END LIST*
D10*
D11*
X15494000Y-33528000D03*
D12*
X12954000Y-33528000D03*
X10414000Y-33528000D03*
X7874000Y-33528000D03*
X5334000Y-33528000D03*
X2794000Y-33528000D03*
D13*
X2540000Y-21971000D03*
X4953000Y-28956000D03*
X11303000Y-27178000D03*
X13843000Y-31877000D03*
X11684000Y-28956000D03*
X16891000Y-22225000D03*
X4699000Y-1651000D03*
X4627000Y-3120000D03*
X5842000Y-6731000D03*
X14859000Y-31623000D03*
X9017000Y-32258000D03*
X1143000Y-31115000D03*
X4699000Y-18669000D03*
X17653000Y-24384000D03*
X13208000Y-18415000D03*
D14*
X2540000Y-21971000D02*
X4953000Y-24384000D01*
X4953000Y-24384000D02*
X4953000Y-28956000D01*
X11684000Y-28956000D02*
X11684000Y-27813000D01*
X11303000Y-27432000D02*
X11303000Y-27178000D01*
X11684000Y-27813000D02*
X11303000Y-27432000D01*
X10414000Y-33528000D02*
X10668000Y-33528000D01*
X10668000Y-33528000D02*
X12319000Y-31877000D01*
X12319000Y-31877000D02*
X13843000Y-31877000D01*
X11684000Y-28956000D02*
X16891000Y-23749000D01*
X16891000Y-23749000D02*
X16891000Y-22225000D01*
X7874000Y-33528000D02*
X7874000Y-3175000D01*
X6350000Y-1651000D02*
X4699000Y-1651000D01*
X7874000Y-3175000D02*
X6350000Y-1651000D01*
X4627000Y-3120000D02*
X7112000Y-5605000D01*
X7112000Y-5605000D02*
X7112000Y-31750000D01*
X7112000Y-31750000D02*
X5334000Y-33528000D01*
X2794000Y-33528000D02*
X2794000Y-32258000D01*
X5842000Y-29210000D02*
X5842000Y-6731000D01*
X2794000Y-32258000D02*
X5842000Y-29210000D01*
X14351000Y-31115000D02*
X14859000Y-31623000D01*
X10160000Y-31115000D02*
X14351000Y-31115000D01*
X9017000Y-32258000D02*
X10160000Y-31115000D01*
X1143000Y-22225000D02*
X1143000Y-31115000D01*
X4699000Y-18669000D02*
X1143000Y-22225000D01*
X17653000Y-21463000D02*
X17653000Y-24384000D01*
X17145000Y-20955000D02*
X17653000Y-21463000D01*
X15748000Y-20955000D02*
X17145000Y-20955000D01*
X13208000Y-18415000D02*
X15748000Y-20955000D01*
M02*
