%TF.GenerationSoftware,KiCad,Pcbnew,4.0.7-e2-6376~58~ubuntu16.04.1*%
%TF.CreationDate,2018-01-20T15:49:45+01:00*%
%TF.ProjectId,Modulo_bluetooth,4D6F64756C6F5F626C7565746F6F7468,rev?*%
%TF.FileFunction,Legend,Bot*%
%FSLAX46Y46*%
G04 Gerber Fmt 4.6, Leading zero omitted, Abs format (unit mm)*
G04 Created by KiCad (PCBNEW 4.0.7-e2-6376~58~ubuntu16.04.1) date Sat Jan 20 15:49:45 2018*
%MOMM*%
%LPD*%
G01*
G04 APERTURE LIST*
%ADD10C,0.100000*%
%ADD11C,0.375000*%
%ADD12C,0.200000*%
%ADD13C,0.010000*%
G04 APERTURE END LIST*
D10*
D11*
X12552714Y-25951571D02*
X12552714Y-24451571D01*
X12552714Y-25165857D02*
X11695571Y-25165857D01*
X11695571Y-25951571D02*
X11695571Y-24451571D01*
X10124142Y-25808714D02*
X10195571Y-25880143D01*
X10409857Y-25951571D01*
X10552714Y-25951571D01*
X10766999Y-25880143D01*
X10909857Y-25737286D01*
X10981285Y-25594429D01*
X11052714Y-25308714D01*
X11052714Y-25094429D01*
X10981285Y-24808714D01*
X10909857Y-24665857D01*
X10766999Y-24523000D01*
X10552714Y-24451571D01*
X10409857Y-24451571D01*
X10195571Y-24523000D01*
X10124142Y-24594429D01*
X9481285Y-25380143D02*
X8338428Y-25380143D01*
X7338428Y-24451571D02*
X7195571Y-24451571D01*
X7052714Y-24523000D01*
X6981285Y-24594429D01*
X6909856Y-24737286D01*
X6838428Y-25023000D01*
X6838428Y-25380143D01*
X6909856Y-25665857D01*
X6981285Y-25808714D01*
X7052714Y-25880143D01*
X7195571Y-25951571D01*
X7338428Y-25951571D01*
X7481285Y-25880143D01*
X7552714Y-25808714D01*
X7624142Y-25665857D01*
X7695571Y-25380143D01*
X7695571Y-25023000D01*
X7624142Y-24737286D01*
X7552714Y-24594429D01*
X7481285Y-24523000D01*
X7338428Y-24451571D01*
X5481285Y-24451571D02*
X6195571Y-24451571D01*
X6267000Y-25165857D01*
X6195571Y-25094429D01*
X6052714Y-25023000D01*
X5695571Y-25023000D01*
X5552714Y-25094429D01*
X5481285Y-25165857D01*
X5409857Y-25308714D01*
X5409857Y-25665857D01*
X5481285Y-25808714D01*
X5552714Y-25880143D01*
X5695571Y-25951571D01*
X6052714Y-25951571D01*
X6195571Y-25880143D01*
X6267000Y-25808714D01*
X16659856Y-21149571D02*
X16159856Y-22649571D01*
X15659856Y-21149571D01*
X14302713Y-22506714D02*
X14374142Y-22578143D01*
X14588428Y-22649571D01*
X14731285Y-22649571D01*
X14945570Y-22578143D01*
X15088428Y-22435286D01*
X15159856Y-22292429D01*
X15231285Y-22006714D01*
X15231285Y-21792429D01*
X15159856Y-21506714D01*
X15088428Y-21363857D01*
X14945570Y-21221000D01*
X14731285Y-21149571D01*
X14588428Y-21149571D01*
X14374142Y-21221000D01*
X14302713Y-21292429D01*
X12802713Y-22506714D02*
X12874142Y-22578143D01*
X13088428Y-22649571D01*
X13231285Y-22649571D01*
X13445570Y-22578143D01*
X13588428Y-22435286D01*
X13659856Y-22292429D01*
X13731285Y-22006714D01*
X13731285Y-21792429D01*
X13659856Y-21506714D01*
X13588428Y-21363857D01*
X13445570Y-21221000D01*
X13231285Y-21149571D01*
X13088428Y-21149571D01*
X12874142Y-21221000D01*
X12802713Y-21292429D01*
X12159856Y-22506714D02*
X12088428Y-22578143D01*
X12159856Y-22649571D01*
X12231285Y-22578143D01*
X12159856Y-22506714D01*
X12159856Y-22649571D01*
X12159856Y-21721000D02*
X12088428Y-21792429D01*
X12159856Y-21863857D01*
X12231285Y-21792429D01*
X12159856Y-21721000D01*
X12159856Y-21863857D01*
X10445570Y-21149571D02*
X9516999Y-21149571D01*
X10016999Y-21721000D01*
X9802713Y-21721000D01*
X9659856Y-21792429D01*
X9588427Y-21863857D01*
X9516999Y-22006714D01*
X9516999Y-22363857D01*
X9588427Y-22506714D01*
X9659856Y-22578143D01*
X9802713Y-22649571D01*
X10231285Y-22649571D01*
X10374142Y-22578143D01*
X10445570Y-22506714D01*
X8874142Y-22506714D02*
X8802714Y-22578143D01*
X8874142Y-22649571D01*
X8945571Y-22578143D01*
X8874142Y-22506714D01*
X8874142Y-22649571D01*
X7516999Y-21149571D02*
X7802713Y-21149571D01*
X7945570Y-21221000D01*
X8016999Y-21292429D01*
X8159856Y-21506714D01*
X8231285Y-21792429D01*
X8231285Y-22363857D01*
X8159856Y-22506714D01*
X8088428Y-22578143D01*
X7945570Y-22649571D01*
X7659856Y-22649571D01*
X7516999Y-22578143D01*
X7445570Y-22506714D01*
X7374142Y-22363857D01*
X7374142Y-22006714D01*
X7445570Y-21863857D01*
X7516999Y-21792429D01*
X7659856Y-21721000D01*
X7945570Y-21721000D01*
X8088428Y-21792429D01*
X8159856Y-21863857D01*
X8231285Y-22006714D01*
X6945571Y-21149571D02*
X6445571Y-22649571D01*
X5945571Y-21149571D01*
X5445571Y-22078143D02*
X4302714Y-22078143D01*
X2874142Y-21149571D02*
X3588428Y-21149571D01*
X3659857Y-21863857D01*
X3588428Y-21792429D01*
X3445571Y-21721000D01*
X3088428Y-21721000D01*
X2945571Y-21792429D01*
X2874142Y-21863857D01*
X2802714Y-22006714D01*
X2802714Y-22363857D01*
X2874142Y-22506714D01*
X2945571Y-22578143D01*
X3088428Y-22649571D01*
X3445571Y-22649571D01*
X3588428Y-22578143D01*
X3659857Y-22506714D01*
X2374143Y-21149571D02*
X1874143Y-22649571D01*
X1374143Y-21149571D01*
D12*
X15422571Y-30122905D02*
X15422571Y-30456239D01*
X15946381Y-30599096D02*
X15946381Y-30122905D01*
X14946381Y-30122905D01*
X14946381Y-30599096D01*
X15946381Y-31027667D02*
X14946381Y-31027667D01*
X15946381Y-31599096D01*
X14946381Y-31599096D01*
X12533381Y-29019667D02*
X13533381Y-29353000D01*
X12533381Y-29686334D01*
X13438143Y-30591096D02*
X13485762Y-30543477D01*
X13533381Y-30400620D01*
X13533381Y-30305382D01*
X13485762Y-30162524D01*
X13390524Y-30067286D01*
X13295286Y-30019667D01*
X13104810Y-29972048D01*
X12961952Y-29972048D01*
X12771476Y-30019667D01*
X12676238Y-30067286D01*
X12581000Y-30162524D01*
X12533381Y-30305382D01*
X12533381Y-30400620D01*
X12581000Y-30543477D01*
X12628619Y-30591096D01*
X13438143Y-31591096D02*
X13485762Y-31543477D01*
X13533381Y-31400620D01*
X13533381Y-31305382D01*
X13485762Y-31162524D01*
X13390524Y-31067286D01*
X13295286Y-31019667D01*
X13104810Y-30972048D01*
X12961952Y-30972048D01*
X12771476Y-31019667D01*
X12676238Y-31067286D01*
X12581000Y-31162524D01*
X12533381Y-31305382D01*
X12533381Y-31400620D01*
X12581000Y-31543477D01*
X12628619Y-31591096D01*
X9914000Y-29591096D02*
X9866381Y-29495858D01*
X9866381Y-29353001D01*
X9914000Y-29210143D01*
X10009238Y-29114905D01*
X10104476Y-29067286D01*
X10294952Y-29019667D01*
X10437810Y-29019667D01*
X10628286Y-29067286D01*
X10723524Y-29114905D01*
X10818762Y-29210143D01*
X10866381Y-29353001D01*
X10866381Y-29448239D01*
X10818762Y-29591096D01*
X10771143Y-29638715D01*
X10437810Y-29638715D01*
X10437810Y-29448239D01*
X10866381Y-30067286D02*
X9866381Y-30067286D01*
X10866381Y-30638715D01*
X9866381Y-30638715D01*
X10866381Y-31114905D02*
X9866381Y-31114905D01*
X9866381Y-31353000D01*
X9914000Y-31495858D01*
X10009238Y-31591096D01*
X10104476Y-31638715D01*
X10294952Y-31686334D01*
X10437810Y-31686334D01*
X10628286Y-31638715D01*
X10723524Y-31591096D01*
X10818762Y-31495858D01*
X10866381Y-31353000D01*
X10866381Y-31114905D01*
X7326381Y-30099095D02*
X7326381Y-30670524D01*
X8326381Y-30384809D02*
X7326381Y-30384809D01*
X7326381Y-30908619D02*
X8326381Y-31575286D01*
X7326381Y-31575286D02*
X8326381Y-30908619D01*
X5786381Y-30567334D02*
X5310190Y-30234000D01*
X5786381Y-29995905D02*
X4786381Y-29995905D01*
X4786381Y-30376858D01*
X4834000Y-30472096D01*
X4881619Y-30519715D01*
X4976857Y-30567334D01*
X5119714Y-30567334D01*
X5214952Y-30519715D01*
X5262571Y-30472096D01*
X5310190Y-30376858D01*
X5310190Y-29995905D01*
X4786381Y-30900667D02*
X5786381Y-31567334D01*
X4786381Y-31567334D02*
X5786381Y-30900667D01*
X2690762Y-27916428D02*
X2738381Y-28059285D01*
X2738381Y-28297381D01*
X2690762Y-28392619D01*
X2643143Y-28440238D01*
X2547905Y-28487857D01*
X2452667Y-28487857D01*
X2357429Y-28440238D01*
X2309810Y-28392619D01*
X2262190Y-28297381D01*
X2214571Y-28106904D01*
X2166952Y-28011666D01*
X2119333Y-27964047D01*
X2024095Y-27916428D01*
X1928857Y-27916428D01*
X1833619Y-27964047D01*
X1786000Y-28011666D01*
X1738381Y-28106904D01*
X1738381Y-28345000D01*
X1786000Y-28487857D01*
X1738381Y-28773571D02*
X1738381Y-29345000D01*
X2738381Y-29059285D02*
X1738381Y-29059285D01*
X2452667Y-29630714D02*
X2452667Y-30106905D01*
X2738381Y-29535476D02*
X1738381Y-29868809D01*
X2738381Y-30202143D01*
X1738381Y-30392619D02*
X1738381Y-30964048D01*
X2738381Y-30678333D02*
X1738381Y-30678333D01*
X2214571Y-31297381D02*
X2214571Y-31630715D01*
X2738381Y-31773572D02*
X2738381Y-31297381D01*
X1738381Y-31297381D01*
X1738381Y-31773572D01*
D13*
G36*
X11316641Y-2291294D02*
X10902203Y-2291516D01*
X10451477Y-2291838D01*
X9962870Y-2292235D01*
X9434790Y-2292680D01*
X8985250Y-2293050D01*
X8516970Y-2293495D01*
X8059441Y-2294061D01*
X7614496Y-2294742D01*
X7183967Y-2295531D01*
X6769687Y-2296420D01*
X6373487Y-2297401D01*
X5997200Y-2298469D01*
X5642659Y-2299614D01*
X5311695Y-2300831D01*
X5006141Y-2302111D01*
X4727830Y-2303447D01*
X4478593Y-2304832D01*
X4260263Y-2306260D01*
X4074673Y-2307721D01*
X3923654Y-2309210D01*
X3809038Y-2310719D01*
X3732659Y-2312240D01*
X3696349Y-2313767D01*
X3693822Y-2314127D01*
X3534623Y-2375852D01*
X3381396Y-2470972D01*
X3241313Y-2592219D01*
X3121547Y-2732322D01*
X3029270Y-2884011D01*
X2971656Y-3040017D01*
X2969768Y-3048000D01*
X2968359Y-3075124D01*
X2967013Y-3142742D01*
X2965728Y-3249014D01*
X2964505Y-3392102D01*
X2963345Y-3570169D01*
X2962246Y-3781378D01*
X2961209Y-4023889D01*
X2960235Y-4295866D01*
X2959322Y-4595470D01*
X2958472Y-4920864D01*
X2957684Y-5270210D01*
X2956958Y-5641670D01*
X2956294Y-6033405D01*
X2955692Y-6443579D01*
X2955153Y-6870354D01*
X2954675Y-7311891D01*
X2954261Y-7766352D01*
X2953908Y-8231901D01*
X2953618Y-8706698D01*
X2953390Y-9188907D01*
X2953225Y-9676689D01*
X2953122Y-10168207D01*
X2953081Y-10661622D01*
X2953103Y-11155097D01*
X2953188Y-11646794D01*
X2953335Y-12134875D01*
X2953544Y-12617502D01*
X2953816Y-13092838D01*
X2954151Y-13559044D01*
X2954549Y-14014283D01*
X2955009Y-14456717D01*
X2955532Y-14884508D01*
X2956117Y-15295818D01*
X2956765Y-15688809D01*
X2957477Y-16061644D01*
X2958250Y-16412485D01*
X2959087Y-16739493D01*
X2959987Y-17040832D01*
X2960949Y-17314662D01*
X2961975Y-17559147D01*
X2963063Y-17772449D01*
X2964214Y-17952728D01*
X2965428Y-18098149D01*
X2966706Y-18206873D01*
X2968046Y-18277061D01*
X2969450Y-18306877D01*
X2969545Y-18307385D01*
X2984960Y-18362916D01*
X2999887Y-18400818D01*
X3000971Y-18402635D01*
X3016243Y-18431439D01*
X3017754Y-18436166D01*
X3037976Y-18490520D01*
X3071636Y-18549243D01*
X3086248Y-18568458D01*
X3103882Y-18596597D01*
X3099473Y-18605500D01*
X3105343Y-18619287D01*
X3135992Y-18656474D01*
X3185997Y-18710796D01*
X3228485Y-18754523D01*
X3322827Y-18840712D01*
X3422262Y-18916153D01*
X3517170Y-18974490D01*
X3597932Y-19009368D01*
X3623008Y-19015164D01*
X3665168Y-19030046D01*
X3683000Y-19040011D01*
X3707792Y-19042376D01*
X3774320Y-19044641D01*
X3881987Y-19046803D01*
X4030196Y-19048860D01*
X4218348Y-19050809D01*
X4445848Y-19052648D01*
X4712097Y-19054372D01*
X5016499Y-19055981D01*
X5358457Y-19057470D01*
X5737372Y-19058837D01*
X6152648Y-19060080D01*
X6603688Y-19061195D01*
X7089894Y-19062180D01*
X7610669Y-19063032D01*
X8165415Y-19063749D01*
X8753537Y-19064326D01*
X8964083Y-19064493D01*
X9529416Y-19064889D01*
X10053932Y-19065198D01*
X10539147Y-19065412D01*
X10986577Y-19065525D01*
X11397740Y-19065528D01*
X11774150Y-19065413D01*
X12117326Y-19065175D01*
X12428782Y-19064804D01*
X12710035Y-19064293D01*
X12962602Y-19063635D01*
X13187998Y-19062822D01*
X13387741Y-19061847D01*
X13563345Y-19060703D01*
X13716329Y-19059380D01*
X13848207Y-19057873D01*
X13960497Y-19056173D01*
X14054714Y-19054273D01*
X14132375Y-19052166D01*
X14194996Y-19049843D01*
X14244093Y-19047298D01*
X14281183Y-19044523D01*
X14307783Y-19041510D01*
X14325407Y-19038251D01*
X14327100Y-19037814D01*
X14465416Y-18992812D01*
X14587349Y-18933913D01*
X14707874Y-18852981D01*
X14791718Y-18785416D01*
X14874532Y-18694683D01*
X14953099Y-18568835D01*
X15023212Y-18415093D01*
X15049365Y-18343235D01*
X15053124Y-18331747D01*
X15056653Y-18319290D01*
X15059959Y-18304548D01*
X15063050Y-18286205D01*
X15065932Y-18262944D01*
X15068614Y-18233448D01*
X15071102Y-18196401D01*
X15073404Y-18150487D01*
X15075527Y-18094389D01*
X15077478Y-18026791D01*
X15079264Y-17946375D01*
X15080893Y-17851827D01*
X15082372Y-17741829D01*
X15083708Y-17615064D01*
X15084908Y-17470217D01*
X15085980Y-17305971D01*
X15086931Y-17121008D01*
X15087768Y-16914014D01*
X15088499Y-16683672D01*
X15089130Y-16428664D01*
X15089669Y-16147674D01*
X15090124Y-15839387D01*
X15090501Y-15502485D01*
X15090807Y-15135652D01*
X15091051Y-14737572D01*
X15091238Y-14306927D01*
X15091377Y-13842403D01*
X15091475Y-13342681D01*
X15091539Y-12806447D01*
X15091576Y-12232382D01*
X15091594Y-11619171D01*
X15091599Y-10965498D01*
X15091599Y-10687860D01*
X14678838Y-10687860D01*
X14678815Y-11177572D01*
X14678745Y-11665408D01*
X14678629Y-12149524D01*
X14678465Y-12628079D01*
X14678254Y-13099231D01*
X14677996Y-13561138D01*
X14677691Y-14011957D01*
X14677339Y-14449847D01*
X14676940Y-14872965D01*
X14676493Y-15279469D01*
X14676000Y-15667518D01*
X14675460Y-16035268D01*
X14674872Y-16380879D01*
X14674237Y-16702507D01*
X14673555Y-16998312D01*
X14672826Y-17266450D01*
X14672050Y-17505079D01*
X14671227Y-17712358D01*
X14670356Y-17886445D01*
X14669439Y-18025497D01*
X14668474Y-18127672D01*
X14667462Y-18191128D01*
X14666444Y-18213916D01*
X14605202Y-18357982D01*
X14516719Y-18479398D01*
X14406985Y-18570427D01*
X14377574Y-18587195D01*
X14308562Y-18620566D01*
X14247730Y-18645446D01*
X14219244Y-18653948D01*
X14193998Y-18654789D01*
X14128257Y-18655631D01*
X14023858Y-18656472D01*
X13882639Y-18657306D01*
X13706438Y-18658130D01*
X13497092Y-18658939D01*
X13256439Y-18659729D01*
X12986317Y-18660496D01*
X12688564Y-18661236D01*
X12365017Y-18661944D01*
X12017515Y-18662616D01*
X11647894Y-18663248D01*
X11257993Y-18663835D01*
X10849650Y-18664373D01*
X10424701Y-18664859D01*
X9984986Y-18665287D01*
X9532341Y-18665654D01*
X9068605Y-18665956D01*
X9011708Y-18665988D01*
X8460079Y-18666286D01*
X7949183Y-18666545D01*
X7477424Y-18666752D01*
X7043200Y-18666896D01*
X6644913Y-18666963D01*
X6280965Y-18666944D01*
X5949755Y-18666825D01*
X5649686Y-18666596D01*
X5379158Y-18666243D01*
X5136572Y-18665757D01*
X4920329Y-18665124D01*
X4728829Y-18664333D01*
X4560475Y-18663372D01*
X4413667Y-18662229D01*
X4286805Y-18660893D01*
X4178291Y-18659352D01*
X4086526Y-18657593D01*
X4009911Y-18655606D01*
X3946846Y-18653378D01*
X3895733Y-18650898D01*
X3854973Y-18648153D01*
X3822966Y-18645133D01*
X3798114Y-18641824D01*
X3778817Y-18638216D01*
X3763477Y-18634297D01*
X3750494Y-18630054D01*
X3742554Y-18627114D01*
X3629697Y-18566043D01*
X3522781Y-18475773D01*
X3435206Y-18368779D01*
X3401025Y-18309166D01*
X3354917Y-18213916D01*
X3349545Y-10705480D01*
X3349068Y-10035857D01*
X3348630Y-9407251D01*
X3348237Y-8818344D01*
X3347895Y-8267820D01*
X3347611Y-7754361D01*
X3347391Y-7276652D01*
X3347242Y-6833374D01*
X3347169Y-6423212D01*
X3347180Y-6044848D01*
X3347279Y-5696965D01*
X3347475Y-5378247D01*
X3347772Y-5087376D01*
X3348178Y-4823035D01*
X3348698Y-4583909D01*
X3349339Y-4368680D01*
X3350108Y-4176030D01*
X3351010Y-4004644D01*
X3352052Y-3853204D01*
X3353241Y-3720393D01*
X3354582Y-3604895D01*
X3356082Y-3505392D01*
X3357747Y-3420568D01*
X3359584Y-3349106D01*
X3361598Y-3289688D01*
X3363797Y-3240999D01*
X3366187Y-3201721D01*
X3368773Y-3170537D01*
X3371563Y-3146130D01*
X3374562Y-3127184D01*
X3377777Y-3112382D01*
X3381214Y-3100406D01*
X3384880Y-3089940D01*
X3386138Y-3086600D01*
X3413830Y-3032383D01*
X3457577Y-2966426D01*
X3510203Y-2897384D01*
X3564534Y-2833913D01*
X3613395Y-2784668D01*
X3649613Y-2758304D01*
X3659979Y-2756230D01*
X3685822Y-2749634D01*
X3731835Y-2730530D01*
X3735917Y-2728626D01*
X3747465Y-2725395D01*
X3768861Y-2722399D01*
X3801595Y-2719630D01*
X3847155Y-2717078D01*
X3907031Y-2714735D01*
X3982715Y-2712593D01*
X4075694Y-2710644D01*
X4187459Y-2708878D01*
X4319500Y-2707289D01*
X4473307Y-2705866D01*
X4650369Y-2704602D01*
X4852176Y-2703489D01*
X5080218Y-2702517D01*
X5335984Y-2701679D01*
X5620965Y-2700966D01*
X5936650Y-2700369D01*
X6284529Y-2699881D01*
X6666091Y-2699492D01*
X7082827Y-2699195D01*
X7536226Y-2698981D01*
X8027778Y-2698841D01*
X8558973Y-2698767D01*
X9017000Y-2698750D01*
X14234583Y-2698750D01*
X14352548Y-2756683D01*
X14407712Y-2788318D01*
X14465416Y-2828429D01*
X14517940Y-2870432D01*
X14557563Y-2907748D01*
X14576564Y-2933794D01*
X14570133Y-2942166D01*
X14570747Y-2955350D01*
X14587919Y-2979208D01*
X14628250Y-3041436D01*
X14662740Y-3131310D01*
X14666388Y-3143250D01*
X14667446Y-3167714D01*
X14668457Y-3232670D01*
X14669421Y-3336274D01*
X14670337Y-3476686D01*
X14671207Y-3652063D01*
X14672030Y-3860563D01*
X14672807Y-4100343D01*
X14673536Y-4369562D01*
X14674218Y-4666378D01*
X14674853Y-4988948D01*
X14675442Y-5335430D01*
X14675983Y-5703982D01*
X14676478Y-6092763D01*
X14676925Y-6499930D01*
X14677326Y-6923641D01*
X14677679Y-7362054D01*
X14677986Y-7813326D01*
X14678245Y-8275616D01*
X14678458Y-8747082D01*
X14678623Y-9225882D01*
X14678742Y-9710172D01*
X14678813Y-10198112D01*
X14678838Y-10687860D01*
X15091599Y-10687860D01*
X15091599Y-10677939D01*
X15091583Y-9998046D01*
X15091530Y-9359230D01*
X15091436Y-8760233D01*
X15091296Y-8199799D01*
X15091105Y-7676670D01*
X15090857Y-7189591D01*
X15090547Y-6737303D01*
X15090171Y-6318549D01*
X15089724Y-5932074D01*
X15089199Y-5576620D01*
X15088593Y-5250930D01*
X15087899Y-4953748D01*
X15087114Y-4683815D01*
X15086232Y-4439876D01*
X15085248Y-4220674D01*
X15084156Y-4024951D01*
X15082952Y-3851451D01*
X15081631Y-3698917D01*
X15080187Y-3566091D01*
X15078616Y-3451717D01*
X15076912Y-3354538D01*
X15075071Y-3273298D01*
X15073087Y-3206738D01*
X15070955Y-3153603D01*
X15068670Y-3112635D01*
X15066227Y-3082577D01*
X15063621Y-3062173D01*
X15060847Y-3050166D01*
X15060801Y-3050034D01*
X15041410Y-2993188D01*
X15029289Y-2954094D01*
X15027651Y-2947163D01*
X15009613Y-2895177D01*
X14971843Y-2822342D01*
X14921776Y-2740276D01*
X14866846Y-2660594D01*
X14814491Y-2594914D01*
X14780579Y-2561166D01*
X14660742Y-2470550D01*
X14552718Y-2403239D01*
X14517600Y-2385536D01*
X14496285Y-2375344D01*
X14476904Y-2365891D01*
X14457866Y-2357152D01*
X14437578Y-2349100D01*
X14414447Y-2341708D01*
X14386881Y-2334950D01*
X14353287Y-2328799D01*
X14312072Y-2323228D01*
X14261644Y-2318211D01*
X14200410Y-2313721D01*
X14126777Y-2309731D01*
X14039153Y-2306215D01*
X13935946Y-2303147D01*
X13815562Y-2300499D01*
X13676409Y-2298245D01*
X13516894Y-2296358D01*
X13335425Y-2294812D01*
X13130409Y-2293580D01*
X12900254Y-2292636D01*
X12643366Y-2291952D01*
X12358153Y-2291503D01*
X12043023Y-2291261D01*
X11696383Y-2291201D01*
X11316641Y-2291294D01*
X11316641Y-2291294D01*
G37*
X11316641Y-2291294D02*
X10902203Y-2291516D01*
X10451477Y-2291838D01*
X9962870Y-2292235D01*
X9434790Y-2292680D01*
X8985250Y-2293050D01*
X8516970Y-2293495D01*
X8059441Y-2294061D01*
X7614496Y-2294742D01*
X7183967Y-2295531D01*
X6769687Y-2296420D01*
X6373487Y-2297401D01*
X5997200Y-2298469D01*
X5642659Y-2299614D01*
X5311695Y-2300831D01*
X5006141Y-2302111D01*
X4727830Y-2303447D01*
X4478593Y-2304832D01*
X4260263Y-2306260D01*
X4074673Y-2307721D01*
X3923654Y-2309210D01*
X3809038Y-2310719D01*
X3732659Y-2312240D01*
X3696349Y-2313767D01*
X3693822Y-2314127D01*
X3534623Y-2375852D01*
X3381396Y-2470972D01*
X3241313Y-2592219D01*
X3121547Y-2732322D01*
X3029270Y-2884011D01*
X2971656Y-3040017D01*
X2969768Y-3048000D01*
X2968359Y-3075124D01*
X2967013Y-3142742D01*
X2965728Y-3249014D01*
X2964505Y-3392102D01*
X2963345Y-3570169D01*
X2962246Y-3781378D01*
X2961209Y-4023889D01*
X2960235Y-4295866D01*
X2959322Y-4595470D01*
X2958472Y-4920864D01*
X2957684Y-5270210D01*
X2956958Y-5641670D01*
X2956294Y-6033405D01*
X2955692Y-6443579D01*
X2955153Y-6870354D01*
X2954675Y-7311891D01*
X2954261Y-7766352D01*
X2953908Y-8231901D01*
X2953618Y-8706698D01*
X2953390Y-9188907D01*
X2953225Y-9676689D01*
X2953122Y-10168207D01*
X2953081Y-10661622D01*
X2953103Y-11155097D01*
X2953188Y-11646794D01*
X2953335Y-12134875D01*
X2953544Y-12617502D01*
X2953816Y-13092838D01*
X2954151Y-13559044D01*
X2954549Y-14014283D01*
X2955009Y-14456717D01*
X2955532Y-14884508D01*
X2956117Y-15295818D01*
X2956765Y-15688809D01*
X2957477Y-16061644D01*
X2958250Y-16412485D01*
X2959087Y-16739493D01*
X2959987Y-17040832D01*
X2960949Y-17314662D01*
X2961975Y-17559147D01*
X2963063Y-17772449D01*
X2964214Y-17952728D01*
X2965428Y-18098149D01*
X2966706Y-18206873D01*
X2968046Y-18277061D01*
X2969450Y-18306877D01*
X2969545Y-18307385D01*
X2984960Y-18362916D01*
X2999887Y-18400818D01*
X3000971Y-18402635D01*
X3016243Y-18431439D01*
X3017754Y-18436166D01*
X3037976Y-18490520D01*
X3071636Y-18549243D01*
X3086248Y-18568458D01*
X3103882Y-18596597D01*
X3099473Y-18605500D01*
X3105343Y-18619287D01*
X3135992Y-18656474D01*
X3185997Y-18710796D01*
X3228485Y-18754523D01*
X3322827Y-18840712D01*
X3422262Y-18916153D01*
X3517170Y-18974490D01*
X3597932Y-19009368D01*
X3623008Y-19015164D01*
X3665168Y-19030046D01*
X3683000Y-19040011D01*
X3707792Y-19042376D01*
X3774320Y-19044641D01*
X3881987Y-19046803D01*
X4030196Y-19048860D01*
X4218348Y-19050809D01*
X4445848Y-19052648D01*
X4712097Y-19054372D01*
X5016499Y-19055981D01*
X5358457Y-19057470D01*
X5737372Y-19058837D01*
X6152648Y-19060080D01*
X6603688Y-19061195D01*
X7089894Y-19062180D01*
X7610669Y-19063032D01*
X8165415Y-19063749D01*
X8753537Y-19064326D01*
X8964083Y-19064493D01*
X9529416Y-19064889D01*
X10053932Y-19065198D01*
X10539147Y-19065412D01*
X10986577Y-19065525D01*
X11397740Y-19065528D01*
X11774150Y-19065413D01*
X12117326Y-19065175D01*
X12428782Y-19064804D01*
X12710035Y-19064293D01*
X12962602Y-19063635D01*
X13187998Y-19062822D01*
X13387741Y-19061847D01*
X13563345Y-19060703D01*
X13716329Y-19059380D01*
X13848207Y-19057873D01*
X13960497Y-19056173D01*
X14054714Y-19054273D01*
X14132375Y-19052166D01*
X14194996Y-19049843D01*
X14244093Y-19047298D01*
X14281183Y-19044523D01*
X14307783Y-19041510D01*
X14325407Y-19038251D01*
X14327100Y-19037814D01*
X14465416Y-18992812D01*
X14587349Y-18933913D01*
X14707874Y-18852981D01*
X14791718Y-18785416D01*
X14874532Y-18694683D01*
X14953099Y-18568835D01*
X15023212Y-18415093D01*
X15049365Y-18343235D01*
X15053124Y-18331747D01*
X15056653Y-18319290D01*
X15059959Y-18304548D01*
X15063050Y-18286205D01*
X15065932Y-18262944D01*
X15068614Y-18233448D01*
X15071102Y-18196401D01*
X15073404Y-18150487D01*
X15075527Y-18094389D01*
X15077478Y-18026791D01*
X15079264Y-17946375D01*
X15080893Y-17851827D01*
X15082372Y-17741829D01*
X15083708Y-17615064D01*
X15084908Y-17470217D01*
X15085980Y-17305971D01*
X15086931Y-17121008D01*
X15087768Y-16914014D01*
X15088499Y-16683672D01*
X15089130Y-16428664D01*
X15089669Y-16147674D01*
X15090124Y-15839387D01*
X15090501Y-15502485D01*
X15090807Y-15135652D01*
X15091051Y-14737572D01*
X15091238Y-14306927D01*
X15091377Y-13842403D01*
X15091475Y-13342681D01*
X15091539Y-12806447D01*
X15091576Y-12232382D01*
X15091594Y-11619171D01*
X15091599Y-10965498D01*
X15091599Y-10687860D01*
X14678838Y-10687860D01*
X14678815Y-11177572D01*
X14678745Y-11665408D01*
X14678629Y-12149524D01*
X14678465Y-12628079D01*
X14678254Y-13099231D01*
X14677996Y-13561138D01*
X14677691Y-14011957D01*
X14677339Y-14449847D01*
X14676940Y-14872965D01*
X14676493Y-15279469D01*
X14676000Y-15667518D01*
X14675460Y-16035268D01*
X14674872Y-16380879D01*
X14674237Y-16702507D01*
X14673555Y-16998312D01*
X14672826Y-17266450D01*
X14672050Y-17505079D01*
X14671227Y-17712358D01*
X14670356Y-17886445D01*
X14669439Y-18025497D01*
X14668474Y-18127672D01*
X14667462Y-18191128D01*
X14666444Y-18213916D01*
X14605202Y-18357982D01*
X14516719Y-18479398D01*
X14406985Y-18570427D01*
X14377574Y-18587195D01*
X14308562Y-18620566D01*
X14247730Y-18645446D01*
X14219244Y-18653948D01*
X14193998Y-18654789D01*
X14128257Y-18655631D01*
X14023858Y-18656472D01*
X13882639Y-18657306D01*
X13706438Y-18658130D01*
X13497092Y-18658939D01*
X13256439Y-18659729D01*
X12986317Y-18660496D01*
X12688564Y-18661236D01*
X12365017Y-18661944D01*
X12017515Y-18662616D01*
X11647894Y-18663248D01*
X11257993Y-18663835D01*
X10849650Y-18664373D01*
X10424701Y-18664859D01*
X9984986Y-18665287D01*
X9532341Y-18665654D01*
X9068605Y-18665956D01*
X9011708Y-18665988D01*
X8460079Y-18666286D01*
X7949183Y-18666545D01*
X7477424Y-18666752D01*
X7043200Y-18666896D01*
X6644913Y-18666963D01*
X6280965Y-18666944D01*
X5949755Y-18666825D01*
X5649686Y-18666596D01*
X5379158Y-18666243D01*
X5136572Y-18665757D01*
X4920329Y-18665124D01*
X4728829Y-18664333D01*
X4560475Y-18663372D01*
X4413667Y-18662229D01*
X4286805Y-18660893D01*
X4178291Y-18659352D01*
X4086526Y-18657593D01*
X4009911Y-18655606D01*
X3946846Y-18653378D01*
X3895733Y-18650898D01*
X3854973Y-18648153D01*
X3822966Y-18645133D01*
X3798114Y-18641824D01*
X3778817Y-18638216D01*
X3763477Y-18634297D01*
X3750494Y-18630054D01*
X3742554Y-18627114D01*
X3629697Y-18566043D01*
X3522781Y-18475773D01*
X3435206Y-18368779D01*
X3401025Y-18309166D01*
X3354917Y-18213916D01*
X3349545Y-10705480D01*
X3349068Y-10035857D01*
X3348630Y-9407251D01*
X3348237Y-8818344D01*
X3347895Y-8267820D01*
X3347611Y-7754361D01*
X3347391Y-7276652D01*
X3347242Y-6833374D01*
X3347169Y-6423212D01*
X3347180Y-6044848D01*
X3347279Y-5696965D01*
X3347475Y-5378247D01*
X3347772Y-5087376D01*
X3348178Y-4823035D01*
X3348698Y-4583909D01*
X3349339Y-4368680D01*
X3350108Y-4176030D01*
X3351010Y-4004644D01*
X3352052Y-3853204D01*
X3353241Y-3720393D01*
X3354582Y-3604895D01*
X3356082Y-3505392D01*
X3357747Y-3420568D01*
X3359584Y-3349106D01*
X3361598Y-3289688D01*
X3363797Y-3240999D01*
X3366187Y-3201721D01*
X3368773Y-3170537D01*
X3371563Y-3146130D01*
X3374562Y-3127184D01*
X3377777Y-3112382D01*
X3381214Y-3100406D01*
X3384880Y-3089940D01*
X3386138Y-3086600D01*
X3413830Y-3032383D01*
X3457577Y-2966426D01*
X3510203Y-2897384D01*
X3564534Y-2833913D01*
X3613395Y-2784668D01*
X3649613Y-2758304D01*
X3659979Y-2756230D01*
X3685822Y-2749634D01*
X3731835Y-2730530D01*
X3735917Y-2728626D01*
X3747465Y-2725395D01*
X3768861Y-2722399D01*
X3801595Y-2719630D01*
X3847155Y-2717078D01*
X3907031Y-2714735D01*
X3982715Y-2712593D01*
X4075694Y-2710644D01*
X4187459Y-2708878D01*
X4319500Y-2707289D01*
X4473307Y-2705866D01*
X4650369Y-2704602D01*
X4852176Y-2703489D01*
X5080218Y-2702517D01*
X5335984Y-2701679D01*
X5620965Y-2700966D01*
X5936650Y-2700369D01*
X6284529Y-2699881D01*
X6666091Y-2699492D01*
X7082827Y-2699195D01*
X7536226Y-2698981D01*
X8027778Y-2698841D01*
X8558973Y-2698767D01*
X9017000Y-2698750D01*
X14234583Y-2698750D01*
X14352548Y-2756683D01*
X14407712Y-2788318D01*
X14465416Y-2828429D01*
X14517940Y-2870432D01*
X14557563Y-2907748D01*
X14576564Y-2933794D01*
X14570133Y-2942166D01*
X14570747Y-2955350D01*
X14587919Y-2979208D01*
X14628250Y-3041436D01*
X14662740Y-3131310D01*
X14666388Y-3143250D01*
X14667446Y-3167714D01*
X14668457Y-3232670D01*
X14669421Y-3336274D01*
X14670337Y-3476686D01*
X14671207Y-3652063D01*
X14672030Y-3860563D01*
X14672807Y-4100343D01*
X14673536Y-4369562D01*
X14674218Y-4666378D01*
X14674853Y-4988948D01*
X14675442Y-5335430D01*
X14675983Y-5703982D01*
X14676478Y-6092763D01*
X14676925Y-6499930D01*
X14677326Y-6923641D01*
X14677679Y-7362054D01*
X14677986Y-7813326D01*
X14678245Y-8275616D01*
X14678458Y-8747082D01*
X14678623Y-9225882D01*
X14678742Y-9710172D01*
X14678813Y-10198112D01*
X14678838Y-10687860D01*
X15091599Y-10687860D01*
X15091599Y-10677939D01*
X15091583Y-9998046D01*
X15091530Y-9359230D01*
X15091436Y-8760233D01*
X15091296Y-8199799D01*
X15091105Y-7676670D01*
X15090857Y-7189591D01*
X15090547Y-6737303D01*
X15090171Y-6318549D01*
X15089724Y-5932074D01*
X15089199Y-5576620D01*
X15088593Y-5250930D01*
X15087899Y-4953748D01*
X15087114Y-4683815D01*
X15086232Y-4439876D01*
X15085248Y-4220674D01*
X15084156Y-4024951D01*
X15082952Y-3851451D01*
X15081631Y-3698917D01*
X15080187Y-3566091D01*
X15078616Y-3451717D01*
X15076912Y-3354538D01*
X15075071Y-3273298D01*
X15073087Y-3206738D01*
X15070955Y-3153603D01*
X15068670Y-3112635D01*
X15066227Y-3082577D01*
X15063621Y-3062173D01*
X15060847Y-3050166D01*
X15060801Y-3050034D01*
X15041410Y-2993188D01*
X15029289Y-2954094D01*
X15027651Y-2947163D01*
X15009613Y-2895177D01*
X14971843Y-2822342D01*
X14921776Y-2740276D01*
X14866846Y-2660594D01*
X14814491Y-2594914D01*
X14780579Y-2561166D01*
X14660742Y-2470550D01*
X14552718Y-2403239D01*
X14517600Y-2385536D01*
X14496285Y-2375344D01*
X14476904Y-2365891D01*
X14457866Y-2357152D01*
X14437578Y-2349100D01*
X14414447Y-2341708D01*
X14386881Y-2334950D01*
X14353287Y-2328799D01*
X14312072Y-2323228D01*
X14261644Y-2318211D01*
X14200410Y-2313721D01*
X14126777Y-2309731D01*
X14039153Y-2306215D01*
X13935946Y-2303147D01*
X13815562Y-2300499D01*
X13676409Y-2298245D01*
X13516894Y-2296358D01*
X13335425Y-2294812D01*
X13130409Y-2293580D01*
X12900254Y-2292636D01*
X12643366Y-2291952D01*
X12358153Y-2291503D01*
X12043023Y-2291261D01*
X11696383Y-2291201D01*
X11316641Y-2291294D01*
G36*
X8438812Y-16172396D02*
X8388441Y-16177324D01*
X8360691Y-16188721D01*
X8345715Y-16209193D01*
X8341679Y-16218958D01*
X8326703Y-16262353D01*
X8321465Y-16282680D01*
X8311087Y-16310984D01*
X8288710Y-16358019D01*
X8286635Y-16362055D01*
X8268520Y-16404215D01*
X8266864Y-16424903D01*
X8268321Y-16425333D01*
X8266863Y-16438431D01*
X8244417Y-16467666D01*
X8221230Y-16498212D01*
X8220513Y-16510000D01*
X8221724Y-16526196D01*
X8205890Y-16565941D01*
X8202083Y-16573500D01*
X8183729Y-16615767D01*
X8181573Y-16636555D01*
X8182965Y-16637000D01*
X8184484Y-16649988D01*
X8175751Y-16663458D01*
X8160058Y-16694660D01*
X8136052Y-16755358D01*
X8107947Y-16834613D01*
X8096250Y-16869833D01*
X8067684Y-16953523D01*
X8041493Y-17023131D01*
X8021891Y-17067716D01*
X8016749Y-17076208D01*
X8006480Y-17098897D01*
X8011583Y-17102666D01*
X8014169Y-17115456D01*
X8004013Y-17130786D01*
X7979784Y-17175789D01*
X7972851Y-17199577D01*
X7957884Y-17253935D01*
X7949633Y-17275638D01*
X7933270Y-17325171D01*
X7929427Y-17343817D01*
X7917810Y-17383625D01*
X7902859Y-17383150D01*
X7887803Y-17343931D01*
X7883188Y-17321787D01*
X7868435Y-17262016D01*
X7850830Y-17218735D01*
X7847482Y-17213791D01*
X7837154Y-17191111D01*
X7842250Y-17187333D01*
X7845040Y-17174615D01*
X7835513Y-17160217D01*
X7814742Y-17119433D01*
X7802636Y-17075900D01*
X7790177Y-17025301D01*
X7778750Y-16996833D01*
X7764946Y-16960596D01*
X7755014Y-16918592D01*
X7742302Y-16867897D01*
X7730633Y-16839566D01*
X7715368Y-16800173D01*
X7710150Y-16776244D01*
X7692818Y-16726634D01*
X7680487Y-16707452D01*
X7668120Y-16683910D01*
X7672917Y-16679333D01*
X7675503Y-16666543D01*
X7665346Y-16651213D01*
X7641117Y-16606210D01*
X7634185Y-16582422D01*
X7619217Y-16528064D01*
X7610966Y-16506361D01*
X7594260Y-16459982D01*
X7589817Y-16442861D01*
X7576480Y-16397810D01*
X7570770Y-16383000D01*
X7556077Y-16343217D01*
X7536045Y-16283720D01*
X7530528Y-16266583D01*
X7503578Y-16181916D01*
X7378951Y-16175481D01*
X7288445Y-16172723D01*
X7234432Y-16177840D01*
X7211360Y-16193784D01*
X7213678Y-16223506D01*
X7228220Y-16255619D01*
X7246674Y-16298041D01*
X7248968Y-16319018D01*
X7247535Y-16319500D01*
X7246026Y-16332483D01*
X7254774Y-16345958D01*
X7272508Y-16379847D01*
X7296105Y-16439281D01*
X7313083Y-16488833D01*
X7336246Y-16556023D01*
X7356829Y-16607273D01*
X7367001Y-16626416D01*
X7386256Y-16662320D01*
X7388062Y-16668750D01*
X7395814Y-16698357D01*
X7410227Y-16739157D01*
X7432390Y-16795750D01*
X7450505Y-16842682D01*
X7459692Y-16869340D01*
X7459801Y-16869833D01*
X7471225Y-16895673D01*
X7474631Y-16901583D01*
X7487718Y-16932228D01*
X7508148Y-16989131D01*
X7524750Y-17039166D01*
X7547278Y-17106288D01*
X7566240Y-17157521D01*
X7574869Y-17176750D01*
X7588705Y-17204989D01*
X7589700Y-17208500D01*
X7598656Y-17234520D01*
X7618677Y-17286486D01*
X7644639Y-17351223D01*
X7655575Y-17377833D01*
X7670670Y-17418933D01*
X7674171Y-17430750D01*
X7685453Y-17462487D01*
X7706762Y-17515169D01*
X7713549Y-17531190D01*
X7735288Y-17584924D01*
X7747738Y-17621357D01*
X7748750Y-17626440D01*
X7762538Y-17652862D01*
X7785550Y-17681680D01*
X7810473Y-17714270D01*
X7815550Y-17729406D01*
X7818982Y-17754465D01*
X7836774Y-17801826D01*
X7862370Y-17856984D01*
X7889214Y-17905437D01*
X7905049Y-17927392D01*
X7928105Y-17958284D01*
X7932386Y-17970500D01*
X7941589Y-17992964D01*
X7967334Y-18038034D01*
X7984660Y-18065750D01*
X8061989Y-18166831D01*
X8157719Y-18262815D01*
X8262482Y-18346487D01*
X8366909Y-18410630D01*
X8461632Y-18448026D01*
X8487451Y-18453045D01*
X8521608Y-18453781D01*
X8526244Y-18446355D01*
X8525120Y-18420486D01*
X8536499Y-18367917D01*
X8551797Y-18318402D01*
X8570555Y-18257873D01*
X8578899Y-18218052D01*
X8576504Y-18208204D01*
X8550182Y-18202162D01*
X8501041Y-18182234D01*
X8477627Y-18171280D01*
X8386386Y-18112686D01*
X8290672Y-18027796D01*
X8202721Y-17929210D01*
X8134764Y-17829529D01*
X8121739Y-17804697D01*
X8092306Y-17739645D01*
X8080424Y-17690872D01*
X8086063Y-17641983D01*
X8109191Y-17576583D01*
X8121242Y-17547166D01*
X8136336Y-17506066D01*
X8139837Y-17494250D01*
X8151280Y-17463033D01*
X8173472Y-17410048D01*
X8182979Y-17388416D01*
X8206625Y-17334534D01*
X8221579Y-17298996D01*
X8223738Y-17293166D01*
X8233349Y-17267057D01*
X8252462Y-17218269D01*
X8274540Y-17163300D01*
X8290842Y-17123833D01*
X8304708Y-17089908D01*
X8307862Y-17081500D01*
X8318549Y-17053496D01*
X8338194Y-17003917D01*
X8359761Y-16950383D01*
X8375508Y-16912166D01*
X8389375Y-16878241D01*
X8392529Y-16869833D01*
X8402679Y-16843275D01*
X8422008Y-16794373D01*
X8443795Y-16740019D01*
X8459909Y-16700500D01*
X8475003Y-16659400D01*
X8478504Y-16647583D01*
X8489947Y-16616366D01*
X8512138Y-16563381D01*
X8521646Y-16541750D01*
X8545292Y-16487868D01*
X8560246Y-16452329D01*
X8562404Y-16446500D01*
X8571624Y-16421357D01*
X8589750Y-16374993D01*
X8590777Y-16372416D01*
X8621114Y-16294149D01*
X8636382Y-16248911D01*
X8639166Y-16234833D01*
X8651262Y-16211368D01*
X8661559Y-16197791D01*
X8664222Y-16184102D01*
X8640450Y-16175882D01*
X8584408Y-16172026D01*
X8521651Y-16171333D01*
X8438812Y-16172396D01*
X8438812Y-16172396D01*
G37*
X8438812Y-16172396D02*
X8388441Y-16177324D01*
X8360691Y-16188721D01*
X8345715Y-16209193D01*
X8341679Y-16218958D01*
X8326703Y-16262353D01*
X8321465Y-16282680D01*
X8311087Y-16310984D01*
X8288710Y-16358019D01*
X8286635Y-16362055D01*
X8268520Y-16404215D01*
X8266864Y-16424903D01*
X8268321Y-16425333D01*
X8266863Y-16438431D01*
X8244417Y-16467666D01*
X8221230Y-16498212D01*
X8220513Y-16510000D01*
X8221724Y-16526196D01*
X8205890Y-16565941D01*
X8202083Y-16573500D01*
X8183729Y-16615767D01*
X8181573Y-16636555D01*
X8182965Y-16637000D01*
X8184484Y-16649988D01*
X8175751Y-16663458D01*
X8160058Y-16694660D01*
X8136052Y-16755358D01*
X8107947Y-16834613D01*
X8096250Y-16869833D01*
X8067684Y-16953523D01*
X8041493Y-17023131D01*
X8021891Y-17067716D01*
X8016749Y-17076208D01*
X8006480Y-17098897D01*
X8011583Y-17102666D01*
X8014169Y-17115456D01*
X8004013Y-17130786D01*
X7979784Y-17175789D01*
X7972851Y-17199577D01*
X7957884Y-17253935D01*
X7949633Y-17275638D01*
X7933270Y-17325171D01*
X7929427Y-17343817D01*
X7917810Y-17383625D01*
X7902859Y-17383150D01*
X7887803Y-17343931D01*
X7883188Y-17321787D01*
X7868435Y-17262016D01*
X7850830Y-17218735D01*
X7847482Y-17213791D01*
X7837154Y-17191111D01*
X7842250Y-17187333D01*
X7845040Y-17174615D01*
X7835513Y-17160217D01*
X7814742Y-17119433D01*
X7802636Y-17075900D01*
X7790177Y-17025301D01*
X7778750Y-16996833D01*
X7764946Y-16960596D01*
X7755014Y-16918592D01*
X7742302Y-16867897D01*
X7730633Y-16839566D01*
X7715368Y-16800173D01*
X7710150Y-16776244D01*
X7692818Y-16726634D01*
X7680487Y-16707452D01*
X7668120Y-16683910D01*
X7672917Y-16679333D01*
X7675503Y-16666543D01*
X7665346Y-16651213D01*
X7641117Y-16606210D01*
X7634185Y-16582422D01*
X7619217Y-16528064D01*
X7610966Y-16506361D01*
X7594260Y-16459982D01*
X7589817Y-16442861D01*
X7576480Y-16397810D01*
X7570770Y-16383000D01*
X7556077Y-16343217D01*
X7536045Y-16283720D01*
X7530528Y-16266583D01*
X7503578Y-16181916D01*
X7378951Y-16175481D01*
X7288445Y-16172723D01*
X7234432Y-16177840D01*
X7211360Y-16193784D01*
X7213678Y-16223506D01*
X7228220Y-16255619D01*
X7246674Y-16298041D01*
X7248968Y-16319018D01*
X7247535Y-16319500D01*
X7246026Y-16332483D01*
X7254774Y-16345958D01*
X7272508Y-16379847D01*
X7296105Y-16439281D01*
X7313083Y-16488833D01*
X7336246Y-16556023D01*
X7356829Y-16607273D01*
X7367001Y-16626416D01*
X7386256Y-16662320D01*
X7388062Y-16668750D01*
X7395814Y-16698357D01*
X7410227Y-16739157D01*
X7432390Y-16795750D01*
X7450505Y-16842682D01*
X7459692Y-16869340D01*
X7459801Y-16869833D01*
X7471225Y-16895673D01*
X7474631Y-16901583D01*
X7487718Y-16932228D01*
X7508148Y-16989131D01*
X7524750Y-17039166D01*
X7547278Y-17106288D01*
X7566240Y-17157521D01*
X7574869Y-17176750D01*
X7588705Y-17204989D01*
X7589700Y-17208500D01*
X7598656Y-17234520D01*
X7618677Y-17286486D01*
X7644639Y-17351223D01*
X7655575Y-17377833D01*
X7670670Y-17418933D01*
X7674171Y-17430750D01*
X7685453Y-17462487D01*
X7706762Y-17515169D01*
X7713549Y-17531190D01*
X7735288Y-17584924D01*
X7747738Y-17621357D01*
X7748750Y-17626440D01*
X7762538Y-17652862D01*
X7785550Y-17681680D01*
X7810473Y-17714270D01*
X7815550Y-17729406D01*
X7818982Y-17754465D01*
X7836774Y-17801826D01*
X7862370Y-17856984D01*
X7889214Y-17905437D01*
X7905049Y-17927392D01*
X7928105Y-17958284D01*
X7932386Y-17970500D01*
X7941589Y-17992964D01*
X7967334Y-18038034D01*
X7984660Y-18065750D01*
X8061989Y-18166831D01*
X8157719Y-18262815D01*
X8262482Y-18346487D01*
X8366909Y-18410630D01*
X8461632Y-18448026D01*
X8487451Y-18453045D01*
X8521608Y-18453781D01*
X8526244Y-18446355D01*
X8525120Y-18420486D01*
X8536499Y-18367917D01*
X8551797Y-18318402D01*
X8570555Y-18257873D01*
X8578899Y-18218052D01*
X8576504Y-18208204D01*
X8550182Y-18202162D01*
X8501041Y-18182234D01*
X8477627Y-18171280D01*
X8386386Y-18112686D01*
X8290672Y-18027796D01*
X8202721Y-17929210D01*
X8134764Y-17829529D01*
X8121739Y-17804697D01*
X8092306Y-17739645D01*
X8080424Y-17690872D01*
X8086063Y-17641983D01*
X8109191Y-17576583D01*
X8121242Y-17547166D01*
X8136336Y-17506066D01*
X8139837Y-17494250D01*
X8151280Y-17463033D01*
X8173472Y-17410048D01*
X8182979Y-17388416D01*
X8206625Y-17334534D01*
X8221579Y-17298996D01*
X8223738Y-17293166D01*
X8233349Y-17267057D01*
X8252462Y-17218269D01*
X8274540Y-17163300D01*
X8290842Y-17123833D01*
X8304708Y-17089908D01*
X8307862Y-17081500D01*
X8318549Y-17053496D01*
X8338194Y-17003917D01*
X8359761Y-16950383D01*
X8375508Y-16912166D01*
X8389375Y-16878241D01*
X8392529Y-16869833D01*
X8402679Y-16843275D01*
X8422008Y-16794373D01*
X8443795Y-16740019D01*
X8459909Y-16700500D01*
X8475003Y-16659400D01*
X8478504Y-16647583D01*
X8489947Y-16616366D01*
X8512138Y-16563381D01*
X8521646Y-16541750D01*
X8545292Y-16487868D01*
X8560246Y-16452329D01*
X8562404Y-16446500D01*
X8571624Y-16421357D01*
X8589750Y-16374993D01*
X8590777Y-16372416D01*
X8621114Y-16294149D01*
X8636382Y-16248911D01*
X8639166Y-16234833D01*
X8651262Y-16211368D01*
X8661559Y-16197791D01*
X8664222Y-16184102D01*
X8640450Y-16175882D01*
X8584408Y-16172026D01*
X8521651Y-16171333D01*
X8438812Y-16172396D01*
G36*
X6864832Y-17367233D02*
X6856593Y-17371124D01*
X6788829Y-17416034D01*
X6753705Y-17472667D01*
X6743052Y-17530042D01*
X6752414Y-17617911D01*
X6791127Y-17688028D01*
X6850620Y-17736139D01*
X6922319Y-17757989D01*
X6997652Y-17749325D01*
X7068046Y-17705892D01*
X7077670Y-17696093D01*
X7121003Y-17624419D01*
X7131047Y-17548174D01*
X7113027Y-17475038D01*
X7072170Y-17412695D01*
X7013701Y-17368825D01*
X6942847Y-17351111D01*
X6864832Y-17367233D01*
X6864832Y-17367233D01*
G37*
X6864832Y-17367233D02*
X6856593Y-17371124D01*
X6788829Y-17416034D01*
X6753705Y-17472667D01*
X6743052Y-17530042D01*
X6752414Y-17617911D01*
X6791127Y-17688028D01*
X6850620Y-17736139D01*
X6922319Y-17757989D01*
X6997652Y-17749325D01*
X7068046Y-17705892D01*
X7077670Y-17696093D01*
X7121003Y-17624419D01*
X7131047Y-17548174D01*
X7113027Y-17475038D01*
X7072170Y-17412695D01*
X7013701Y-17368825D01*
X6942847Y-17351111D01*
X6864832Y-17367233D01*
G36*
X5722656Y-16155546D02*
X5649113Y-16159999D01*
X5594126Y-16167810D01*
X5572125Y-16176010D01*
X5549421Y-16188789D01*
X5545667Y-16185763D01*
X5531279Y-16180545D01*
X5493763Y-16197388D01*
X5441593Y-16230188D01*
X5383243Y-16272836D01*
X5327185Y-16319225D01*
X5281894Y-16363250D01*
X5259505Y-16391998D01*
X5209183Y-16477371D01*
X5181232Y-16529780D01*
X5174491Y-16551455D01*
X5175982Y-16552333D01*
X5175321Y-16569218D01*
X5161448Y-16609894D01*
X5161187Y-16610541D01*
X5149186Y-16659154D01*
X5138718Y-16735334D01*
X5131706Y-16824319D01*
X5130848Y-16843375D01*
X5124108Y-17018000D01*
X6228574Y-17018000D01*
X6217175Y-17102984D01*
X6194208Y-17191987D01*
X6152471Y-17290308D01*
X6101606Y-17376822D01*
X6079198Y-17405279D01*
X6032113Y-17443135D01*
X5965637Y-17481059D01*
X5901097Y-17507548D01*
X5880686Y-17512351D01*
X5838730Y-17525059D01*
X5831417Y-17528745D01*
X5805130Y-17532765D01*
X5751223Y-17535213D01*
X5681893Y-17536146D01*
X5609338Y-17535619D01*
X5545754Y-17533690D01*
X5503339Y-17530414D01*
X5492750Y-17527185D01*
X5472680Y-17518607D01*
X5416205Y-17506169D01*
X5382171Y-17499986D01*
X5338418Y-17487475D01*
X5320435Y-17477156D01*
X5284530Y-17461870D01*
X5256504Y-17481319D01*
X5249333Y-17511888D01*
X5243610Y-17556630D01*
X5234610Y-17576001D01*
X5213561Y-17619117D01*
X5229248Y-17660858D01*
X5276611Y-17693122D01*
X5314495Y-17703922D01*
X5353329Y-17712183D01*
X5365750Y-17716546D01*
X5385418Y-17727979D01*
X5438560Y-17736914D01*
X5516387Y-17743244D01*
X5610106Y-17746862D01*
X5710927Y-17747663D01*
X5810058Y-17745538D01*
X5898710Y-17740381D01*
X5968090Y-17732086D01*
X6000750Y-17724261D01*
X6147800Y-17660774D01*
X6261920Y-17582215D01*
X6351876Y-17480820D01*
X6426437Y-17348820D01*
X6427708Y-17346083D01*
X6456297Y-17278415D01*
X6474300Y-17216199D01*
X6484326Y-17145253D01*
X6488988Y-17051393D01*
X6489869Y-17008439D01*
X6488123Y-16883289D01*
X6481265Y-16806333D01*
X6227589Y-16806333D01*
X5391961Y-16806333D01*
X5406406Y-16726958D01*
X5431266Y-16617066D01*
X5462779Y-16537396D01*
X5506796Y-16475846D01*
X5545469Y-16439331D01*
X5590537Y-16403707D01*
X5621750Y-16383186D01*
X5626666Y-16381380D01*
X5657055Y-16375556D01*
X5683250Y-16369556D01*
X5769326Y-16358337D01*
X5854354Y-16362872D01*
X5923308Y-16381455D01*
X5952281Y-16400147D01*
X5987209Y-16422479D01*
X6000831Y-16425333D01*
X6026389Y-16439047D01*
X6067049Y-16472429D01*
X6110541Y-16513842D01*
X6144595Y-16551645D01*
X6157035Y-16573500D01*
X6163435Y-16598840D01*
X6179010Y-16643225D01*
X6200708Y-16706522D01*
X6214543Y-16754350D01*
X6227589Y-16806333D01*
X6481265Y-16806333D01*
X6479089Y-16781927D01*
X6464807Y-16717103D01*
X6446534Y-16663947D01*
X6435876Y-16630334D01*
X6434923Y-16626344D01*
X6415573Y-16568981D01*
X6380282Y-16510830D01*
X6375252Y-16504708D01*
X6357536Y-16476561D01*
X6361799Y-16467666D01*
X6357379Y-16454090D01*
X6328696Y-16418280D01*
X6281740Y-16367618D01*
X6275121Y-16360851D01*
X6172603Y-16268174D01*
X6083353Y-16211637D01*
X6009361Y-16192500D01*
X6009331Y-16192500D01*
X5970805Y-16182919D01*
X5959521Y-16173119D01*
X5933188Y-16163236D01*
X5876837Y-16157074D01*
X5802612Y-16154541D01*
X5722656Y-16155546D01*
X5722656Y-16155546D01*
G37*
X5722656Y-16155546D02*
X5649113Y-16159999D01*
X5594126Y-16167810D01*
X5572125Y-16176010D01*
X5549421Y-16188789D01*
X5545667Y-16185763D01*
X5531279Y-16180545D01*
X5493763Y-16197388D01*
X5441593Y-16230188D01*
X5383243Y-16272836D01*
X5327185Y-16319225D01*
X5281894Y-16363250D01*
X5259505Y-16391998D01*
X5209183Y-16477371D01*
X5181232Y-16529780D01*
X5174491Y-16551455D01*
X5175982Y-16552333D01*
X5175321Y-16569218D01*
X5161448Y-16609894D01*
X5161187Y-16610541D01*
X5149186Y-16659154D01*
X5138718Y-16735334D01*
X5131706Y-16824319D01*
X5130848Y-16843375D01*
X5124108Y-17018000D01*
X6228574Y-17018000D01*
X6217175Y-17102984D01*
X6194208Y-17191987D01*
X6152471Y-17290308D01*
X6101606Y-17376822D01*
X6079198Y-17405279D01*
X6032113Y-17443135D01*
X5965637Y-17481059D01*
X5901097Y-17507548D01*
X5880686Y-17512351D01*
X5838730Y-17525059D01*
X5831417Y-17528745D01*
X5805130Y-17532765D01*
X5751223Y-17535213D01*
X5681893Y-17536146D01*
X5609338Y-17535619D01*
X5545754Y-17533690D01*
X5503339Y-17530414D01*
X5492750Y-17527185D01*
X5472680Y-17518607D01*
X5416205Y-17506169D01*
X5382171Y-17499986D01*
X5338418Y-17487475D01*
X5320435Y-17477156D01*
X5284530Y-17461870D01*
X5256504Y-17481319D01*
X5249333Y-17511888D01*
X5243610Y-17556630D01*
X5234610Y-17576001D01*
X5213561Y-17619117D01*
X5229248Y-17660858D01*
X5276611Y-17693122D01*
X5314495Y-17703922D01*
X5353329Y-17712183D01*
X5365750Y-17716546D01*
X5385418Y-17727979D01*
X5438560Y-17736914D01*
X5516387Y-17743244D01*
X5610106Y-17746862D01*
X5710927Y-17747663D01*
X5810058Y-17745538D01*
X5898710Y-17740381D01*
X5968090Y-17732086D01*
X6000750Y-17724261D01*
X6147800Y-17660774D01*
X6261920Y-17582215D01*
X6351876Y-17480820D01*
X6426437Y-17348820D01*
X6427708Y-17346083D01*
X6456297Y-17278415D01*
X6474300Y-17216199D01*
X6484326Y-17145253D01*
X6488988Y-17051393D01*
X6489869Y-17008439D01*
X6488123Y-16883289D01*
X6481265Y-16806333D01*
X6227589Y-16806333D01*
X5391961Y-16806333D01*
X5406406Y-16726958D01*
X5431266Y-16617066D01*
X5462779Y-16537396D01*
X5506796Y-16475846D01*
X5545469Y-16439331D01*
X5590537Y-16403707D01*
X5621750Y-16383186D01*
X5626666Y-16381380D01*
X5657055Y-16375556D01*
X5683250Y-16369556D01*
X5769326Y-16358337D01*
X5854354Y-16362872D01*
X5923308Y-16381455D01*
X5952281Y-16400147D01*
X5987209Y-16422479D01*
X6000831Y-16425333D01*
X6026389Y-16439047D01*
X6067049Y-16472429D01*
X6110541Y-16513842D01*
X6144595Y-16551645D01*
X6157035Y-16573500D01*
X6163435Y-16598840D01*
X6179010Y-16643225D01*
X6200708Y-16706522D01*
X6214543Y-16754350D01*
X6227589Y-16806333D01*
X6481265Y-16806333D01*
X6479089Y-16781927D01*
X6464807Y-16717103D01*
X6446534Y-16663947D01*
X6435876Y-16630334D01*
X6434923Y-16626344D01*
X6415573Y-16568981D01*
X6380282Y-16510830D01*
X6375252Y-16504708D01*
X6357536Y-16476561D01*
X6361799Y-16467666D01*
X6357379Y-16454090D01*
X6328696Y-16418280D01*
X6281740Y-16367618D01*
X6275121Y-16360851D01*
X6172603Y-16268174D01*
X6083353Y-16211637D01*
X6009361Y-16192500D01*
X6009331Y-16192500D01*
X5970805Y-16182919D01*
X5959521Y-16173119D01*
X5933188Y-16163236D01*
X5876837Y-16157074D01*
X5802612Y-16154541D01*
X5722656Y-16155546D01*
G36*
X4195774Y-16156239D02*
X4132530Y-16162074D01*
X4097725Y-16170558D01*
X4094646Y-16173119D01*
X4065560Y-16189960D01*
X4045804Y-16192500D01*
X3999206Y-16201332D01*
X3955105Y-16217905D01*
X3901270Y-16243311D01*
X3933759Y-16344905D01*
X3956816Y-16409575D01*
X3979190Y-16439031D01*
X4011411Y-16438885D01*
X4064008Y-16414745D01*
X4064440Y-16414522D01*
X4149891Y-16385107D01*
X4246792Y-16374538D01*
X4344173Y-16381321D01*
X4431067Y-16403958D01*
X4496504Y-16440954D01*
X4524949Y-16477329D01*
X4538275Y-16539784D01*
X4535018Y-16612998D01*
X4517036Y-16675537D01*
X4506305Y-16692561D01*
X4472278Y-16721440D01*
X4419136Y-16756533D01*
X4366014Y-16785920D01*
X4339167Y-16796690D01*
X4226608Y-16837449D01*
X4113019Y-16898927D01*
X4009646Y-16973283D01*
X3927733Y-17052676D01*
X3886248Y-17112521D01*
X3868987Y-17170509D01*
X3859734Y-17251903D01*
X3858698Y-17340403D01*
X3866088Y-17419710D01*
X3881624Y-17472651D01*
X3960017Y-17579795D01*
X4062134Y-17668374D01*
X4174895Y-17727392D01*
X4191000Y-17732735D01*
X4225074Y-17737724D01*
X4286823Y-17742341D01*
X4365016Y-17746230D01*
X4448424Y-17749031D01*
X4525818Y-17750387D01*
X4585968Y-17749940D01*
X4617645Y-17747332D01*
X4619710Y-17746401D01*
X4644455Y-17736452D01*
X4668535Y-17730797D01*
X4717304Y-17716713D01*
X4773083Y-17695150D01*
X4822197Y-17677080D01*
X4854145Y-17671430D01*
X4854963Y-17671583D01*
X4863996Y-17657724D01*
X4857379Y-17613723D01*
X4836827Y-17548047D01*
X4822413Y-17511058D01*
X4805982Y-17464233D01*
X4801267Y-17436486D01*
X4787274Y-17435984D01*
X4748252Y-17453111D01*
X4729393Y-17463262D01*
X4672354Y-17491840D01*
X4625751Y-17509451D01*
X4618416Y-17511054D01*
X4574697Y-17522544D01*
X4561417Y-17528398D01*
X4517735Y-17539570D01*
X4450052Y-17544447D01*
X4376244Y-17542936D01*
X4314187Y-17534942D01*
X4296347Y-17529791D01*
X4219969Y-17484719D01*
X4161167Y-17420070D01*
X4130011Y-17348157D01*
X4127500Y-17323279D01*
X4133430Y-17271510D01*
X4147824Y-17240876D01*
X4149012Y-17240036D01*
X4161750Y-17215496D01*
X4159160Y-17208353D01*
X4168611Y-17187713D01*
X4204164Y-17154548D01*
X4254830Y-17116742D01*
X4309620Y-17082179D01*
X4357547Y-17058741D01*
X4374557Y-17053814D01*
X4439965Y-17033055D01*
X4520971Y-16994993D01*
X4600150Y-16948814D01*
X4660077Y-16903702D01*
X4661035Y-16902803D01*
X4705176Y-16867126D01*
X4739901Y-16849173D01*
X4743937Y-16848666D01*
X4759066Y-16840408D01*
X4755628Y-16834739D01*
X4755387Y-16809455D01*
X4767048Y-16790270D01*
X4788341Y-16757081D01*
X4802073Y-16712090D01*
X4811533Y-16642566D01*
X4814840Y-16605250D01*
X4804105Y-16487497D01*
X4754492Y-16378419D01*
X4669289Y-16282936D01*
X4551783Y-16205971D01*
X4546229Y-16203236D01*
X4477622Y-16175584D01*
X4404173Y-16160333D01*
X4309643Y-16154530D01*
X4276499Y-16154195D01*
X4195774Y-16156239D01*
X4195774Y-16156239D01*
G37*
X4195774Y-16156239D02*
X4132530Y-16162074D01*
X4097725Y-16170558D01*
X4094646Y-16173119D01*
X4065560Y-16189960D01*
X4045804Y-16192500D01*
X3999206Y-16201332D01*
X3955105Y-16217905D01*
X3901270Y-16243311D01*
X3933759Y-16344905D01*
X3956816Y-16409575D01*
X3979190Y-16439031D01*
X4011411Y-16438885D01*
X4064008Y-16414745D01*
X4064440Y-16414522D01*
X4149891Y-16385107D01*
X4246792Y-16374538D01*
X4344173Y-16381321D01*
X4431067Y-16403958D01*
X4496504Y-16440954D01*
X4524949Y-16477329D01*
X4538275Y-16539784D01*
X4535018Y-16612998D01*
X4517036Y-16675537D01*
X4506305Y-16692561D01*
X4472278Y-16721440D01*
X4419136Y-16756533D01*
X4366014Y-16785920D01*
X4339167Y-16796690D01*
X4226608Y-16837449D01*
X4113019Y-16898927D01*
X4009646Y-16973283D01*
X3927733Y-17052676D01*
X3886248Y-17112521D01*
X3868987Y-17170509D01*
X3859734Y-17251903D01*
X3858698Y-17340403D01*
X3866088Y-17419710D01*
X3881624Y-17472651D01*
X3960017Y-17579795D01*
X4062134Y-17668374D01*
X4174895Y-17727392D01*
X4191000Y-17732735D01*
X4225074Y-17737724D01*
X4286823Y-17742341D01*
X4365016Y-17746230D01*
X4448424Y-17749031D01*
X4525818Y-17750387D01*
X4585968Y-17749940D01*
X4617645Y-17747332D01*
X4619710Y-17746401D01*
X4644455Y-17736452D01*
X4668535Y-17730797D01*
X4717304Y-17716713D01*
X4773083Y-17695150D01*
X4822197Y-17677080D01*
X4854145Y-17671430D01*
X4854963Y-17671583D01*
X4863996Y-17657724D01*
X4857379Y-17613723D01*
X4836827Y-17548047D01*
X4822413Y-17511058D01*
X4805982Y-17464233D01*
X4801267Y-17436486D01*
X4787274Y-17435984D01*
X4748252Y-17453111D01*
X4729393Y-17463262D01*
X4672354Y-17491840D01*
X4625751Y-17509451D01*
X4618416Y-17511054D01*
X4574697Y-17522544D01*
X4561417Y-17528398D01*
X4517735Y-17539570D01*
X4450052Y-17544447D01*
X4376244Y-17542936D01*
X4314187Y-17534942D01*
X4296347Y-17529791D01*
X4219969Y-17484719D01*
X4161167Y-17420070D01*
X4130011Y-17348157D01*
X4127500Y-17323279D01*
X4133430Y-17271510D01*
X4147824Y-17240876D01*
X4149012Y-17240036D01*
X4161750Y-17215496D01*
X4159160Y-17208353D01*
X4168611Y-17187713D01*
X4204164Y-17154548D01*
X4254830Y-17116742D01*
X4309620Y-17082179D01*
X4357547Y-17058741D01*
X4374557Y-17053814D01*
X4439965Y-17033055D01*
X4520971Y-16994993D01*
X4600150Y-16948814D01*
X4660077Y-16903702D01*
X4661035Y-16902803D01*
X4705176Y-16867126D01*
X4739901Y-16849173D01*
X4743937Y-16848666D01*
X4759066Y-16840408D01*
X4755628Y-16834739D01*
X4755387Y-16809455D01*
X4767048Y-16790270D01*
X4788341Y-16757081D01*
X4802073Y-16712090D01*
X4811533Y-16642566D01*
X4814840Y-16605250D01*
X4804105Y-16487497D01*
X4754492Y-16378419D01*
X4669289Y-16282936D01*
X4551783Y-16205971D01*
X4546229Y-16203236D01*
X4477622Y-16175584D01*
X4404173Y-16160333D01*
X4309643Y-16154530D01*
X4276499Y-16154195D01*
X4195774Y-16156239D01*
G36*
X13341199Y-15424083D02*
X13311996Y-15428408D01*
X13262866Y-15443811D01*
X13244980Y-15468676D01*
X13244879Y-15495233D01*
X13250958Y-15558460D01*
X13255207Y-15604371D01*
X13259701Y-15634994D01*
X13272738Y-15651469D01*
X13304189Y-15657142D01*
X13363923Y-15655359D01*
X13399301Y-15653224D01*
X13512270Y-15654151D01*
X13598397Y-15675611D01*
X13661608Y-15721899D01*
X13705827Y-15797313D01*
X13734980Y-15906146D01*
X13751829Y-16039041D01*
X13763457Y-16171333D01*
X13377333Y-16171333D01*
X13377333Y-16383000D01*
X13758333Y-16383000D01*
X13758333Y-17737666D01*
X14032906Y-17737666D01*
X14038495Y-17065625D01*
X14044083Y-16393583D01*
X14266333Y-16380787D01*
X14266333Y-16171333D01*
X14033500Y-16171333D01*
X14031664Y-16060208D01*
X14027794Y-15947932D01*
X14018999Y-15864335D01*
X14002999Y-15795843D01*
X13977513Y-15728884D01*
X13975066Y-15723344D01*
X13900327Y-15602560D01*
X13798172Y-15506941D01*
X13676881Y-15443860D01*
X13652500Y-15436202D01*
X13592441Y-15426344D01*
X13508413Y-15420761D01*
X13418603Y-15419869D01*
X13341199Y-15424083D01*
X13341199Y-15424083D01*
G37*
X13341199Y-15424083D02*
X13311996Y-15428408D01*
X13262866Y-15443811D01*
X13244980Y-15468676D01*
X13244879Y-15495233D01*
X13250958Y-15558460D01*
X13255207Y-15604371D01*
X13259701Y-15634994D01*
X13272738Y-15651469D01*
X13304189Y-15657142D01*
X13363923Y-15655359D01*
X13399301Y-15653224D01*
X13512270Y-15654151D01*
X13598397Y-15675611D01*
X13661608Y-15721899D01*
X13705827Y-15797313D01*
X13734980Y-15906146D01*
X13751829Y-16039041D01*
X13763457Y-16171333D01*
X13377333Y-16171333D01*
X13377333Y-16383000D01*
X13758333Y-16383000D01*
X13758333Y-17737666D01*
X14032906Y-17737666D01*
X14038495Y-17065625D01*
X14044083Y-16393583D01*
X14266333Y-16380787D01*
X14266333Y-16171333D01*
X14033500Y-16171333D01*
X14031664Y-16060208D01*
X14027794Y-15947932D01*
X14018999Y-15864335D01*
X14002999Y-15795843D01*
X13977513Y-15728884D01*
X13975066Y-15723344D01*
X13900327Y-15602560D01*
X13798172Y-15506941D01*
X13676881Y-15443860D01*
X13652500Y-15436202D01*
X13592441Y-15426344D01*
X13508413Y-15420761D01*
X13418603Y-15419869D01*
X13341199Y-15424083D01*
G36*
X12371103Y-16425333D02*
X12472339Y-16425333D01*
X12591683Y-16442158D01*
X12688306Y-16493883D01*
X12765192Y-16582380D01*
X12788857Y-16624079D01*
X12811807Y-16671275D01*
X12829626Y-16716074D01*
X12842994Y-16764620D01*
X12852594Y-16823059D01*
X12859107Y-16897536D01*
X12863217Y-16994193D01*
X12865604Y-17119177D01*
X12866951Y-17278631D01*
X12867234Y-17330208D01*
X12869333Y-17737666D01*
X13144500Y-17737666D01*
X13146264Y-17033875D01*
X13146935Y-16861657D01*
X13148021Y-16699872D01*
X13149448Y-16554202D01*
X13150487Y-16478250D01*
X12890500Y-16478250D01*
X12879917Y-16488833D01*
X12869333Y-16478250D01*
X12879917Y-16467666D01*
X12890500Y-16478250D01*
X13150487Y-16478250D01*
X13151144Y-16430326D01*
X13153036Y-16333926D01*
X13155050Y-16270683D01*
X13156318Y-16250708D01*
X13164610Y-16171333D01*
X13038138Y-16171333D01*
X12967982Y-16172225D01*
X12929950Y-16178247D01*
X12913832Y-16194421D01*
X12909419Y-16225768D01*
X12909021Y-16234833D01*
X12906025Y-16306104D01*
X12903729Y-16360069D01*
X12895523Y-16416765D01*
X12879544Y-16437740D01*
X12859287Y-16420242D01*
X12850752Y-16401810D01*
X12813759Y-16343102D01*
X12752227Y-16278325D01*
X12679800Y-16219688D01*
X12610123Y-16179399D01*
X12596300Y-16174138D01*
X12521760Y-16157013D01*
X12447726Y-16150166D01*
X12371103Y-16150166D01*
X12371103Y-16425333D01*
X12371103Y-16425333D01*
G37*
X12371103Y-16425333D02*
X12472339Y-16425333D01*
X12591683Y-16442158D01*
X12688306Y-16493883D01*
X12765192Y-16582380D01*
X12788857Y-16624079D01*
X12811807Y-16671275D01*
X12829626Y-16716074D01*
X12842994Y-16764620D01*
X12852594Y-16823059D01*
X12859107Y-16897536D01*
X12863217Y-16994193D01*
X12865604Y-17119177D01*
X12866951Y-17278631D01*
X12867234Y-17330208D01*
X12869333Y-17737666D01*
X13144500Y-17737666D01*
X13146264Y-17033875D01*
X13146935Y-16861657D01*
X13148021Y-16699872D01*
X13149448Y-16554202D01*
X13150487Y-16478250D01*
X12890500Y-16478250D01*
X12879917Y-16488833D01*
X12869333Y-16478250D01*
X12879917Y-16467666D01*
X12890500Y-16478250D01*
X13150487Y-16478250D01*
X13151144Y-16430326D01*
X13153036Y-16333926D01*
X13155050Y-16270683D01*
X13156318Y-16250708D01*
X13164610Y-16171333D01*
X13038138Y-16171333D01*
X12967982Y-16172225D01*
X12929950Y-16178247D01*
X12913832Y-16194421D01*
X12909419Y-16225768D01*
X12909021Y-16234833D01*
X12906025Y-16306104D01*
X12903729Y-16360069D01*
X12895523Y-16416765D01*
X12879544Y-16437740D01*
X12859287Y-16420242D01*
X12850752Y-16401810D01*
X12813759Y-16343102D01*
X12752227Y-16278325D01*
X12679800Y-16219688D01*
X12610123Y-16179399D01*
X12596300Y-16174138D01*
X12521760Y-16157013D01*
X12447726Y-16150166D01*
X12371103Y-16150166D01*
X12371103Y-16425333D01*
G36*
X11922129Y-16175657D02*
X11779257Y-16181916D01*
X11779110Y-16959791D01*
X11778962Y-17737666D01*
X12065000Y-17737666D01*
X12065000Y-16169399D01*
X11922129Y-16175657D01*
X11922129Y-16175657D01*
G37*
X11922129Y-16175657D02*
X11779257Y-16181916D01*
X11779110Y-16959791D01*
X11778962Y-17737666D01*
X12065000Y-17737666D01*
X12065000Y-16169399D01*
X11922129Y-16175657D01*
G36*
X10212917Y-16181916D02*
X10211734Y-16256000D01*
X10226784Y-16338125D01*
X10276120Y-16428309D01*
X10347282Y-16515291D01*
X10377620Y-16552339D01*
X10386814Y-16572353D01*
X10384698Y-16573500D01*
X10383352Y-16585526D01*
X10396613Y-16602279D01*
X10455140Y-16664609D01*
X10506688Y-16723222D01*
X10544152Y-16769673D01*
X10560426Y-16795516D01*
X10560587Y-16797187D01*
X10572288Y-16818921D01*
X10604358Y-16859488D01*
X10623806Y-16881545D01*
X10662874Y-16927247D01*
X10686235Y-16959922D01*
X10689167Y-16967245D01*
X10701809Y-16990028D01*
X10734063Y-17032780D01*
X10757958Y-17061607D01*
X10815060Y-17131416D01*
X10874159Y-17208059D01*
X10890250Y-17229940D01*
X10942816Y-17298874D01*
X11005170Y-17375509D01*
X11035821Y-17411308D01*
X11117892Y-17504833D01*
X10202333Y-17504833D01*
X10202333Y-17737666D01*
X11472333Y-17737666D01*
X11472333Y-17642416D01*
X11467232Y-17579627D01*
X11453223Y-17548975D01*
X11447639Y-17547166D01*
X11432903Y-17539132D01*
X11436029Y-17534082D01*
X11430381Y-17512784D01*
X11401592Y-17472679D01*
X11376240Y-17444123D01*
X11334220Y-17397047D01*
X11307797Y-17362162D01*
X11303184Y-17352111D01*
X11290239Y-17328529D01*
X11257638Y-17286043D01*
X11237307Y-17262153D01*
X11201705Y-17218705D01*
X11184487Y-17191713D01*
X11185215Y-17187333D01*
X11182126Y-17174350D01*
X11156247Y-17142786D01*
X11153336Y-17139708D01*
X11114973Y-17095864D01*
X11061960Y-17030871D01*
X11004344Y-16957549D01*
X10952169Y-16888720D01*
X10915481Y-16837205D01*
X10911417Y-16830949D01*
X10896580Y-16808507D01*
X10878796Y-16785270D01*
X10850520Y-16752182D01*
X10804210Y-16700187D01*
X10780537Y-16673836D01*
X10742930Y-16628480D01*
X10722898Y-16597220D01*
X10722012Y-16590043D01*
X10713478Y-16571698D01*
X10681878Y-16534773D01*
X10657100Y-16509692D01*
X10614002Y-16464693D01*
X10587432Y-16430733D01*
X10583333Y-16421181D01*
X10603430Y-16415947D01*
X10659441Y-16411366D01*
X10744949Y-16407701D01*
X10853539Y-16405218D01*
X10978792Y-16404181D01*
X10996083Y-16404166D01*
X11408833Y-16404166D01*
X11408833Y-16170674D01*
X10212917Y-16181916D01*
X10212917Y-16181916D01*
G37*
X10212917Y-16181916D02*
X10211734Y-16256000D01*
X10226784Y-16338125D01*
X10276120Y-16428309D01*
X10347282Y-16515291D01*
X10377620Y-16552339D01*
X10386814Y-16572353D01*
X10384698Y-16573500D01*
X10383352Y-16585526D01*
X10396613Y-16602279D01*
X10455140Y-16664609D01*
X10506688Y-16723222D01*
X10544152Y-16769673D01*
X10560426Y-16795516D01*
X10560587Y-16797187D01*
X10572288Y-16818921D01*
X10604358Y-16859488D01*
X10623806Y-16881545D01*
X10662874Y-16927247D01*
X10686235Y-16959922D01*
X10689167Y-16967245D01*
X10701809Y-16990028D01*
X10734063Y-17032780D01*
X10757958Y-17061607D01*
X10815060Y-17131416D01*
X10874159Y-17208059D01*
X10890250Y-17229940D01*
X10942816Y-17298874D01*
X11005170Y-17375509D01*
X11035821Y-17411308D01*
X11117892Y-17504833D01*
X10202333Y-17504833D01*
X10202333Y-17737666D01*
X11472333Y-17737666D01*
X11472333Y-17642416D01*
X11467232Y-17579627D01*
X11453223Y-17548975D01*
X11447639Y-17547166D01*
X11432903Y-17539132D01*
X11436029Y-17534082D01*
X11430381Y-17512784D01*
X11401592Y-17472679D01*
X11376240Y-17444123D01*
X11334220Y-17397047D01*
X11307797Y-17362162D01*
X11303184Y-17352111D01*
X11290239Y-17328529D01*
X11257638Y-17286043D01*
X11237307Y-17262153D01*
X11201705Y-17218705D01*
X11184487Y-17191713D01*
X11185215Y-17187333D01*
X11182126Y-17174350D01*
X11156247Y-17142786D01*
X11153336Y-17139708D01*
X11114973Y-17095864D01*
X11061960Y-17030871D01*
X11004344Y-16957549D01*
X10952169Y-16888720D01*
X10915481Y-16837205D01*
X10911417Y-16830949D01*
X10896580Y-16808507D01*
X10878796Y-16785270D01*
X10850520Y-16752182D01*
X10804210Y-16700187D01*
X10780537Y-16673836D01*
X10742930Y-16628480D01*
X10722898Y-16597220D01*
X10722012Y-16590043D01*
X10713478Y-16571698D01*
X10681878Y-16534773D01*
X10657100Y-16509692D01*
X10614002Y-16464693D01*
X10587432Y-16430733D01*
X10583333Y-16421181D01*
X10603430Y-16415947D01*
X10659441Y-16411366D01*
X10744949Y-16407701D01*
X10853539Y-16405218D01*
X10978792Y-16404181D01*
X10996083Y-16404166D01*
X11408833Y-16404166D01*
X11408833Y-16170674D01*
X10212917Y-16181916D01*
G36*
X8837974Y-16266767D02*
X8858515Y-16362492D01*
X8903844Y-16435322D01*
X8979613Y-16529310D01*
X9031211Y-16597818D01*
X9056913Y-16638496D01*
X9059532Y-16647548D01*
X9070882Y-16671004D01*
X9085036Y-16687701D01*
X9140238Y-16746416D01*
X9188771Y-16801298D01*
X9223949Y-16844400D01*
X9239087Y-16867775D01*
X9238252Y-16869833D01*
X9239889Y-16881817D01*
X9253613Y-16897858D01*
X9284344Y-16932495D01*
X9325103Y-16982852D01*
X9334500Y-16995003D01*
X9381307Y-17055074D01*
X9436354Y-17124293D01*
X9456208Y-17148897D01*
X9495387Y-17199577D01*
X9520471Y-17236626D01*
X9525359Y-17247544D01*
X9538824Y-17269209D01*
X9573531Y-17311783D01*
X9615317Y-17358731D01*
X9663297Y-17413655D01*
X9697833Y-17458480D01*
X9710208Y-17480439D01*
X9699243Y-17489202D01*
X9659941Y-17495836D01*
X9589129Y-17500516D01*
X9483634Y-17503419D01*
X9340281Y-17504721D01*
X9271000Y-17504833D01*
X8826500Y-17504833D01*
X8826500Y-17737666D01*
X10096500Y-17737666D01*
X10096500Y-17646106D01*
X10088693Y-17573793D01*
X10060415Y-17522264D01*
X10043583Y-17504833D01*
X10007586Y-17464540D01*
X9990822Y-17433017D01*
X9990667Y-17431020D01*
X9976510Y-17402308D01*
X9941183Y-17360092D01*
X9927388Y-17346294D01*
X9890322Y-17306857D01*
X9873102Y-17280512D01*
X9873444Y-17276333D01*
X9865657Y-17257173D01*
X9835509Y-17218423D01*
X9809907Y-17190123D01*
X9767921Y-17143321D01*
X9741494Y-17109036D01*
X9736850Y-17099377D01*
X9724478Y-17076345D01*
X9693017Y-17032550D01*
X9667875Y-17000554D01*
X9599164Y-16914964D01*
X9535786Y-16834049D01*
X9476056Y-16756236D01*
X9436631Y-16706767D01*
X9382802Y-16641900D01*
X9340714Y-16592526D01*
X9285370Y-16528970D01*
X9246789Y-16481539D01*
X9228445Y-16447885D01*
X9233813Y-16425661D01*
X9266368Y-16412519D01*
X9329583Y-16406112D01*
X9426934Y-16404092D01*
X9561895Y-16404112D01*
X9619505Y-16404166D01*
X10033000Y-16404166D01*
X10033000Y-16171333D01*
X8832343Y-16171333D01*
X8837974Y-16266767D01*
X8837974Y-16266767D01*
G37*
X8837974Y-16266767D02*
X8858515Y-16362492D01*
X8903844Y-16435322D01*
X8979613Y-16529310D01*
X9031211Y-16597818D01*
X9056913Y-16638496D01*
X9059532Y-16647548D01*
X9070882Y-16671004D01*
X9085036Y-16687701D01*
X9140238Y-16746416D01*
X9188771Y-16801298D01*
X9223949Y-16844400D01*
X9239087Y-16867775D01*
X9238252Y-16869833D01*
X9239889Y-16881817D01*
X9253613Y-16897858D01*
X9284344Y-16932495D01*
X9325103Y-16982852D01*
X9334500Y-16995003D01*
X9381307Y-17055074D01*
X9436354Y-17124293D01*
X9456208Y-17148897D01*
X9495387Y-17199577D01*
X9520471Y-17236626D01*
X9525359Y-17247544D01*
X9538824Y-17269209D01*
X9573531Y-17311783D01*
X9615317Y-17358731D01*
X9663297Y-17413655D01*
X9697833Y-17458480D01*
X9710208Y-17480439D01*
X9699243Y-17489202D01*
X9659941Y-17495836D01*
X9589129Y-17500516D01*
X9483634Y-17503419D01*
X9340281Y-17504721D01*
X9271000Y-17504833D01*
X8826500Y-17504833D01*
X8826500Y-17737666D01*
X10096500Y-17737666D01*
X10096500Y-17646106D01*
X10088693Y-17573793D01*
X10060415Y-17522264D01*
X10043583Y-17504833D01*
X10007586Y-17464540D01*
X9990822Y-17433017D01*
X9990667Y-17431020D01*
X9976510Y-17402308D01*
X9941183Y-17360092D01*
X9927388Y-17346294D01*
X9890322Y-17306857D01*
X9873102Y-17280512D01*
X9873444Y-17276333D01*
X9865657Y-17257173D01*
X9835509Y-17218423D01*
X9809907Y-17190123D01*
X9767921Y-17143321D01*
X9741494Y-17109036D01*
X9736850Y-17099377D01*
X9724478Y-17076345D01*
X9693017Y-17032550D01*
X9667875Y-17000554D01*
X9599164Y-16914964D01*
X9535786Y-16834049D01*
X9476056Y-16756236D01*
X9436631Y-16706767D01*
X9382802Y-16641900D01*
X9340714Y-16592526D01*
X9285370Y-16528970D01*
X9246789Y-16481539D01*
X9228445Y-16447885D01*
X9233813Y-16425661D01*
X9266368Y-16412519D01*
X9329583Y-16406112D01*
X9426934Y-16404092D01*
X9561895Y-16404112D01*
X9619505Y-16404166D01*
X10033000Y-16404166D01*
X10033000Y-16171333D01*
X8832343Y-16171333D01*
X8837974Y-16266767D01*
G36*
X11829942Y-15590692D02*
X11803303Y-15613303D01*
X11758072Y-15683062D01*
X11749087Y-15756724D01*
X11772412Y-15824857D01*
X11824116Y-15878030D01*
X11900263Y-15906811D01*
X11926742Y-15909262D01*
X11987390Y-15902582D01*
X12034985Y-15871054D01*
X12056749Y-15847201D01*
X12095030Y-15776486D01*
X12098316Y-15706575D01*
X12073467Y-15643800D01*
X12027344Y-15594492D01*
X11966809Y-15564984D01*
X11898721Y-15561607D01*
X11829942Y-15590692D01*
X11829942Y-15590692D01*
G37*
X11829942Y-15590692D02*
X11803303Y-15613303D01*
X11758072Y-15683062D01*
X11749087Y-15756724D01*
X11772412Y-15824857D01*
X11824116Y-15878030D01*
X11900263Y-15906811D01*
X11926742Y-15909262D01*
X11987390Y-15902582D01*
X12034985Y-15871054D01*
X12056749Y-15847201D01*
X12095030Y-15776486D01*
X12098316Y-15706575D01*
X12073467Y-15643800D01*
X12027344Y-15594492D01*
X11966809Y-15564984D01*
X11898721Y-15561607D01*
X11829942Y-15590692D01*
G36*
X5837033Y-7022041D02*
X5831417Y-7630583D01*
X4963583Y-7630583D01*
X4957955Y-8191878D01*
X4952327Y-8753174D01*
X5397938Y-8752415D01*
X5843550Y-8751657D01*
X5836171Y-9471703D01*
X5834098Y-9643218D01*
X5831576Y-9801969D01*
X5828734Y-9942808D01*
X5825699Y-10060588D01*
X5822600Y-10150159D01*
X5819565Y-10206374D01*
X5817427Y-10223500D01*
X5788043Y-10297778D01*
X5758187Y-10350242D01*
X5717189Y-10399826D01*
X5661230Y-10447735D01*
X5591531Y-10491451D01*
X5574879Y-10499642D01*
X5512797Y-10524512D01*
X5444150Y-10546805D01*
X5380346Y-10563550D01*
X5332792Y-10571774D01*
X5312899Y-10568506D01*
X5312833Y-10567908D01*
X5299492Y-10568493D01*
X5286375Y-10576940D01*
X5254232Y-10585742D01*
X5191263Y-10592034D01*
X5108949Y-10594847D01*
X5074708Y-10594799D01*
X4889500Y-10592701D01*
X4889500Y-11209965D01*
X4889605Y-11387742D01*
X4890121Y-11527786D01*
X4891354Y-11634698D01*
X4893607Y-11713079D01*
X4897186Y-11767530D01*
X4902393Y-11802650D01*
X4909535Y-11823042D01*
X4918915Y-11833304D01*
X4930838Y-11838039D01*
X4931059Y-11838097D01*
X4965512Y-11841886D01*
X5031257Y-11844894D01*
X5119727Y-11847101D01*
X5222359Y-11848483D01*
X5330588Y-11849018D01*
X5435847Y-11848684D01*
X5529574Y-11847460D01*
X5603203Y-11845323D01*
X5648169Y-11842251D01*
X5657806Y-11839971D01*
X5682647Y-11832507D01*
X5735302Y-11824095D01*
X5770513Y-11820026D01*
X5853480Y-11810453D01*
X5917770Y-11800841D01*
X5953882Y-11792715D01*
X5958417Y-11789833D01*
X5971889Y-11784247D01*
X6016236Y-11774167D01*
X6082111Y-11761140D01*
X6229430Y-11720753D01*
X6391327Y-11655964D01*
X6553589Y-11573400D01*
X6702000Y-11479691D01*
X6731000Y-11458523D01*
X6792235Y-11409677D01*
X6856056Y-11354189D01*
X6915686Y-11298644D01*
X6964349Y-11249624D01*
X6995270Y-11213713D01*
X7001670Y-11197494D01*
X7000019Y-11197166D01*
X7001488Y-11183691D01*
X7025334Y-11151109D01*
X7026690Y-11149541D01*
X7057279Y-11108627D01*
X7070391Y-11080750D01*
X7084818Y-11047967D01*
X7099338Y-11027833D01*
X7120259Y-10992107D01*
X7147472Y-10932820D01*
X7174351Y-10866189D01*
X7194271Y-10808430D01*
X7200730Y-10779708D01*
X7208394Y-10749231D01*
X7221922Y-10710333D01*
X7232811Y-10678300D01*
X7241825Y-10641704D01*
X7249202Y-10596174D01*
X7255176Y-10537342D01*
X7259984Y-10460837D01*
X7263860Y-10362289D01*
X7267041Y-10237330D01*
X7269763Y-10081588D01*
X7272260Y-9890695D01*
X7273858Y-9747250D01*
X7275892Y-9566237D01*
X7278022Y-9394001D01*
X7280163Y-9236276D01*
X7282229Y-9098795D01*
X7284134Y-8987292D01*
X7285795Y-8907500D01*
X7286951Y-8868833D01*
X7291917Y-8752416D01*
X7821083Y-8752416D01*
X7822382Y-8212666D01*
X7822135Y-8065066D01*
X7820761Y-7931151D01*
X7818414Y-7816838D01*
X7815249Y-7728047D01*
X7811419Y-7670692D01*
X7807795Y-7651132D01*
X7780224Y-7642058D01*
X7716101Y-7635353D01*
X7621160Y-7631420D01*
X7515455Y-7630577D01*
X7239000Y-7631806D01*
X7239000Y-6413500D01*
X5842649Y-6413500D01*
X5837033Y-7022041D01*
X5837033Y-7022041D01*
G37*
X5837033Y-7022041D02*
X5831417Y-7630583D01*
X4963583Y-7630583D01*
X4957955Y-8191878D01*
X4952327Y-8753174D01*
X5397938Y-8752415D01*
X5843550Y-8751657D01*
X5836171Y-9471703D01*
X5834098Y-9643218D01*
X5831576Y-9801969D01*
X5828734Y-9942808D01*
X5825699Y-10060588D01*
X5822600Y-10150159D01*
X5819565Y-10206374D01*
X5817427Y-10223500D01*
X5788043Y-10297778D01*
X5758187Y-10350242D01*
X5717189Y-10399826D01*
X5661230Y-10447735D01*
X5591531Y-10491451D01*
X5574879Y-10499642D01*
X5512797Y-10524512D01*
X5444150Y-10546805D01*
X5380346Y-10563550D01*
X5332792Y-10571774D01*
X5312899Y-10568506D01*
X5312833Y-10567908D01*
X5299492Y-10568493D01*
X5286375Y-10576940D01*
X5254232Y-10585742D01*
X5191263Y-10592034D01*
X5108949Y-10594847D01*
X5074708Y-10594799D01*
X4889500Y-10592701D01*
X4889500Y-11209965D01*
X4889605Y-11387742D01*
X4890121Y-11527786D01*
X4891354Y-11634698D01*
X4893607Y-11713079D01*
X4897186Y-11767530D01*
X4902393Y-11802650D01*
X4909535Y-11823042D01*
X4918915Y-11833304D01*
X4930838Y-11838039D01*
X4931059Y-11838097D01*
X4965512Y-11841886D01*
X5031257Y-11844894D01*
X5119727Y-11847101D01*
X5222359Y-11848483D01*
X5330588Y-11849018D01*
X5435847Y-11848684D01*
X5529574Y-11847460D01*
X5603203Y-11845323D01*
X5648169Y-11842251D01*
X5657806Y-11839971D01*
X5682647Y-11832507D01*
X5735302Y-11824095D01*
X5770513Y-11820026D01*
X5853480Y-11810453D01*
X5917770Y-11800841D01*
X5953882Y-11792715D01*
X5958417Y-11789833D01*
X5971889Y-11784247D01*
X6016236Y-11774167D01*
X6082111Y-11761140D01*
X6229430Y-11720753D01*
X6391327Y-11655964D01*
X6553589Y-11573400D01*
X6702000Y-11479691D01*
X6731000Y-11458523D01*
X6792235Y-11409677D01*
X6856056Y-11354189D01*
X6915686Y-11298644D01*
X6964349Y-11249624D01*
X6995270Y-11213713D01*
X7001670Y-11197494D01*
X7000019Y-11197166D01*
X7001488Y-11183691D01*
X7025334Y-11151109D01*
X7026690Y-11149541D01*
X7057279Y-11108627D01*
X7070391Y-11080750D01*
X7084818Y-11047967D01*
X7099338Y-11027833D01*
X7120259Y-10992107D01*
X7147472Y-10932820D01*
X7174351Y-10866189D01*
X7194271Y-10808430D01*
X7200730Y-10779708D01*
X7208394Y-10749231D01*
X7221922Y-10710333D01*
X7232811Y-10678300D01*
X7241825Y-10641704D01*
X7249202Y-10596174D01*
X7255176Y-10537342D01*
X7259984Y-10460837D01*
X7263860Y-10362289D01*
X7267041Y-10237330D01*
X7269763Y-10081588D01*
X7272260Y-9890695D01*
X7273858Y-9747250D01*
X7275892Y-9566237D01*
X7278022Y-9394001D01*
X7280163Y-9236276D01*
X7282229Y-9098795D01*
X7284134Y-8987292D01*
X7285795Y-8907500D01*
X7286951Y-8868833D01*
X7291917Y-8752416D01*
X7821083Y-8752416D01*
X7822382Y-8212666D01*
X7822135Y-8065066D01*
X7820761Y-7931151D01*
X7818414Y-7816838D01*
X7815249Y-7728047D01*
X7811419Y-7670692D01*
X7807795Y-7651132D01*
X7780224Y-7642058D01*
X7716101Y-7635353D01*
X7621160Y-7631420D01*
X7515455Y-7630577D01*
X7239000Y-7631806D01*
X7239000Y-6413500D01*
X5842649Y-6413500D01*
X5837033Y-7022041D01*
G36*
X11488208Y-5911623D02*
X11257547Y-5913360D01*
X11037863Y-5915431D01*
X10833096Y-5917769D01*
X10647185Y-5920312D01*
X10484069Y-5922994D01*
X10347686Y-5925751D01*
X10241975Y-5928518D01*
X10170875Y-5931231D01*
X10138833Y-5933725D01*
X10066875Y-5946214D01*
X10001250Y-5956466D01*
X9956763Y-5963811D01*
X9937759Y-5968939D01*
X9937750Y-5969000D01*
X9919469Y-5974170D01*
X9875382Y-5981803D01*
X9874250Y-5981973D01*
X9817476Y-5993157D01*
X9779000Y-6004596D01*
X9734985Y-6019768D01*
X9722054Y-6023055D01*
X9633862Y-6049513D01*
X9524409Y-6093754D01*
X9405553Y-6149774D01*
X9289152Y-6211570D01*
X9187065Y-6273141D01*
X9111151Y-6328482D01*
X9101104Y-6337390D01*
X9052774Y-6380105D01*
X9017377Y-6407720D01*
X9006377Y-6413500D01*
X8984560Y-6427016D01*
X8947318Y-6460177D01*
X8940993Y-6466416D01*
X8910333Y-6500825D01*
X8901778Y-6518646D01*
X8903581Y-6519333D01*
X8901003Y-6532659D01*
X8875427Y-6565822D01*
X8864819Y-6577541D01*
X8772873Y-6702716D01*
X8696878Y-6860655D01*
X8639128Y-7044051D01*
X8601915Y-7245598D01*
X8587531Y-7457992D01*
X8587501Y-7461250D01*
X8590361Y-7549871D01*
X8599045Y-7648209D01*
X8611710Y-7741266D01*
X8626512Y-7814039D01*
X8633679Y-7836958D01*
X8645780Y-7877884D01*
X8643588Y-7895164D01*
X8643468Y-7895166D01*
X8642919Y-7908192D01*
X8651817Y-7921625D01*
X8671635Y-7958114D01*
X8694234Y-8015110D01*
X8699058Y-8029504D01*
X8734737Y-8118768D01*
X8784059Y-8214809D01*
X8839254Y-8304498D01*
X8892556Y-8374706D01*
X8918638Y-8400584D01*
X8941529Y-8431059D01*
X8941435Y-8447898D01*
X8943723Y-8465687D01*
X8949312Y-8466666D01*
X8973590Y-8480196D01*
X9018296Y-8515622D01*
X9072270Y-8563912D01*
X9133689Y-8617501D01*
X9190723Y-8660336D01*
X9226822Y-8681115D01*
X9258793Y-8700661D01*
X9253135Y-8721239D01*
X9208248Y-8744666D01*
X9154583Y-8763126D01*
X9079247Y-8795387D01*
X8985549Y-8848107D01*
X8886297Y-8913101D01*
X8794298Y-8982185D01*
X8745037Y-9024862D01*
X8695728Y-9078313D01*
X8640551Y-9149745D01*
X8584344Y-9231236D01*
X8531945Y-9314864D01*
X8488192Y-9392707D01*
X8457924Y-9456841D01*
X8445979Y-9499346D01*
X8448600Y-9510255D01*
X8443294Y-9530789D01*
X8429402Y-9550642D01*
X8409953Y-9590987D01*
X8393533Y-9653080D01*
X8389779Y-9675604D01*
X8378274Y-9743439D01*
X8365377Y-9799316D01*
X8361795Y-9810750D01*
X8354698Y-9855028D01*
X8350982Y-9930522D01*
X8350339Y-10026275D01*
X8352459Y-10131330D01*
X8357032Y-10234732D01*
X8363750Y-10325523D01*
X8372303Y-10392747D01*
X8378964Y-10419291D01*
X8392755Y-10460236D01*
X8393610Y-10477497D01*
X8393537Y-10477500D01*
X8393166Y-10495172D01*
X8403497Y-10538494D01*
X8405805Y-10546291D01*
X8422829Y-10605333D01*
X8434738Y-10651538D01*
X8434824Y-10651929D01*
X8447748Y-10687634D01*
X8474658Y-10749145D01*
X8510291Y-10824562D01*
X8519071Y-10842429D01*
X8560462Y-10922293D01*
X8601013Y-10989806D01*
X8648855Y-11056610D01*
X8712115Y-11134346D01*
X8769419Y-11200918D01*
X8813924Y-11245504D01*
X8877113Y-11301249D01*
X8946831Y-11358242D01*
X9010925Y-11406570D01*
X9057241Y-11436320D01*
X9059333Y-11437368D01*
X9140374Y-11481867D01*
X9208663Y-11528188D01*
X9215826Y-11533959D01*
X9242637Y-11550115D01*
X9249833Y-11546416D01*
X9262971Y-11544865D01*
X9283648Y-11558713D01*
X9333744Y-11585936D01*
X9361362Y-11593476D01*
X9409455Y-11608422D01*
X9429750Y-11620500D01*
X9470995Y-11641895D01*
X9494911Y-11648648D01*
X9549269Y-11663616D01*
X9570972Y-11671867D01*
X9624154Y-11689722D01*
X9645056Y-11694594D01*
X9677350Y-11702175D01*
X9683750Y-11705166D01*
X9700772Y-11711759D01*
X9715500Y-11715354D01*
X9904502Y-11754108D01*
X9916583Y-11756362D01*
X9984150Y-11769114D01*
X10054167Y-11782635D01*
X10088107Y-11785332D01*
X10160515Y-11788123D01*
X10267524Y-11790945D01*
X10405269Y-11793736D01*
X10569883Y-11796433D01*
X10757501Y-11798974D01*
X10964257Y-11801296D01*
X11186285Y-11803336D01*
X11419720Y-11805031D01*
X11445875Y-11805193D01*
X12763500Y-11813238D01*
X12763500Y-9355666D01*
X11313952Y-9355666D01*
X11311076Y-9964208D01*
X11310254Y-10119850D01*
X11309343Y-10260850D01*
X11308390Y-10381913D01*
X11307444Y-10477742D01*
X11306552Y-10543041D01*
X11305762Y-10572516D01*
X11305600Y-10573671D01*
X11281831Y-10574570D01*
X11222943Y-10574648D01*
X11136137Y-10574024D01*
X11028618Y-10572817D01*
X10907587Y-10571145D01*
X10780249Y-10569128D01*
X10653805Y-10566884D01*
X10535460Y-10564533D01*
X10432415Y-10562192D01*
X10351875Y-10559982D01*
X10301041Y-10558020D01*
X10287000Y-10556861D01*
X10196165Y-10522276D01*
X10098061Y-10466654D01*
X10012264Y-10401686D01*
X9988404Y-10378520D01*
X9933988Y-10313328D01*
X9896315Y-10253439D01*
X9882393Y-10210127D01*
X9882478Y-10208138D01*
X9874192Y-10188150D01*
X9855918Y-10151438D01*
X9838036Y-10087759D01*
X9831374Y-9997581D01*
X9835251Y-9895029D01*
X9848982Y-9794230D01*
X9871886Y-9709311D01*
X9878011Y-9694333D01*
X9955082Y-9570866D01*
X10062913Y-9469733D01*
X10192182Y-9399658D01*
X10193496Y-9399164D01*
X10234180Y-9385208D01*
X10276164Y-9374576D01*
X10325763Y-9366824D01*
X10389294Y-9361507D01*
X10473072Y-9358182D01*
X10583416Y-9356404D01*
X10726641Y-9355729D01*
X10811853Y-9355666D01*
X11313952Y-9355666D01*
X12763500Y-9355666D01*
X12763500Y-8192952D01*
X11313799Y-8192952D01*
X10874930Y-8190636D01*
X10726394Y-8189589D01*
X10613560Y-8187811D01*
X10529795Y-8184676D01*
X10468469Y-8179561D01*
X10422948Y-8171838D01*
X10386602Y-8160883D01*
X10352799Y-8146071D01*
X10341251Y-8140321D01*
X10260465Y-8096299D01*
X10206757Y-8056368D01*
X10167770Y-8009219D01*
X10135349Y-7951836D01*
X10080434Y-7799505D01*
X10064283Y-7639327D01*
X10087283Y-7480379D01*
X10112207Y-7407514D01*
X10143646Y-7357570D01*
X10194510Y-7301439D01*
X10253468Y-7249197D01*
X10309189Y-7210920D01*
X10349312Y-7196666D01*
X10389305Y-7187668D01*
X10402476Y-7177021D01*
X10426475Y-7170985D01*
X10486714Y-7165523D01*
X10577100Y-7160922D01*
X10691541Y-7157471D01*
X10823944Y-7155458D01*
X10864209Y-7155187D01*
X11313799Y-7152998D01*
X11313799Y-8192952D01*
X12763500Y-8192952D01*
X12763500Y-5903208D01*
X11488208Y-5911623D01*
X11488208Y-5911623D01*
G37*
X11488208Y-5911623D02*
X11257547Y-5913360D01*
X11037863Y-5915431D01*
X10833096Y-5917769D01*
X10647185Y-5920312D01*
X10484069Y-5922994D01*
X10347686Y-5925751D01*
X10241975Y-5928518D01*
X10170875Y-5931231D01*
X10138833Y-5933725D01*
X10066875Y-5946214D01*
X10001250Y-5956466D01*
X9956763Y-5963811D01*
X9937759Y-5968939D01*
X9937750Y-5969000D01*
X9919469Y-5974170D01*
X9875382Y-5981803D01*
X9874250Y-5981973D01*
X9817476Y-5993157D01*
X9779000Y-6004596D01*
X9734985Y-6019768D01*
X9722054Y-6023055D01*
X9633862Y-6049513D01*
X9524409Y-6093754D01*
X9405553Y-6149774D01*
X9289152Y-6211570D01*
X9187065Y-6273141D01*
X9111151Y-6328482D01*
X9101104Y-6337390D01*
X9052774Y-6380105D01*
X9017377Y-6407720D01*
X9006377Y-6413500D01*
X8984560Y-6427016D01*
X8947318Y-6460177D01*
X8940993Y-6466416D01*
X8910333Y-6500825D01*
X8901778Y-6518646D01*
X8903581Y-6519333D01*
X8901003Y-6532659D01*
X8875427Y-6565822D01*
X8864819Y-6577541D01*
X8772873Y-6702716D01*
X8696878Y-6860655D01*
X8639128Y-7044051D01*
X8601915Y-7245598D01*
X8587531Y-7457992D01*
X8587501Y-7461250D01*
X8590361Y-7549871D01*
X8599045Y-7648209D01*
X8611710Y-7741266D01*
X8626512Y-7814039D01*
X8633679Y-7836958D01*
X8645780Y-7877884D01*
X8643588Y-7895164D01*
X8643468Y-7895166D01*
X8642919Y-7908192D01*
X8651817Y-7921625D01*
X8671635Y-7958114D01*
X8694234Y-8015110D01*
X8699058Y-8029504D01*
X8734737Y-8118768D01*
X8784059Y-8214809D01*
X8839254Y-8304498D01*
X8892556Y-8374706D01*
X8918638Y-8400584D01*
X8941529Y-8431059D01*
X8941435Y-8447898D01*
X8943723Y-8465687D01*
X8949312Y-8466666D01*
X8973590Y-8480196D01*
X9018296Y-8515622D01*
X9072270Y-8563912D01*
X9133689Y-8617501D01*
X9190723Y-8660336D01*
X9226822Y-8681115D01*
X9258793Y-8700661D01*
X9253135Y-8721239D01*
X9208248Y-8744666D01*
X9154583Y-8763126D01*
X9079247Y-8795387D01*
X8985549Y-8848107D01*
X8886297Y-8913101D01*
X8794298Y-8982185D01*
X8745037Y-9024862D01*
X8695728Y-9078313D01*
X8640551Y-9149745D01*
X8584344Y-9231236D01*
X8531945Y-9314864D01*
X8488192Y-9392707D01*
X8457924Y-9456841D01*
X8445979Y-9499346D01*
X8448600Y-9510255D01*
X8443294Y-9530789D01*
X8429402Y-9550642D01*
X8409953Y-9590987D01*
X8393533Y-9653080D01*
X8389779Y-9675604D01*
X8378274Y-9743439D01*
X8365377Y-9799316D01*
X8361795Y-9810750D01*
X8354698Y-9855028D01*
X8350982Y-9930522D01*
X8350339Y-10026275D01*
X8352459Y-10131330D01*
X8357032Y-10234732D01*
X8363750Y-10325523D01*
X8372303Y-10392747D01*
X8378964Y-10419291D01*
X8392755Y-10460236D01*
X8393610Y-10477497D01*
X8393537Y-10477500D01*
X8393166Y-10495172D01*
X8403497Y-10538494D01*
X8405805Y-10546291D01*
X8422829Y-10605333D01*
X8434738Y-10651538D01*
X8434824Y-10651929D01*
X8447748Y-10687634D01*
X8474658Y-10749145D01*
X8510291Y-10824562D01*
X8519071Y-10842429D01*
X8560462Y-10922293D01*
X8601013Y-10989806D01*
X8648855Y-11056610D01*
X8712115Y-11134346D01*
X8769419Y-11200918D01*
X8813924Y-11245504D01*
X8877113Y-11301249D01*
X8946831Y-11358242D01*
X9010925Y-11406570D01*
X9057241Y-11436320D01*
X9059333Y-11437368D01*
X9140374Y-11481867D01*
X9208663Y-11528188D01*
X9215826Y-11533959D01*
X9242637Y-11550115D01*
X9249833Y-11546416D01*
X9262971Y-11544865D01*
X9283648Y-11558713D01*
X9333744Y-11585936D01*
X9361362Y-11593476D01*
X9409455Y-11608422D01*
X9429750Y-11620500D01*
X9470995Y-11641895D01*
X9494911Y-11648648D01*
X9549269Y-11663616D01*
X9570972Y-11671867D01*
X9624154Y-11689722D01*
X9645056Y-11694594D01*
X9677350Y-11702175D01*
X9683750Y-11705166D01*
X9700772Y-11711759D01*
X9715500Y-11715354D01*
X9904502Y-11754108D01*
X9916583Y-11756362D01*
X9984150Y-11769114D01*
X10054167Y-11782635D01*
X10088107Y-11785332D01*
X10160515Y-11788123D01*
X10267524Y-11790945D01*
X10405269Y-11793736D01*
X10569883Y-11796433D01*
X10757501Y-11798974D01*
X10964257Y-11801296D01*
X11186285Y-11803336D01*
X11419720Y-11805031D01*
X11445875Y-11805193D01*
X12763500Y-11813238D01*
X12763500Y-9355666D01*
X11313952Y-9355666D01*
X11311076Y-9964208D01*
X11310254Y-10119850D01*
X11309343Y-10260850D01*
X11308390Y-10381913D01*
X11307444Y-10477742D01*
X11306552Y-10543041D01*
X11305762Y-10572516D01*
X11305600Y-10573671D01*
X11281831Y-10574570D01*
X11222943Y-10574648D01*
X11136137Y-10574024D01*
X11028618Y-10572817D01*
X10907587Y-10571145D01*
X10780249Y-10569128D01*
X10653805Y-10566884D01*
X10535460Y-10564533D01*
X10432415Y-10562192D01*
X10351875Y-10559982D01*
X10301041Y-10558020D01*
X10287000Y-10556861D01*
X10196165Y-10522276D01*
X10098061Y-10466654D01*
X10012264Y-10401686D01*
X9988404Y-10378520D01*
X9933988Y-10313328D01*
X9896315Y-10253439D01*
X9882393Y-10210127D01*
X9882478Y-10208138D01*
X9874192Y-10188150D01*
X9855918Y-10151438D01*
X9838036Y-10087759D01*
X9831374Y-9997581D01*
X9835251Y-9895029D01*
X9848982Y-9794230D01*
X9871886Y-9709311D01*
X9878011Y-9694333D01*
X9955082Y-9570866D01*
X10062913Y-9469733D01*
X10192182Y-9399658D01*
X10193496Y-9399164D01*
X10234180Y-9385208D01*
X10276164Y-9374576D01*
X10325763Y-9366824D01*
X10389294Y-9361507D01*
X10473072Y-9358182D01*
X10583416Y-9356404D01*
X10726641Y-9355729D01*
X10811853Y-9355666D01*
X11313952Y-9355666D01*
X12763500Y-9355666D01*
X12763500Y-8192952D01*
X11313799Y-8192952D01*
X10874930Y-8190636D01*
X10726394Y-8189589D01*
X10613560Y-8187811D01*
X10529795Y-8184676D01*
X10468469Y-8179561D01*
X10422948Y-8171838D01*
X10386602Y-8160883D01*
X10352799Y-8146071D01*
X10341251Y-8140321D01*
X10260465Y-8096299D01*
X10206757Y-8056368D01*
X10167770Y-8009219D01*
X10135349Y-7951836D01*
X10080434Y-7799505D01*
X10064283Y-7639327D01*
X10087283Y-7480379D01*
X10112207Y-7407514D01*
X10143646Y-7357570D01*
X10194510Y-7301439D01*
X10253468Y-7249197D01*
X10309189Y-7210920D01*
X10349312Y-7196666D01*
X10389305Y-7187668D01*
X10402476Y-7177021D01*
X10426475Y-7170985D01*
X10486714Y-7165523D01*
X10577100Y-7160922D01*
X10691541Y-7157471D01*
X10823944Y-7155458D01*
X10864209Y-7155187D01*
X11313799Y-7152998D01*
X11313799Y-8192952D01*
X12763500Y-8192952D01*
X12763500Y-5903208D01*
X11488208Y-5911623D01*
M02*
