%TF.GenerationSoftware,KiCad,Pcbnew,4.0.7*%
%TF.CreationDate,2018-05-06T15:55:51+02:00*%
%TF.ProjectId,Modulo_bluetooth,4D6F64756C6F5F626C7565746F6F7468,rev?*%
%TF.FileFunction,Copper,L2,Bot,Signal*%
%FSLAX46Y46*%
G04 Gerber Fmt 4.6, Leading zero omitted, Abs format (unit mm)*
G04 Created by KiCad (PCBNEW 4.0.7) date 05/06/18 15:55:51*
%MOMM*%
%LPD*%
G01*
G04 APERTURE LIST*
%ADD10C,0.100000*%
%ADD11R,1.727200X2.032000*%
%ADD12O,1.727200X2.032000*%
%ADD13C,0.685800*%
%ADD14C,0.254000*%
%ADD15C,0.160000*%
G04 APERTURE END LIST*
D10*
D11*
X15494000Y-33528000D03*
D12*
X12954000Y-33528000D03*
X10414000Y-33528000D03*
X7874000Y-33528000D03*
X5334000Y-33528000D03*
X2794000Y-33528000D03*
D13*
X2540000Y-21971000D03*
X4953000Y-28956000D03*
X11303000Y-27178000D03*
X13843000Y-31877000D03*
X11684000Y-28956000D03*
X16891000Y-22225000D03*
X6629400Y-2921000D03*
X4627000Y-3120000D03*
X5842000Y-6731000D03*
X14859000Y-31623000D03*
X9017000Y-32258000D03*
X1143000Y-31115000D03*
X4699000Y-18669000D03*
X17653000Y-24384000D03*
X13208000Y-18415000D03*
D14*
X2540000Y-21971000D02*
X4953000Y-24384000D01*
X4953000Y-24384000D02*
X4953000Y-28956000D01*
X11684000Y-28956000D02*
X11684000Y-27813000D01*
X11303000Y-27432000D02*
X11303000Y-27178000D01*
X11684000Y-27813000D02*
X11303000Y-27432000D01*
X10414000Y-33528000D02*
X10668000Y-33528000D01*
X10668000Y-33528000D02*
X12319000Y-31877000D01*
X12319000Y-31877000D02*
X13843000Y-31877000D01*
X11684000Y-28956000D02*
X16891000Y-23749000D01*
X16891000Y-23749000D02*
X16891000Y-22225000D01*
X7874000Y-16256000D02*
X7874000Y-33528000D01*
X11912600Y-12217400D02*
X7874000Y-16256000D01*
X11912600Y-5765800D02*
X11912600Y-12217400D01*
X10845800Y-4699000D02*
X11912600Y-5765800D01*
X8407400Y-4699000D02*
X10845800Y-4699000D01*
X6629400Y-2921000D02*
X8407400Y-4699000D01*
X4627000Y-3120000D02*
X6604000Y-5097000D01*
X6604000Y-5097000D02*
X6604000Y-32258000D01*
X6604000Y-32258000D02*
X5334000Y-33528000D01*
X2794000Y-33528000D02*
X2794000Y-32258000D01*
X5842000Y-29210000D02*
X5842000Y-7899400D01*
X5842000Y-7899400D02*
X5842000Y-6731000D01*
X2794000Y-32258000D02*
X5842000Y-29210000D01*
X14351000Y-31115000D02*
X14859000Y-31623000D01*
X10160000Y-31115000D02*
X14351000Y-31115000D01*
X9017000Y-32258000D02*
X10160000Y-31115000D01*
X1143000Y-22225000D02*
X1143000Y-31115000D01*
X4699000Y-18669000D02*
X1143000Y-22225000D01*
X17653000Y-21463000D02*
X17653000Y-24384000D01*
X17145000Y-20955000D02*
X17653000Y-21463000D01*
X15748000Y-20955000D02*
X17145000Y-20955000D01*
X13208000Y-18415000D02*
X15748000Y-20955000D01*
D15*
G36*
X16458989Y-516916D02*
X17169401Y-991599D01*
X17644084Y-1702012D01*
X17817500Y-2573834D01*
X17817500Y-20975547D01*
X17470976Y-20629024D01*
X17321417Y-20529092D01*
X17145000Y-20494000D01*
X15938953Y-20494000D01*
X13884878Y-18439926D01*
X13885017Y-18280947D01*
X13782182Y-18032068D01*
X13591934Y-17841487D01*
X13343234Y-17738218D01*
X13073947Y-17737983D01*
X12825068Y-17840818D01*
X12634487Y-18031066D01*
X12531218Y-18279766D01*
X12530983Y-18549053D01*
X12633818Y-18797932D01*
X12824066Y-18988513D01*
X13072766Y-19091782D01*
X13232970Y-19091922D01*
X15422023Y-21280976D01*
X15430415Y-21286583D01*
X15571583Y-21380908D01*
X15748000Y-21416000D01*
X16954048Y-21416000D01*
X17192000Y-21653953D01*
X17192000Y-23887750D01*
X17079487Y-24000066D01*
X16976218Y-24248766D01*
X16975983Y-24518053D01*
X17078818Y-24766932D01*
X17269066Y-24957513D01*
X17517766Y-25060782D01*
X17787053Y-25061017D01*
X17817500Y-25048437D01*
X17817500Y-33866481D01*
X17602580Y-34721330D01*
X17092274Y-35408147D01*
X16357980Y-35847396D01*
X15468812Y-35978500D01*
X2455519Y-35978500D01*
X1600670Y-35763580D01*
X913853Y-35253274D01*
X474604Y-34518980D01*
X343500Y-33629812D01*
X343500Y-33349152D01*
X1596400Y-33349152D01*
X1596400Y-33706848D01*
X1687562Y-34165150D01*
X1947169Y-34553679D01*
X2335698Y-34813286D01*
X2794000Y-34904448D01*
X3252302Y-34813286D01*
X3640831Y-34553679D01*
X3900438Y-34165150D01*
X3991600Y-33706848D01*
X3991600Y-33349152D01*
X3900438Y-32890850D01*
X3640831Y-32502321D01*
X3377550Y-32326402D01*
X6143000Y-29560952D01*
X6143000Y-32067048D01*
X5897226Y-32312822D01*
X5792302Y-32242714D01*
X5334000Y-32151552D01*
X4875698Y-32242714D01*
X4487169Y-32502321D01*
X4227562Y-32890850D01*
X4136400Y-33349152D01*
X4136400Y-33706848D01*
X4227562Y-34165150D01*
X4487169Y-34553679D01*
X4875698Y-34813286D01*
X5334000Y-34904448D01*
X5792302Y-34813286D01*
X6180831Y-34553679D01*
X6440438Y-34165150D01*
X6531600Y-33706848D01*
X6531600Y-33349152D01*
X6470744Y-33043208D01*
X6929976Y-32583976D01*
X7029908Y-32434417D01*
X7065000Y-32258000D01*
X7065000Y-5097000D01*
X7029908Y-4920583D01*
X6929976Y-4771024D01*
X5303878Y-3144926D01*
X5303956Y-3055053D01*
X5952383Y-3055053D01*
X6055218Y-3303932D01*
X6245466Y-3494513D01*
X6494166Y-3597782D01*
X6654370Y-3597922D01*
X8081424Y-5024976D01*
X8230983Y-5124908D01*
X8407400Y-5160000D01*
X10654848Y-5160000D01*
X11451600Y-5956752D01*
X11451600Y-12026448D01*
X7548024Y-15930024D01*
X7448092Y-16079583D01*
X7413000Y-16256000D01*
X7413000Y-32244517D01*
X7027169Y-32502321D01*
X6767562Y-32890850D01*
X6676400Y-33349152D01*
X6676400Y-33706848D01*
X6767562Y-34165150D01*
X7027169Y-34553679D01*
X7415698Y-34813286D01*
X7874000Y-34904448D01*
X8332302Y-34813286D01*
X8720831Y-34553679D01*
X8980438Y-34165150D01*
X9013013Y-34001384D01*
X9188696Y-34456600D01*
X9579006Y-34866419D01*
X10016699Y-35076572D01*
X10240000Y-34973344D01*
X10240000Y-33702000D01*
X10220000Y-33702000D01*
X10220000Y-33354000D01*
X10240000Y-33354000D01*
X10240000Y-32082656D01*
X10588000Y-32082656D01*
X10588000Y-33354000D01*
X10608000Y-33354000D01*
X10608000Y-33702000D01*
X10588000Y-33702000D01*
X10588000Y-34973344D01*
X10811301Y-35076572D01*
X11248994Y-34866419D01*
X11639304Y-34456600D01*
X11814987Y-34001384D01*
X11847562Y-34165150D01*
X12107169Y-34553679D01*
X12495698Y-34813286D01*
X12954000Y-34904448D01*
X13412302Y-34813286D01*
X13800831Y-34553679D01*
X14060438Y-34165150D01*
X14151600Y-33706848D01*
X14151600Y-33349152D01*
X14060438Y-32890850D01*
X13800831Y-32502321D01*
X13412302Y-32242714D01*
X12954000Y-32151552D01*
X12495698Y-32242714D01*
X12107169Y-32502321D01*
X11847562Y-32890850D01*
X11814987Y-33054616D01*
X11639304Y-32599400D01*
X11248994Y-32189581D01*
X10811301Y-31979428D01*
X10588000Y-32082656D01*
X10240000Y-32082656D01*
X10016699Y-31979428D01*
X9883635Y-32043317D01*
X10350952Y-31576000D01*
X14160048Y-31576000D01*
X14182122Y-31598074D01*
X14181983Y-31757053D01*
X14284818Y-32005932D01*
X14475066Y-32196513D01*
X14492580Y-32203785D01*
X14392949Y-32267896D01*
X14316687Y-32379510D01*
X14289857Y-32512000D01*
X14289857Y-34544000D01*
X14313146Y-34667773D01*
X14386296Y-34781451D01*
X14497910Y-34857713D01*
X14630400Y-34884543D01*
X16357600Y-34884543D01*
X16481373Y-34861254D01*
X16595051Y-34788104D01*
X16671313Y-34676490D01*
X16698143Y-34544000D01*
X16698143Y-32512000D01*
X16674854Y-32388227D01*
X16601704Y-32274549D01*
X16490090Y-32198287D01*
X16357600Y-32171457D01*
X15267702Y-32171457D01*
X15432513Y-32006934D01*
X15535782Y-31758234D01*
X15536017Y-31488947D01*
X15433182Y-31240068D01*
X15242934Y-31049487D01*
X14994234Y-30946218D01*
X14834031Y-30946078D01*
X14676976Y-30789024D01*
X14527417Y-30689092D01*
X14351000Y-30654000D01*
X10160000Y-30654000D01*
X9983583Y-30689092D01*
X9834024Y-30789024D01*
X9041926Y-31581122D01*
X8882947Y-31580983D01*
X8634068Y-31683818D01*
X8443487Y-31874066D01*
X8340218Y-32122766D01*
X8340109Y-32247930D01*
X8335000Y-32244517D01*
X8335000Y-16446952D01*
X12238576Y-12543376D01*
X12338508Y-12393817D01*
X12373600Y-12217400D01*
X12373600Y-5765800D01*
X12338508Y-5589383D01*
X12238576Y-5439824D01*
X11171776Y-4373024D01*
X11022217Y-4273092D01*
X10845800Y-4238000D01*
X8598352Y-4238000D01*
X7306278Y-2945926D01*
X7306417Y-2786947D01*
X7203582Y-2538068D01*
X7013334Y-2347487D01*
X6764634Y-2244218D01*
X6495347Y-2243983D01*
X6246468Y-2346818D01*
X6055887Y-2537066D01*
X5952618Y-2785766D01*
X5952383Y-3055053D01*
X5303956Y-3055053D01*
X5304017Y-2985947D01*
X5201182Y-2737068D01*
X5010934Y-2546487D01*
X4762234Y-2443218D01*
X4492947Y-2442983D01*
X4244068Y-2545818D01*
X4053487Y-2736066D01*
X3950218Y-2984766D01*
X3949983Y-3254053D01*
X4052818Y-3502932D01*
X4243066Y-3693513D01*
X4491766Y-3796782D01*
X4651970Y-3796922D01*
X6143000Y-5287952D01*
X6143000Y-6123050D01*
X5977234Y-6054218D01*
X5707947Y-6053983D01*
X5459068Y-6156818D01*
X5268487Y-6347066D01*
X5165218Y-6595766D01*
X5164983Y-6865053D01*
X5267818Y-7113932D01*
X5381000Y-7227312D01*
X5381000Y-29019048D01*
X2468024Y-31932024D01*
X2368092Y-32081583D01*
X2336055Y-32242643D01*
X2335698Y-32242714D01*
X1947169Y-32502321D01*
X1687562Y-32890850D01*
X1596400Y-33349152D01*
X343500Y-33349152D01*
X343500Y-31249053D01*
X465983Y-31249053D01*
X568818Y-31497932D01*
X759066Y-31688513D01*
X1007766Y-31791782D01*
X1277053Y-31792017D01*
X1525932Y-31689182D01*
X1716513Y-31498934D01*
X1819782Y-31250234D01*
X1820017Y-30980947D01*
X1717182Y-30732068D01*
X1604000Y-30618688D01*
X1604000Y-29609361D01*
X2694873Y-29609361D01*
X2806382Y-29879234D01*
X3012679Y-30085892D01*
X3282358Y-30197872D01*
X3574361Y-30198127D01*
X3844234Y-30086618D01*
X4050892Y-29880321D01*
X4162872Y-29610642D01*
X4163127Y-29318639D01*
X4051618Y-29048766D01*
X3845321Y-28842108D01*
X3575642Y-28730128D01*
X3283639Y-28729873D01*
X3013766Y-28841382D01*
X2807108Y-29047679D01*
X2695128Y-29317358D01*
X2694873Y-29609361D01*
X1604000Y-29609361D01*
X1604000Y-22415952D01*
X4674075Y-19345878D01*
X4833053Y-19346017D01*
X5081932Y-19243182D01*
X5272513Y-19052934D01*
X5375782Y-18804234D01*
X5376017Y-18534947D01*
X5273182Y-18286068D01*
X5082934Y-18095487D01*
X4834234Y-17992218D01*
X4564947Y-17991983D01*
X4316068Y-18094818D01*
X4125487Y-18285066D01*
X4022218Y-18533766D01*
X4022078Y-18693969D01*
X817024Y-21899024D01*
X717092Y-22048583D01*
X682000Y-22225000D01*
X682000Y-30618750D01*
X569487Y-30731066D01*
X466218Y-30979766D01*
X465983Y-31249053D01*
X343500Y-31249053D01*
X343500Y-2573834D01*
X516916Y-1702011D01*
X991599Y-991599D01*
X1702012Y-516916D01*
X2573834Y-343500D01*
X15587166Y-343500D01*
X16458989Y-516916D01*
X16458989Y-516916D01*
G37*
X16458989Y-516916D02*
X17169401Y-991599D01*
X17644084Y-1702012D01*
X17817500Y-2573834D01*
X17817500Y-20975547D01*
X17470976Y-20629024D01*
X17321417Y-20529092D01*
X17145000Y-20494000D01*
X15938953Y-20494000D01*
X13884878Y-18439926D01*
X13885017Y-18280947D01*
X13782182Y-18032068D01*
X13591934Y-17841487D01*
X13343234Y-17738218D01*
X13073947Y-17737983D01*
X12825068Y-17840818D01*
X12634487Y-18031066D01*
X12531218Y-18279766D01*
X12530983Y-18549053D01*
X12633818Y-18797932D01*
X12824066Y-18988513D01*
X13072766Y-19091782D01*
X13232970Y-19091922D01*
X15422023Y-21280976D01*
X15430415Y-21286583D01*
X15571583Y-21380908D01*
X15748000Y-21416000D01*
X16954048Y-21416000D01*
X17192000Y-21653953D01*
X17192000Y-23887750D01*
X17079487Y-24000066D01*
X16976218Y-24248766D01*
X16975983Y-24518053D01*
X17078818Y-24766932D01*
X17269066Y-24957513D01*
X17517766Y-25060782D01*
X17787053Y-25061017D01*
X17817500Y-25048437D01*
X17817500Y-33866481D01*
X17602580Y-34721330D01*
X17092274Y-35408147D01*
X16357980Y-35847396D01*
X15468812Y-35978500D01*
X2455519Y-35978500D01*
X1600670Y-35763580D01*
X913853Y-35253274D01*
X474604Y-34518980D01*
X343500Y-33629812D01*
X343500Y-33349152D01*
X1596400Y-33349152D01*
X1596400Y-33706848D01*
X1687562Y-34165150D01*
X1947169Y-34553679D01*
X2335698Y-34813286D01*
X2794000Y-34904448D01*
X3252302Y-34813286D01*
X3640831Y-34553679D01*
X3900438Y-34165150D01*
X3991600Y-33706848D01*
X3991600Y-33349152D01*
X3900438Y-32890850D01*
X3640831Y-32502321D01*
X3377550Y-32326402D01*
X6143000Y-29560952D01*
X6143000Y-32067048D01*
X5897226Y-32312822D01*
X5792302Y-32242714D01*
X5334000Y-32151552D01*
X4875698Y-32242714D01*
X4487169Y-32502321D01*
X4227562Y-32890850D01*
X4136400Y-33349152D01*
X4136400Y-33706848D01*
X4227562Y-34165150D01*
X4487169Y-34553679D01*
X4875698Y-34813286D01*
X5334000Y-34904448D01*
X5792302Y-34813286D01*
X6180831Y-34553679D01*
X6440438Y-34165150D01*
X6531600Y-33706848D01*
X6531600Y-33349152D01*
X6470744Y-33043208D01*
X6929976Y-32583976D01*
X7029908Y-32434417D01*
X7065000Y-32258000D01*
X7065000Y-5097000D01*
X7029908Y-4920583D01*
X6929976Y-4771024D01*
X5303878Y-3144926D01*
X5303956Y-3055053D01*
X5952383Y-3055053D01*
X6055218Y-3303932D01*
X6245466Y-3494513D01*
X6494166Y-3597782D01*
X6654370Y-3597922D01*
X8081424Y-5024976D01*
X8230983Y-5124908D01*
X8407400Y-5160000D01*
X10654848Y-5160000D01*
X11451600Y-5956752D01*
X11451600Y-12026448D01*
X7548024Y-15930024D01*
X7448092Y-16079583D01*
X7413000Y-16256000D01*
X7413000Y-32244517D01*
X7027169Y-32502321D01*
X6767562Y-32890850D01*
X6676400Y-33349152D01*
X6676400Y-33706848D01*
X6767562Y-34165150D01*
X7027169Y-34553679D01*
X7415698Y-34813286D01*
X7874000Y-34904448D01*
X8332302Y-34813286D01*
X8720831Y-34553679D01*
X8980438Y-34165150D01*
X9013013Y-34001384D01*
X9188696Y-34456600D01*
X9579006Y-34866419D01*
X10016699Y-35076572D01*
X10240000Y-34973344D01*
X10240000Y-33702000D01*
X10220000Y-33702000D01*
X10220000Y-33354000D01*
X10240000Y-33354000D01*
X10240000Y-32082656D01*
X10588000Y-32082656D01*
X10588000Y-33354000D01*
X10608000Y-33354000D01*
X10608000Y-33702000D01*
X10588000Y-33702000D01*
X10588000Y-34973344D01*
X10811301Y-35076572D01*
X11248994Y-34866419D01*
X11639304Y-34456600D01*
X11814987Y-34001384D01*
X11847562Y-34165150D01*
X12107169Y-34553679D01*
X12495698Y-34813286D01*
X12954000Y-34904448D01*
X13412302Y-34813286D01*
X13800831Y-34553679D01*
X14060438Y-34165150D01*
X14151600Y-33706848D01*
X14151600Y-33349152D01*
X14060438Y-32890850D01*
X13800831Y-32502321D01*
X13412302Y-32242714D01*
X12954000Y-32151552D01*
X12495698Y-32242714D01*
X12107169Y-32502321D01*
X11847562Y-32890850D01*
X11814987Y-33054616D01*
X11639304Y-32599400D01*
X11248994Y-32189581D01*
X10811301Y-31979428D01*
X10588000Y-32082656D01*
X10240000Y-32082656D01*
X10016699Y-31979428D01*
X9883635Y-32043317D01*
X10350952Y-31576000D01*
X14160048Y-31576000D01*
X14182122Y-31598074D01*
X14181983Y-31757053D01*
X14284818Y-32005932D01*
X14475066Y-32196513D01*
X14492580Y-32203785D01*
X14392949Y-32267896D01*
X14316687Y-32379510D01*
X14289857Y-32512000D01*
X14289857Y-34544000D01*
X14313146Y-34667773D01*
X14386296Y-34781451D01*
X14497910Y-34857713D01*
X14630400Y-34884543D01*
X16357600Y-34884543D01*
X16481373Y-34861254D01*
X16595051Y-34788104D01*
X16671313Y-34676490D01*
X16698143Y-34544000D01*
X16698143Y-32512000D01*
X16674854Y-32388227D01*
X16601704Y-32274549D01*
X16490090Y-32198287D01*
X16357600Y-32171457D01*
X15267702Y-32171457D01*
X15432513Y-32006934D01*
X15535782Y-31758234D01*
X15536017Y-31488947D01*
X15433182Y-31240068D01*
X15242934Y-31049487D01*
X14994234Y-30946218D01*
X14834031Y-30946078D01*
X14676976Y-30789024D01*
X14527417Y-30689092D01*
X14351000Y-30654000D01*
X10160000Y-30654000D01*
X9983583Y-30689092D01*
X9834024Y-30789024D01*
X9041926Y-31581122D01*
X8882947Y-31580983D01*
X8634068Y-31683818D01*
X8443487Y-31874066D01*
X8340218Y-32122766D01*
X8340109Y-32247930D01*
X8335000Y-32244517D01*
X8335000Y-16446952D01*
X12238576Y-12543376D01*
X12338508Y-12393817D01*
X12373600Y-12217400D01*
X12373600Y-5765800D01*
X12338508Y-5589383D01*
X12238576Y-5439824D01*
X11171776Y-4373024D01*
X11022217Y-4273092D01*
X10845800Y-4238000D01*
X8598352Y-4238000D01*
X7306278Y-2945926D01*
X7306417Y-2786947D01*
X7203582Y-2538068D01*
X7013334Y-2347487D01*
X6764634Y-2244218D01*
X6495347Y-2243983D01*
X6246468Y-2346818D01*
X6055887Y-2537066D01*
X5952618Y-2785766D01*
X5952383Y-3055053D01*
X5303956Y-3055053D01*
X5304017Y-2985947D01*
X5201182Y-2737068D01*
X5010934Y-2546487D01*
X4762234Y-2443218D01*
X4492947Y-2442983D01*
X4244068Y-2545818D01*
X4053487Y-2736066D01*
X3950218Y-2984766D01*
X3949983Y-3254053D01*
X4052818Y-3502932D01*
X4243066Y-3693513D01*
X4491766Y-3796782D01*
X4651970Y-3796922D01*
X6143000Y-5287952D01*
X6143000Y-6123050D01*
X5977234Y-6054218D01*
X5707947Y-6053983D01*
X5459068Y-6156818D01*
X5268487Y-6347066D01*
X5165218Y-6595766D01*
X5164983Y-6865053D01*
X5267818Y-7113932D01*
X5381000Y-7227312D01*
X5381000Y-29019048D01*
X2468024Y-31932024D01*
X2368092Y-32081583D01*
X2336055Y-32242643D01*
X2335698Y-32242714D01*
X1947169Y-32502321D01*
X1687562Y-32890850D01*
X1596400Y-33349152D01*
X343500Y-33349152D01*
X343500Y-31249053D01*
X465983Y-31249053D01*
X568818Y-31497932D01*
X759066Y-31688513D01*
X1007766Y-31791782D01*
X1277053Y-31792017D01*
X1525932Y-31689182D01*
X1716513Y-31498934D01*
X1819782Y-31250234D01*
X1820017Y-30980947D01*
X1717182Y-30732068D01*
X1604000Y-30618688D01*
X1604000Y-29609361D01*
X2694873Y-29609361D01*
X2806382Y-29879234D01*
X3012679Y-30085892D01*
X3282358Y-30197872D01*
X3574361Y-30198127D01*
X3844234Y-30086618D01*
X4050892Y-29880321D01*
X4162872Y-29610642D01*
X4163127Y-29318639D01*
X4051618Y-29048766D01*
X3845321Y-28842108D01*
X3575642Y-28730128D01*
X3283639Y-28729873D01*
X3013766Y-28841382D01*
X2807108Y-29047679D01*
X2695128Y-29317358D01*
X2694873Y-29609361D01*
X1604000Y-29609361D01*
X1604000Y-22415952D01*
X4674075Y-19345878D01*
X4833053Y-19346017D01*
X5081932Y-19243182D01*
X5272513Y-19052934D01*
X5375782Y-18804234D01*
X5376017Y-18534947D01*
X5273182Y-18286068D01*
X5082934Y-18095487D01*
X4834234Y-17992218D01*
X4564947Y-17991983D01*
X4316068Y-18094818D01*
X4125487Y-18285066D01*
X4022218Y-18533766D01*
X4022078Y-18693969D01*
X817024Y-21899024D01*
X717092Y-22048583D01*
X682000Y-22225000D01*
X682000Y-30618750D01*
X569487Y-30731066D01*
X466218Y-30979766D01*
X465983Y-31249053D01*
X343500Y-31249053D01*
X343500Y-2573834D01*
X516916Y-1702011D01*
X991599Y-991599D01*
X1702012Y-516916D01*
X2573834Y-343500D01*
X15587166Y-343500D01*
X16458989Y-516916D01*
M02*
