%TF.GenerationSoftware,KiCad,Pcbnew,4.0.7*%
%TF.CreationDate,2018-07-15T20:16:19+02:00*%
%TF.ProjectId,Modulo_bluetooth,4D6F64756C6F5F626C7565746F6F7468,rev?*%
%TF.FileFunction,Legend,Bot*%
%FSLAX46Y46*%
G04 Gerber Fmt 4.6, Leading zero omitted, Abs format (unit mm)*
G04 Created by KiCad (PCBNEW 4.0.7) date 07/15/18 20:16:19*
%MOMM*%
%LPD*%
G01*
G04 APERTURE LIST*
%ADD10C,0.100000*%
%ADD11C,0.375000*%
%ADD12C,0.200000*%
%ADD13C,0.010000*%
G04 APERTURE END LIST*
D10*
D11*
X12552714Y-25951571D02*
X12552714Y-24451571D01*
X12552714Y-25165857D02*
X11695571Y-25165857D01*
X11695571Y-25951571D02*
X11695571Y-24451571D01*
X10124142Y-25808714D02*
X10195571Y-25880143D01*
X10409857Y-25951571D01*
X10552714Y-25951571D01*
X10766999Y-25880143D01*
X10909857Y-25737286D01*
X10981285Y-25594429D01*
X11052714Y-25308714D01*
X11052714Y-25094429D01*
X10981285Y-24808714D01*
X10909857Y-24665857D01*
X10766999Y-24523000D01*
X10552714Y-24451571D01*
X10409857Y-24451571D01*
X10195571Y-24523000D01*
X10124142Y-24594429D01*
X9481285Y-25380143D02*
X8338428Y-25380143D01*
X7338428Y-24451571D02*
X7195571Y-24451571D01*
X7052714Y-24523000D01*
X6981285Y-24594429D01*
X6909856Y-24737286D01*
X6838428Y-25023000D01*
X6838428Y-25380143D01*
X6909856Y-25665857D01*
X6981285Y-25808714D01*
X7052714Y-25880143D01*
X7195571Y-25951571D01*
X7338428Y-25951571D01*
X7481285Y-25880143D01*
X7552714Y-25808714D01*
X7624142Y-25665857D01*
X7695571Y-25380143D01*
X7695571Y-25023000D01*
X7624142Y-24737286D01*
X7552714Y-24594429D01*
X7481285Y-24523000D01*
X7338428Y-24451571D01*
X5481285Y-24451571D02*
X6195571Y-24451571D01*
X6267000Y-25165857D01*
X6195571Y-25094429D01*
X6052714Y-25023000D01*
X5695571Y-25023000D01*
X5552714Y-25094429D01*
X5481285Y-25165857D01*
X5409857Y-25308714D01*
X5409857Y-25665857D01*
X5481285Y-25808714D01*
X5552714Y-25880143D01*
X5695571Y-25951571D01*
X6052714Y-25951571D01*
X6195571Y-25880143D01*
X6267000Y-25808714D01*
X16659856Y-21149571D02*
X16159856Y-22649571D01*
X15659856Y-21149571D01*
X14302713Y-22506714D02*
X14374142Y-22578143D01*
X14588428Y-22649571D01*
X14731285Y-22649571D01*
X14945570Y-22578143D01*
X15088428Y-22435286D01*
X15159856Y-22292429D01*
X15231285Y-22006714D01*
X15231285Y-21792429D01*
X15159856Y-21506714D01*
X15088428Y-21363857D01*
X14945570Y-21221000D01*
X14731285Y-21149571D01*
X14588428Y-21149571D01*
X14374142Y-21221000D01*
X14302713Y-21292429D01*
X12802713Y-22506714D02*
X12874142Y-22578143D01*
X13088428Y-22649571D01*
X13231285Y-22649571D01*
X13445570Y-22578143D01*
X13588428Y-22435286D01*
X13659856Y-22292429D01*
X13731285Y-22006714D01*
X13731285Y-21792429D01*
X13659856Y-21506714D01*
X13588428Y-21363857D01*
X13445570Y-21221000D01*
X13231285Y-21149571D01*
X13088428Y-21149571D01*
X12874142Y-21221000D01*
X12802713Y-21292429D01*
X12159856Y-22506714D02*
X12088428Y-22578143D01*
X12159856Y-22649571D01*
X12231285Y-22578143D01*
X12159856Y-22506714D01*
X12159856Y-22649571D01*
X12159856Y-21721000D02*
X12088428Y-21792429D01*
X12159856Y-21863857D01*
X12231285Y-21792429D01*
X12159856Y-21721000D01*
X12159856Y-21863857D01*
X10445570Y-21149571D02*
X9516999Y-21149571D01*
X10016999Y-21721000D01*
X9802713Y-21721000D01*
X9659856Y-21792429D01*
X9588427Y-21863857D01*
X9516999Y-22006714D01*
X9516999Y-22363857D01*
X9588427Y-22506714D01*
X9659856Y-22578143D01*
X9802713Y-22649571D01*
X10231285Y-22649571D01*
X10374142Y-22578143D01*
X10445570Y-22506714D01*
X8874142Y-22506714D02*
X8802714Y-22578143D01*
X8874142Y-22649571D01*
X8945571Y-22578143D01*
X8874142Y-22506714D01*
X8874142Y-22649571D01*
X7516999Y-21149571D02*
X7802713Y-21149571D01*
X7945570Y-21221000D01*
X8016999Y-21292429D01*
X8159856Y-21506714D01*
X8231285Y-21792429D01*
X8231285Y-22363857D01*
X8159856Y-22506714D01*
X8088428Y-22578143D01*
X7945570Y-22649571D01*
X7659856Y-22649571D01*
X7516999Y-22578143D01*
X7445570Y-22506714D01*
X7374142Y-22363857D01*
X7374142Y-22006714D01*
X7445570Y-21863857D01*
X7516999Y-21792429D01*
X7659856Y-21721000D01*
X7945570Y-21721000D01*
X8088428Y-21792429D01*
X8159856Y-21863857D01*
X8231285Y-22006714D01*
X6945571Y-21149571D02*
X6445571Y-22649571D01*
X5945571Y-21149571D01*
X5445571Y-22078143D02*
X4302714Y-22078143D01*
X2874142Y-21149571D02*
X3588428Y-21149571D01*
X3659857Y-21863857D01*
X3588428Y-21792429D01*
X3445571Y-21721000D01*
X3088428Y-21721000D01*
X2945571Y-21792429D01*
X2874142Y-21863857D01*
X2802714Y-22006714D01*
X2802714Y-22363857D01*
X2874142Y-22506714D01*
X2945571Y-22578143D01*
X3088428Y-22649571D01*
X3445571Y-22649571D01*
X3588428Y-22578143D01*
X3659857Y-22506714D01*
X2374143Y-21149571D02*
X1874143Y-22649571D01*
X1374143Y-21149571D01*
D12*
X15422571Y-30122905D02*
X15422571Y-30456239D01*
X15946381Y-30599096D02*
X15946381Y-30122905D01*
X14946381Y-30122905D01*
X14946381Y-30599096D01*
X15946381Y-31027667D02*
X14946381Y-31027667D01*
X15946381Y-31599096D01*
X14946381Y-31599096D01*
X12533381Y-29019667D02*
X13533381Y-29353000D01*
X12533381Y-29686334D01*
X13438143Y-30591096D02*
X13485762Y-30543477D01*
X13533381Y-30400620D01*
X13533381Y-30305382D01*
X13485762Y-30162524D01*
X13390524Y-30067286D01*
X13295286Y-30019667D01*
X13104810Y-29972048D01*
X12961952Y-29972048D01*
X12771476Y-30019667D01*
X12676238Y-30067286D01*
X12581000Y-30162524D01*
X12533381Y-30305382D01*
X12533381Y-30400620D01*
X12581000Y-30543477D01*
X12628619Y-30591096D01*
X13438143Y-31591096D02*
X13485762Y-31543477D01*
X13533381Y-31400620D01*
X13533381Y-31305382D01*
X13485762Y-31162524D01*
X13390524Y-31067286D01*
X13295286Y-31019667D01*
X13104810Y-30972048D01*
X12961952Y-30972048D01*
X12771476Y-31019667D01*
X12676238Y-31067286D01*
X12581000Y-31162524D01*
X12533381Y-31305382D01*
X12533381Y-31400620D01*
X12581000Y-31543477D01*
X12628619Y-31591096D01*
X9914000Y-29591096D02*
X9866381Y-29495858D01*
X9866381Y-29353001D01*
X9914000Y-29210143D01*
X10009238Y-29114905D01*
X10104476Y-29067286D01*
X10294952Y-29019667D01*
X10437810Y-29019667D01*
X10628286Y-29067286D01*
X10723524Y-29114905D01*
X10818762Y-29210143D01*
X10866381Y-29353001D01*
X10866381Y-29448239D01*
X10818762Y-29591096D01*
X10771143Y-29638715D01*
X10437810Y-29638715D01*
X10437810Y-29448239D01*
X10866381Y-30067286D02*
X9866381Y-30067286D01*
X10866381Y-30638715D01*
X9866381Y-30638715D01*
X10866381Y-31114905D02*
X9866381Y-31114905D01*
X9866381Y-31353000D01*
X9914000Y-31495858D01*
X10009238Y-31591096D01*
X10104476Y-31638715D01*
X10294952Y-31686334D01*
X10437810Y-31686334D01*
X10628286Y-31638715D01*
X10723524Y-31591096D01*
X10818762Y-31495858D01*
X10866381Y-31353000D01*
X10866381Y-31114905D01*
X7326381Y-30099095D02*
X7326381Y-30670524D01*
X8326381Y-30384809D02*
X7326381Y-30384809D01*
X7326381Y-30908619D02*
X8326381Y-31575286D01*
X7326381Y-31575286D02*
X8326381Y-30908619D01*
X5786381Y-30567334D02*
X5310190Y-30234000D01*
X5786381Y-29995905D02*
X4786381Y-29995905D01*
X4786381Y-30376858D01*
X4834000Y-30472096D01*
X4881619Y-30519715D01*
X4976857Y-30567334D01*
X5119714Y-30567334D01*
X5214952Y-30519715D01*
X5262571Y-30472096D01*
X5310190Y-30376858D01*
X5310190Y-29995905D01*
X4786381Y-30900667D02*
X5786381Y-31567334D01*
X4786381Y-31567334D02*
X5786381Y-30900667D01*
X2690762Y-27916428D02*
X2738381Y-28059285D01*
X2738381Y-28297381D01*
X2690762Y-28392619D01*
X2643143Y-28440238D01*
X2547905Y-28487857D01*
X2452667Y-28487857D01*
X2357429Y-28440238D01*
X2309810Y-28392619D01*
X2262190Y-28297381D01*
X2214571Y-28106904D01*
X2166952Y-28011666D01*
X2119333Y-27964047D01*
X2024095Y-27916428D01*
X1928857Y-27916428D01*
X1833619Y-27964047D01*
X1786000Y-28011666D01*
X1738381Y-28106904D01*
X1738381Y-28345000D01*
X1786000Y-28487857D01*
X1738381Y-28773571D02*
X1738381Y-29345000D01*
X2738381Y-29059285D02*
X1738381Y-29059285D01*
X2452667Y-29630714D02*
X2452667Y-30106905D01*
X2738381Y-29535476D02*
X1738381Y-29868809D01*
X2738381Y-30202143D01*
X1738381Y-30392619D02*
X1738381Y-30964048D01*
X2738381Y-30678333D02*
X1738381Y-30678333D01*
X2214571Y-31297381D02*
X2214571Y-31630715D01*
X2738381Y-31773572D02*
X2738381Y-31297381D01*
X1738381Y-31297381D01*
X1738381Y-31773572D01*
D13*
G36*
X9102897Y-5018071D02*
X9048102Y-5019505D01*
X9005182Y-5022612D01*
X8968531Y-5028010D01*
X8932543Y-5036319D01*
X8891611Y-5048158D01*
X8887248Y-5049493D01*
X8734926Y-5108139D01*
X8586343Y-5189271D01*
X8441736Y-5292551D01*
X8301342Y-5417641D01*
X8165401Y-5564203D01*
X8034148Y-5731900D01*
X7907821Y-5920393D01*
X7786658Y-6129345D01*
X7670897Y-6358417D01*
X7560775Y-6607271D01*
X7456530Y-6875571D01*
X7358398Y-7162977D01*
X7323826Y-7273637D01*
X7304368Y-7335661D01*
X7286588Y-7389036D01*
X7271750Y-7430229D01*
X7261113Y-7455706D01*
X7256403Y-7462391D01*
X7242656Y-7459347D01*
X7210167Y-7451959D01*
X7162693Y-7441086D01*
X7103989Y-7427589D01*
X7043158Y-7413561D01*
X6707825Y-7343421D01*
X6381598Y-7289807D01*
X6245523Y-7272061D01*
X6154060Y-7262960D01*
X6049190Y-7255640D01*
X5935417Y-7250160D01*
X5817244Y-7246580D01*
X5699176Y-7244957D01*
X5585718Y-7245352D01*
X5481372Y-7247823D01*
X5390644Y-7252429D01*
X5318037Y-7259229D01*
X5313218Y-7259860D01*
X5108556Y-7294089D01*
X4923428Y-7339341D01*
X4756864Y-7396020D01*
X4607893Y-7464529D01*
X4475545Y-7545273D01*
X4358849Y-7638654D01*
X4324808Y-7671118D01*
X4224657Y-7786164D01*
X4144820Y-7911447D01*
X4085156Y-8046497D01*
X4045523Y-8190840D01*
X4025779Y-8344005D01*
X4025780Y-8505521D01*
X4045386Y-8674915D01*
X4084454Y-8851716D01*
X4142842Y-9035451D01*
X4220407Y-9225649D01*
X4317008Y-9421838D01*
X4432502Y-9623546D01*
X4566747Y-9830301D01*
X4719601Y-10041632D01*
X4890922Y-10257066D01*
X5080568Y-10476132D01*
X5213249Y-10619880D01*
X5257601Y-10667261D01*
X5295799Y-10708960D01*
X5325239Y-10742061D01*
X5343317Y-10763649D01*
X5347854Y-10770591D01*
X5340179Y-10782725D01*
X5320602Y-10804428D01*
X5306182Y-10818713D01*
X5283043Y-10841833D01*
X5248522Y-10877609D01*
X5206807Y-10921646D01*
X5162088Y-10969547D01*
X5149453Y-10983211D01*
X5034395Y-11107922D01*
X5101648Y-11151939D01*
X5142191Y-11180601D01*
X5179939Y-11210834D01*
X5203051Y-11232412D01*
X5237203Y-11268868D01*
X5388885Y-11109914D01*
X5540567Y-10950961D01*
X5672234Y-11072992D01*
X5963045Y-11331977D01*
X6275443Y-11589825D01*
X6610159Y-11847140D01*
X6629668Y-11861612D01*
X6710361Y-11921325D01*
X6774472Y-11968857D01*
X6823899Y-12005872D01*
X6860538Y-12034034D01*
X6886289Y-12055007D01*
X6903047Y-12070457D01*
X6912710Y-12082047D01*
X6917176Y-12091441D01*
X6918342Y-12100304D01*
X6918106Y-12110301D01*
X6918043Y-12114561D01*
X6919870Y-12156539D01*
X6925064Y-12218209D01*
X6933209Y-12296479D01*
X6943891Y-12388261D01*
X6956695Y-12490467D01*
X6971208Y-12600006D01*
X6987015Y-12713791D01*
X7003701Y-12828731D01*
X7020851Y-12941738D01*
X7038052Y-13049723D01*
X7054889Y-13149597D01*
X7063209Y-13196455D01*
X7076646Y-13268546D01*
X7092185Y-13348517D01*
X7109005Y-13432467D01*
X7126285Y-13516497D01*
X7143205Y-13596705D01*
X7158942Y-13669192D01*
X7172677Y-13730056D01*
X7183588Y-13775398D01*
X7189944Y-13798552D01*
X7189136Y-13807228D01*
X7178765Y-13815508D01*
X7155679Y-13824592D01*
X7116730Y-13835678D01*
X7058767Y-13849965D01*
X7048334Y-13852435D01*
X6804658Y-13906642D01*
X6577324Y-13950111D01*
X6362485Y-13983308D01*
X6156292Y-14006699D01*
X5954896Y-14020749D01*
X5754449Y-14025922D01*
X5622712Y-14024742D01*
X5488432Y-14020317D01*
X5372105Y-14012976D01*
X5268706Y-14002068D01*
X5173208Y-13986937D01*
X5080585Y-13966932D01*
X4989120Y-13942363D01*
X4838305Y-13889337D01*
X4703881Y-13823129D01*
X4586703Y-13744494D01*
X4487626Y-13654186D01*
X4407505Y-13552961D01*
X4347196Y-13441573D01*
X4314029Y-13346546D01*
X4293947Y-13237967D01*
X4287887Y-13115103D01*
X4295688Y-12981892D01*
X4317191Y-12842271D01*
X4338164Y-12751009D01*
X4350275Y-12703554D01*
X4359793Y-12664665D01*
X4365443Y-12639634D01*
X4366447Y-12633470D01*
X4356719Y-12624495D01*
X4332041Y-12611289D01*
X4315476Y-12604013D01*
X4276516Y-12585952D01*
X4230537Y-12561796D01*
X4201470Y-12545088D01*
X4138392Y-12507104D01*
X4102593Y-12623757D01*
X4073164Y-12725239D01*
X4052072Y-12813200D01*
X4038146Y-12895163D01*
X4030215Y-12978648D01*
X4027110Y-13071179D01*
X4026950Y-13109864D01*
X4028592Y-13202549D01*
X4033952Y-13279423D01*
X4044288Y-13347633D01*
X4060857Y-13414328D01*
X4084917Y-13486656D01*
X4100565Y-13528240D01*
X4162494Y-13656735D01*
X4244602Y-13775474D01*
X4345791Y-13883665D01*
X4464959Y-13980515D01*
X4601007Y-14065233D01*
X4752835Y-14137027D01*
X4919342Y-14195103D01*
X5082309Y-14235285D01*
X5161285Y-14250632D01*
X5231935Y-14262707D01*
X5298813Y-14271877D01*
X5366472Y-14278511D01*
X5439463Y-14282976D01*
X5522340Y-14285639D01*
X5619655Y-14286870D01*
X5723081Y-14287057D01*
X5908499Y-14284098D01*
X6086210Y-14275343D01*
X6261116Y-14260190D01*
X6438115Y-14238036D01*
X6622108Y-14208279D01*
X6817995Y-14170318D01*
X7004627Y-14129527D01*
X7072256Y-14114108D01*
X7133316Y-14100228D01*
X7183750Y-14088805D01*
X7219501Y-14080758D01*
X7236013Y-14077110D01*
X7248185Y-14077181D01*
X7258132Y-14085979D01*
X7268081Y-14107507D01*
X7280256Y-14145767D01*
X7286706Y-14168274D01*
X7361530Y-14415534D01*
X7444811Y-14657951D01*
X7535366Y-14892921D01*
X7632015Y-15117841D01*
X7733576Y-15330107D01*
X7838870Y-15527115D01*
X7946715Y-15706263D01*
X8055930Y-15864946D01*
X8056864Y-15866203D01*
X8190555Y-16032093D01*
X8328619Y-16175848D01*
X8470871Y-16297327D01*
X8617130Y-16396389D01*
X8767211Y-16472891D01*
X8903854Y-16521890D01*
X8966537Y-16535483D01*
X9043727Y-16545345D01*
X9128401Y-16551212D01*
X9213535Y-16552823D01*
X9292103Y-16549918D01*
X9357083Y-16542234D01*
X9371445Y-16539293D01*
X9525072Y-16493059D01*
X9673516Y-16426268D01*
X9817261Y-16338533D01*
X9956788Y-16229465D01*
X10092577Y-16098676D01*
X10225111Y-15945779D01*
X10354871Y-15770385D01*
X10389498Y-15719113D01*
X10494402Y-15549278D01*
X10597640Y-15359456D01*
X10697861Y-15152754D01*
X10793715Y-14932272D01*
X10883850Y-14701116D01*
X10966916Y-14462389D01*
X11040185Y-14224000D01*
X11055734Y-14171428D01*
X11069736Y-14126949D01*
X11080638Y-14095312D01*
X11086819Y-14081343D01*
X11100431Y-14080464D01*
X11132336Y-14084572D01*
X11178450Y-14092961D01*
X11234686Y-14104927D01*
X11266702Y-14112360D01*
X11432238Y-14149898D01*
X11599311Y-14184104D01*
X11759252Y-14213265D01*
X11859491Y-14229337D01*
X11913192Y-14237426D01*
X11961234Y-14244741D01*
X11997201Y-14250302D01*
X12011451Y-14252575D01*
X12042185Y-14257653D01*
X12038588Y-14003288D01*
X10831945Y-14003288D01*
X10828483Y-14020169D01*
X10818851Y-14055373D01*
X10804179Y-14105313D01*
X10785598Y-14166405D01*
X10764238Y-14235064D01*
X10741230Y-14307705D01*
X10717704Y-14380744D01*
X10694791Y-14450595D01*
X10673621Y-14513674D01*
X10655325Y-14566396D01*
X10647775Y-14587298D01*
X10547874Y-14842914D01*
X10443478Y-15079264D01*
X10334879Y-15295953D01*
X10222369Y-15492586D01*
X10106241Y-15668770D01*
X9986787Y-15824110D01*
X9864299Y-15958211D01*
X9739069Y-16070679D01*
X9611390Y-16161119D01*
X9481554Y-16229138D01*
X9411184Y-16256226D01*
X9288061Y-16286983D01*
X9164810Y-16295699D01*
X9038207Y-16282497D01*
X8990445Y-16272222D01*
X8868188Y-16231199D01*
X8745379Y-16167725D01*
X8622723Y-16082407D01*
X8500922Y-15975852D01*
X8380678Y-15848666D01*
X8262694Y-15701455D01*
X8162390Y-15557500D01*
X8114243Y-15479614D01*
X8060347Y-15384928D01*
X8003118Y-15278242D01*
X7944971Y-15164354D01*
X7888321Y-15048066D01*
X7835582Y-14934177D01*
X7789169Y-14827485D01*
X7764465Y-14766637D01*
X7736457Y-14693303D01*
X7706895Y-14612449D01*
X7676671Y-14526857D01*
X7646677Y-14439310D01*
X7617806Y-14352594D01*
X7590950Y-14269490D01*
X7567001Y-14192782D01*
X7546851Y-14125255D01*
X7531392Y-14069691D01*
X7521517Y-14028874D01*
X7518119Y-14005587D01*
X7519156Y-14001365D01*
X7530937Y-13996989D01*
X7562035Y-13986282D01*
X7609832Y-13970123D01*
X7671709Y-13949389D01*
X7745046Y-13924960D01*
X7827226Y-13897715D01*
X7882081Y-13879591D01*
X8110349Y-13801484D01*
X8343631Y-13716402D01*
X8574849Y-13627075D01*
X8796924Y-13536231D01*
X8988506Y-13453018D01*
X9171294Y-13371025D01*
X9340642Y-13446442D01*
X9469642Y-13502673D01*
X9607863Y-13560724D01*
X9752308Y-13619478D01*
X9899980Y-13677817D01*
X10047881Y-13734625D01*
X10193014Y-13788785D01*
X10332382Y-13839181D01*
X10462986Y-13884695D01*
X10581831Y-13924210D01*
X10685918Y-13956611D01*
X10772250Y-13980779D01*
X10780046Y-13982764D01*
X10810721Y-13991940D01*
X10829348Y-14000310D01*
X10831945Y-14003288D01*
X12038588Y-14003288D01*
X12038445Y-13993199D01*
X12003809Y-13987345D01*
X11974529Y-13982653D01*
X11931945Y-13976125D01*
X11888354Y-13969629D01*
X11794533Y-13954539D01*
X11685719Y-13934855D01*
X11569207Y-13912017D01*
X11452294Y-13887463D01*
X11342274Y-13862633D01*
X11324320Y-13858378D01*
X11152832Y-13817406D01*
X11159242Y-13786908D01*
X11163657Y-13766259D01*
X11172080Y-13727176D01*
X11183618Y-13673791D01*
X11197378Y-13610236D01*
X11212467Y-13540642D01*
X11212538Y-13540318D01*
X11251608Y-13350273D01*
X11289684Y-13145871D01*
X11325201Y-12935841D01*
X11350821Y-12768946D01*
X11357163Y-12723343D01*
X11365003Y-12663532D01*
X11373913Y-12593136D01*
X11383463Y-12515779D01*
X11393225Y-12435082D01*
X11402770Y-12354670D01*
X11411669Y-12278165D01*
X11413597Y-12261161D01*
X11151335Y-12261161D01*
X11136045Y-12391103D01*
X11104625Y-12636553D01*
X11068136Y-12883679D01*
X11027625Y-13126192D01*
X10984139Y-13357807D01*
X10941664Y-13559165D01*
X10927983Y-13620501D01*
X10916282Y-13673479D01*
X10907409Y-13714204D01*
X10902217Y-13738783D01*
X10901218Y-13744241D01*
X10890635Y-13743470D01*
X10860192Y-13735745D01*
X10811851Y-13721665D01*
X10747572Y-13701829D01*
X10669316Y-13676837D01*
X10579044Y-13647290D01*
X10520816Y-13627920D01*
X10247866Y-13532376D01*
X9969809Y-13427008D01*
X9705065Y-13319049D01*
X9495005Y-13230122D01*
X8846811Y-13230122D01*
X8845406Y-13231265D01*
X8825586Y-13240702D01*
X8787750Y-13257254D01*
X8735338Y-13279509D01*
X8671792Y-13306053D01*
X8600554Y-13335474D01*
X8525064Y-13366358D01*
X8448765Y-13397293D01*
X8375098Y-13426866D01*
X8307504Y-13453664D01*
X8249425Y-13476274D01*
X8237729Y-13480751D01*
X8175756Y-13503850D01*
X8103187Y-13530032D01*
X8023061Y-13558284D01*
X7938420Y-13587590D01*
X7852302Y-13616935D01*
X7767749Y-13645305D01*
X7687800Y-13671685D01*
X7615495Y-13695060D01*
X7553874Y-13714416D01*
X7505978Y-13728736D01*
X7474846Y-13737008D01*
X7465089Y-13738659D01*
X7449018Y-13734680D01*
X7438209Y-13718462D01*
X7429106Y-13684642D01*
X7429023Y-13684250D01*
X7392031Y-13507661D01*
X7359900Y-13349636D01*
X7331954Y-13206324D01*
X7307512Y-13073874D01*
X7285898Y-12948434D01*
X7266432Y-12826151D01*
X7248438Y-12703175D01*
X7231237Y-12575653D01*
X7224276Y-12521316D01*
X7215387Y-12450302D01*
X7207592Y-12386713D01*
X7201331Y-12334252D01*
X7197044Y-12296625D01*
X7195173Y-12277537D01*
X7195127Y-12276364D01*
X7204164Y-12277315D01*
X7229094Y-12289334D01*
X7266643Y-12310610D01*
X7313538Y-12339333D01*
X7342331Y-12357782D01*
X7573976Y-12504936D01*
X7816835Y-12652693D01*
X8064931Y-12797614D01*
X8312285Y-12936257D01*
X8552921Y-13065182D01*
X8718445Y-13149948D01*
X8779773Y-13181598D01*
X8820885Y-13205046D01*
X8842867Y-13220988D01*
X8846811Y-13230122D01*
X9495005Y-13230122D01*
X9483350Y-13225188D01*
X9716034Y-13104026D01*
X10087685Y-12904843D01*
X10444455Y-12701736D01*
X10794537Y-12489904D01*
X11121527Y-12280712D01*
X11151335Y-12261161D01*
X11413597Y-12261161D01*
X11419492Y-12209190D01*
X11425811Y-12151369D01*
X11430196Y-12108323D01*
X11432219Y-12083677D01*
X11432305Y-12080862D01*
X11441244Y-12070199D01*
X11466039Y-12048672D01*
X11503661Y-12018704D01*
X11551083Y-11982718D01*
X11596831Y-11949211D01*
X11810275Y-11791296D01*
X12024579Y-11625124D01*
X12233770Y-11455505D01*
X12431873Y-11287247D01*
X12555991Y-11177157D01*
X12609201Y-11129142D01*
X12660686Y-11082874D01*
X12706221Y-11042136D01*
X12741582Y-11010712D01*
X12756919Y-10997238D01*
X12809755Y-10951248D01*
X12912481Y-11060738D01*
X13120152Y-11290067D01*
X13307647Y-11513796D01*
X13474772Y-11731616D01*
X13621337Y-11943219D01*
X13747150Y-12148299D01*
X13852017Y-12346545D01*
X13935747Y-12537651D01*
X13998149Y-12721309D01*
X14030874Y-12854158D01*
X14049161Y-12976323D01*
X14055273Y-13099380D01*
X14049570Y-13218644D01*
X14032413Y-13329428D01*
X14004165Y-13427045D01*
X13982986Y-13475498D01*
X13914880Y-13585661D01*
X13829751Y-13683409D01*
X13731281Y-13764577D01*
X13721720Y-13771039D01*
X13690057Y-13793423D01*
X13667964Y-13811640D01*
X13660581Y-13820981D01*
X13663301Y-13836434D01*
X13670346Y-13866875D01*
X13677900Y-13896817D01*
X13687936Y-13946726D01*
X13694187Y-13999710D01*
X13695218Y-14024381D01*
X13696727Y-14058397D01*
X13700604Y-14080569D01*
X13704060Y-14085455D01*
X13721610Y-14079167D01*
X13753222Y-14062257D01*
X13794261Y-14037654D01*
X13840093Y-14008286D01*
X13886083Y-13977083D01*
X13927598Y-13946975D01*
X13946521Y-13932205D01*
X14039384Y-13844627D01*
X14124194Y-13740371D01*
X14196751Y-13625526D01*
X14252858Y-13506180D01*
X14266739Y-13467773D01*
X14294857Y-13358651D01*
X14312338Y-13235353D01*
X14318827Y-13104381D01*
X14313965Y-12972236D01*
X14300123Y-12860785D01*
X14256853Y-12668321D01*
X14191565Y-12469509D01*
X14104242Y-12264323D01*
X13994869Y-12052736D01*
X13863430Y-11834723D01*
X13709911Y-11610258D01*
X13534296Y-11379316D01*
X13336569Y-11141870D01*
X13134420Y-10916903D01*
X12996659Y-10768609D01*
X12620296Y-10768609D01*
X12473689Y-10901687D01*
X12368264Y-10996577D01*
X12271025Y-11082196D01*
X12175423Y-11164152D01*
X12074910Y-11248052D01*
X11962938Y-11339501D01*
X11951854Y-11348472D01*
X11885079Y-11402009D01*
X11815663Y-11456823D01*
X11746096Y-11511030D01*
X11678870Y-11562744D01*
X11616476Y-11610079D01*
X11561405Y-11651150D01*
X11516148Y-11684073D01*
X11483197Y-11706960D01*
X11465041Y-11717928D01*
X11462807Y-11718613D01*
X11457464Y-11709249D01*
X11459174Y-11692659D01*
X11461150Y-11675001D01*
X11463776Y-11637285D01*
X11466893Y-11582531D01*
X11470346Y-11513760D01*
X11473980Y-11433991D01*
X11477637Y-11346243D01*
X11479323Y-11303000D01*
X11483374Y-11168603D01*
X11485962Y-11020063D01*
X11487129Y-10862080D01*
X11487070Y-10816341D01*
X11219007Y-10816341D01*
X11218750Y-10969790D01*
X11217628Y-11119797D01*
X11215643Y-11264026D01*
X11212793Y-11400143D01*
X11209080Y-11525815D01*
X11204503Y-11638706D01*
X11199061Y-11736484D01*
X11192756Y-11816812D01*
X11185587Y-11877358D01*
X11182397Y-11895926D01*
X11177861Y-11907849D01*
X11167325Y-11921713D01*
X11148638Y-11939179D01*
X11119647Y-11961906D01*
X11078200Y-11991554D01*
X11022145Y-12029782D01*
X10949330Y-12078250D01*
X10926010Y-12093642D01*
X10695561Y-12242023D01*
X10451978Y-12392322D01*
X10204048Y-12539201D01*
X10012218Y-12648565D01*
X9964316Y-12674943D01*
X9904159Y-12707389D01*
X9834354Y-12744558D01*
X9757509Y-12785102D01*
X9676233Y-12827673D01*
X9593135Y-12870924D01*
X9510823Y-12913508D01*
X9431904Y-12954077D01*
X9358989Y-12991285D01*
X9294684Y-13023784D01*
X9241598Y-13050227D01*
X9202340Y-13069267D01*
X9179518Y-13079556D01*
X9175001Y-13081000D01*
X9163435Y-13076005D01*
X9133854Y-13061870D01*
X9088852Y-13039873D01*
X9031021Y-13011292D01*
X8962955Y-12977405D01*
X8887246Y-12939488D01*
X8860103Y-12925845D01*
X8556461Y-12769212D01*
X8268616Y-12612458D01*
X7989606Y-12451563D01*
X7712467Y-12282512D01*
X7430237Y-12101286D01*
X7424612Y-12097589D01*
X7163416Y-11925809D01*
X7156239Y-11836654D01*
X7145826Y-11693571D01*
X7145032Y-11679637D01*
X6881533Y-11679637D01*
X6881383Y-11707576D01*
X6878616Y-11718628D01*
X6878501Y-11718637D01*
X6867112Y-11712040D01*
X6840723Y-11693855D01*
X6802702Y-11666485D01*
X6756417Y-11632338D01*
X6729951Y-11612514D01*
X6589926Y-11505241D01*
X6445905Y-11391462D01*
X6301907Y-11274520D01*
X6161950Y-11157757D01*
X6030055Y-11044516D01*
X5910239Y-10938139D01*
X5828149Y-10862453D01*
X5725399Y-10765771D01*
X5891649Y-10615310D01*
X6042735Y-10480264D01*
X6184692Y-10357185D01*
X6323817Y-10240860D01*
X6466408Y-10126074D01*
X6618763Y-10007614D01*
X6703254Y-9943347D01*
X6757549Y-9902757D01*
X6805340Y-9867874D01*
X6843687Y-9840774D01*
X6869650Y-9823534D01*
X6880290Y-9818230D01*
X6880326Y-9818260D01*
X6881149Y-9830678D01*
X6880856Y-9863000D01*
X6879542Y-9912072D01*
X6877307Y-9974739D01*
X6874247Y-10047845D01*
X6871250Y-10112153D01*
X6868762Y-10178105D01*
X6866761Y-10261526D01*
X6865233Y-10359556D01*
X6864163Y-10469335D01*
X6863536Y-10588000D01*
X6863338Y-10712692D01*
X6863555Y-10840549D01*
X6864172Y-10968712D01*
X6865174Y-11094318D01*
X6866546Y-11214508D01*
X6868275Y-11326420D01*
X6870346Y-11427194D01*
X6872743Y-11513968D01*
X6875454Y-11583882D01*
X6878462Y-11634076D01*
X6879025Y-11640705D01*
X6881533Y-11679637D01*
X7145032Y-11679637D01*
X7137494Y-11547365D01*
X7131124Y-11394312D01*
X7126596Y-11230688D01*
X7123791Y-11052769D01*
X7122590Y-10856829D01*
X7122527Y-10783455D01*
X7122870Y-10629039D01*
X7123896Y-10492542D01*
X7125770Y-10368798D01*
X7128656Y-10252641D01*
X7132716Y-10138906D01*
X7138116Y-10022425D01*
X7145019Y-9898033D01*
X7153589Y-9760565D01*
X7156306Y-9719072D01*
X7163697Y-9607188D01*
X7390117Y-9458308D01*
X7738901Y-9235243D01*
X8084930Y-9026959D01*
X8435896Y-8829023D01*
X8799494Y-8637005D01*
X8934725Y-8568593D01*
X9167642Y-8452043D01*
X9304180Y-8516866D01*
X9504278Y-8615106D01*
X9717976Y-8726027D01*
X9941285Y-8847353D01*
X10170215Y-8976806D01*
X10400778Y-9112107D01*
X10628982Y-9250979D01*
X10850840Y-9391144D01*
X10960389Y-9462479D01*
X11175424Y-9604022D01*
X11182430Y-9665534D01*
X11189951Y-9744924D01*
X11196609Y-9841881D01*
X11202401Y-9954069D01*
X11207329Y-10079154D01*
X11211393Y-10214803D01*
X11214593Y-10358680D01*
X11216929Y-10508452D01*
X11218400Y-10661784D01*
X11219007Y-10816341D01*
X11487070Y-10816341D01*
X11486919Y-10699349D01*
X11485375Y-10536568D01*
X11482539Y-10378433D01*
X11478455Y-10229642D01*
X11473166Y-10094892D01*
X11467266Y-9987258D01*
X11463752Y-9927715D01*
X11461403Y-9876848D01*
X11460362Y-9838866D01*
X11460774Y-9817981D01*
X11461395Y-9815338D01*
X11472723Y-9819672D01*
X11499886Y-9837139D01*
X11540888Y-9866198D01*
X11593735Y-9905310D01*
X11656430Y-9952936D01*
X11726978Y-10007537D01*
X11803383Y-10067572D01*
X11883650Y-10131504D01*
X11965783Y-10197792D01*
X12047786Y-10264898D01*
X12096172Y-10304977D01*
X12184602Y-10378931D01*
X12260109Y-10442970D01*
X12327819Y-10501583D01*
X12392857Y-10559262D01*
X12460346Y-10620497D01*
X12535411Y-10689778D01*
X12537189Y-10691428D01*
X12620296Y-10768609D01*
X12996659Y-10768609D01*
X12994317Y-10766088D01*
X13109295Y-10644885D01*
X13324451Y-10409117D01*
X13519533Y-10176678D01*
X13694268Y-9948005D01*
X13848383Y-9723535D01*
X13981604Y-9503704D01*
X14093660Y-9288947D01*
X14184276Y-9079701D01*
X14253180Y-8876402D01*
X14280017Y-8774546D01*
X14296681Y-8686869D01*
X14308775Y-8587543D01*
X14315935Y-8483730D01*
X14317645Y-8390762D01*
X14054608Y-8390762D01*
X14052939Y-8493219D01*
X14044163Y-8595414D01*
X14030818Y-8678344D01*
X13986214Y-8850491D01*
X13921133Y-9030943D01*
X13836194Y-9218608D01*
X13732012Y-9412397D01*
X13609204Y-9611218D01*
X13468388Y-9813979D01*
X13310179Y-10019589D01*
X13193384Y-10160000D01*
X13138654Y-10223108D01*
X13081689Y-10287461D01*
X13024682Y-10350710D01*
X12969827Y-10410510D01*
X12919318Y-10464513D01*
X12875350Y-10510371D01*
X12840116Y-10545737D01*
X12815810Y-10568265D01*
X12804883Y-10575637D01*
X12792560Y-10568147D01*
X12767424Y-10547812D01*
X12733267Y-10517835D01*
X12698076Y-10485383D01*
X12550690Y-10350411D01*
X12387347Y-10207768D01*
X12212307Y-10060939D01*
X12029828Y-9913409D01*
X11844173Y-9768661D01*
X11659600Y-9630182D01*
X11594791Y-9582933D01*
X11534850Y-9539143D01*
X11491288Y-9505965D01*
X11461440Y-9480952D01*
X11442643Y-9461656D01*
X11432231Y-9445630D01*
X11427539Y-9430426D01*
X11427324Y-9429124D01*
X11424065Y-9404676D01*
X11419028Y-9362425D01*
X11412806Y-9307536D01*
X11406473Y-9249568D01*
X11143672Y-9249568D01*
X11139122Y-9254447D01*
X11124155Y-9250392D01*
X11096797Y-9236358D01*
X11055076Y-9211302D01*
X10997019Y-9174180D01*
X10979150Y-9162517D01*
X10916660Y-9122181D01*
X10840619Y-9073996D01*
X10757330Y-9021902D01*
X10673094Y-8969839D01*
X10594214Y-8921749D01*
X10589540Y-8918925D01*
X10432578Y-8825658D01*
X10268555Y-8730937D01*
X10103022Y-8637854D01*
X9941528Y-8549502D01*
X9789624Y-8468972D01*
X9691873Y-8418862D01*
X9630248Y-8387447D01*
X9576373Y-8359304D01*
X9533404Y-8336139D01*
X9504499Y-8319657D01*
X9492814Y-8311563D01*
X9492714Y-8311286D01*
X9494780Y-8309879D01*
X8859574Y-8309879D01*
X8642146Y-8422669D01*
X8386506Y-8558296D01*
X8131475Y-8699433D01*
X7882130Y-8843140D01*
X7643548Y-8986480D01*
X7420805Y-9126511D01*
X7374297Y-9156670D01*
X7318736Y-9192711D01*
X7270319Y-9223727D01*
X7232151Y-9247759D01*
X7207340Y-9262850D01*
X7198986Y-9267162D01*
X7199647Y-9255544D01*
X7202869Y-9224533D01*
X7208245Y-9177636D01*
X7215374Y-9118359D01*
X7223850Y-9050210D01*
X7225157Y-9039886D01*
X7257479Y-8801758D01*
X7292807Y-8575566D01*
X7332929Y-8350190D01*
X7352046Y-8251039D01*
X7368593Y-8168604D01*
X7385542Y-8087012D01*
X7402167Y-8009480D01*
X7417745Y-7939227D01*
X7431553Y-7879470D01*
X7442866Y-7833428D01*
X7450959Y-7804317D01*
X7454560Y-7795446D01*
X7467004Y-7796880D01*
X7497891Y-7804625D01*
X7543782Y-7817619D01*
X7601239Y-7834800D01*
X7666822Y-7855105D01*
X7737093Y-7877471D01*
X7808614Y-7900835D01*
X7877944Y-7924136D01*
X7934036Y-7943610D01*
X8085974Y-7998389D01*
X8240253Y-8055959D01*
X8392191Y-8114484D01*
X8537106Y-8172123D01*
X8670317Y-8227039D01*
X8787141Y-8277394D01*
X8809555Y-8287397D01*
X8859574Y-8309879D01*
X9494780Y-8309879D01*
X9503004Y-8304281D01*
X9532082Y-8290061D01*
X9577207Y-8269759D01*
X9635640Y-8244510D01*
X9704640Y-8215449D01*
X9781467Y-8183710D01*
X9863382Y-8150428D01*
X9947642Y-8116737D01*
X10031510Y-8083772D01*
X10112243Y-8052668D01*
X10168846Y-8031334D01*
X10262051Y-7997156D01*
X10357312Y-7963234D01*
X10452072Y-7930390D01*
X10543779Y-7899442D01*
X10629877Y-7871212D01*
X10707812Y-7846518D01*
X10775028Y-7826181D01*
X10828972Y-7811021D01*
X10867089Y-7801857D01*
X10886823Y-7799511D01*
X10888778Y-7800259D01*
X10893785Y-7814143D01*
X10902625Y-7847168D01*
X10914519Y-7895853D01*
X10928685Y-7956713D01*
X10944343Y-8026265D01*
X10960711Y-8101027D01*
X10977011Y-8177514D01*
X10992460Y-8252245D01*
X11006278Y-8321735D01*
X11010094Y-8341591D01*
X11022980Y-8412120D01*
X11037134Y-8494478D01*
X11052081Y-8585420D01*
X11067342Y-8681699D01*
X11082440Y-8780070D01*
X11096897Y-8877286D01*
X11110237Y-8970102D01*
X11121981Y-9055272D01*
X11131651Y-9129550D01*
X11138771Y-9189689D01*
X11142863Y-9232445D01*
X11143672Y-9249568D01*
X11406473Y-9249568D01*
X11405992Y-9245175D01*
X11403207Y-9219046D01*
X11372261Y-8959325D01*
X11333617Y-8689278D01*
X11288719Y-8417789D01*
X11239013Y-8153745D01*
X11199539Y-7966364D01*
X11184602Y-7898411D01*
X11171454Y-7837626D01*
X11160905Y-7787837D01*
X11153766Y-7752868D01*
X11150847Y-7736546D01*
X11150839Y-7736459D01*
X11157536Y-7727215D01*
X11179856Y-7716215D01*
X11218970Y-7703144D01*
X11276051Y-7687686D01*
X11352271Y-7669529D01*
X11448803Y-7648357D01*
X11566818Y-7623855D01*
X11582400Y-7620693D01*
X11861969Y-7570090D01*
X12129768Y-7533800D01*
X12384834Y-7511836D01*
X12626209Y-7504216D01*
X12852932Y-7510953D01*
X13064043Y-7532065D01*
X13258582Y-7567565D01*
X13354627Y-7592215D01*
X13503839Y-7644012D01*
X13637325Y-7709409D01*
X13754122Y-7787527D01*
X13853262Y-7877483D01*
X13933781Y-7978396D01*
X13994714Y-8089385D01*
X14035094Y-8209569D01*
X14036277Y-8214591D01*
X14049083Y-8295426D01*
X14054608Y-8390762D01*
X14317645Y-8390762D01*
X14317796Y-8382592D01*
X14313994Y-8291289D01*
X14307445Y-8235038D01*
X14284397Y-8131910D01*
X14249158Y-8024132D01*
X14205517Y-7922351D01*
X14177155Y-7869068D01*
X14117083Y-7782169D01*
X14039102Y-7694331D01*
X13947829Y-7609679D01*
X13847885Y-7532338D01*
X13743887Y-7466432D01*
X13700382Y-7443290D01*
X13614107Y-7405425D01*
X13509907Y-7368427D01*
X13392941Y-7333719D01*
X13268369Y-7302724D01*
X13141350Y-7276867D01*
X13037127Y-7260240D01*
X12983683Y-7254966D01*
X12911590Y-7250871D01*
X12825262Y-7247954D01*
X12729109Y-7246215D01*
X12627544Y-7245654D01*
X12524980Y-7246269D01*
X12425829Y-7248061D01*
X12334503Y-7251029D01*
X12255414Y-7255172D01*
X12194309Y-7260341D01*
X12077626Y-7274607D01*
X11947189Y-7292881D01*
X11811438Y-7313837D01*
X11678816Y-7336153D01*
X11557764Y-7358505D01*
X11518973Y-7366238D01*
X11445468Y-7381579D01*
X11369688Y-7397989D01*
X11295674Y-7414531D01*
X11227469Y-7430271D01*
X11169115Y-7444273D01*
X11124653Y-7455602D01*
X11098127Y-7463323D01*
X11095862Y-7464144D01*
X11085306Y-7462839D01*
X11074845Y-7448097D01*
X11062699Y-7416565D01*
X11051731Y-7380962D01*
X11036130Y-7329076D01*
X11016880Y-7267228D01*
X10995205Y-7199124D01*
X10972331Y-7128473D01*
X10949483Y-7058983D01*
X10927887Y-6994362D01*
X10908766Y-6938318D01*
X10893348Y-6894559D01*
X10882856Y-6866794D01*
X10879335Y-6859195D01*
X10870264Y-6851963D01*
X10853721Y-6852360D01*
X10824792Y-6861198D01*
X10793061Y-6873432D01*
X10746927Y-6890285D01*
X10701997Y-6904063D01*
X10671423Y-6911116D01*
X10625624Y-6918439D01*
X10675227Y-7058515D01*
X10695097Y-7116153D01*
X10716534Y-7180927D01*
X10738451Y-7249246D01*
X10759758Y-7317516D01*
X10779368Y-7382147D01*
X10796192Y-7439546D01*
X10809142Y-7486121D01*
X10817130Y-7518280D01*
X10819066Y-7532431D01*
X10818904Y-7532701D01*
X10807322Y-7537178D01*
X10776412Y-7548052D01*
X10728760Y-7564439D01*
X10666953Y-7585460D01*
X10593577Y-7610234D01*
X10511218Y-7637880D01*
X10450945Y-7658022D01*
X10151205Y-7762356D01*
X9852243Y-7874824D01*
X9562202Y-7992276D01*
X9358255Y-8080481D01*
X9171883Y-8163502D01*
X9000346Y-8086645D01*
X8793022Y-7996582D01*
X8573145Y-7906258D01*
X8347375Y-7818212D01*
X8122373Y-7734986D01*
X8101871Y-7727837D01*
X7195127Y-7727837D01*
X7192691Y-7742694D01*
X7185928Y-7776208D01*
X7175656Y-7824526D01*
X7162693Y-7883794D01*
X7149499Y-7942871D01*
X7103202Y-8161610D01*
X7059021Y-8396248D01*
X7018117Y-8639612D01*
X6981652Y-8884531D01*
X6950787Y-9123830D01*
X6934389Y-9271877D01*
X6914705Y-9463255D01*
X6722984Y-9603635D01*
X6482760Y-9783153D01*
X6258927Y-9958183D01*
X6046437Y-10132822D01*
X5840245Y-10311166D01*
X5734627Y-10406013D01*
X5667002Y-10466887D01*
X5614394Y-10512784D01*
X5575321Y-10544878D01*
X5548295Y-10564343D01*
X5531832Y-10572352D01*
X5525346Y-10571379D01*
X5513242Y-10558752D01*
X5488410Y-10532511D01*
X5453905Y-10495896D01*
X5412783Y-10452146D01*
X5388609Y-10426384D01*
X5211112Y-10230029D01*
X5045911Y-10032931D01*
X4894632Y-9837294D01*
X4758899Y-9645320D01*
X4640336Y-9459212D01*
X4540566Y-9281172D01*
X4532027Y-9264567D01*
X4470724Y-9139732D01*
X4420916Y-9027270D01*
X4380197Y-8921116D01*
X4346158Y-8815208D01*
X4328898Y-8752911D01*
X4315173Y-8698733D01*
X4305512Y-8653640D01*
X4299199Y-8611231D01*
X4295517Y-8565105D01*
X4293748Y-8508861D01*
X4293175Y-8436095D01*
X4293170Y-8433955D01*
X4293288Y-8362378D01*
X4294428Y-8308564D01*
X4297175Y-8267189D01*
X4302114Y-8232929D01*
X4309829Y-8200459D01*
X4320907Y-8164456D01*
X4323711Y-8155959D01*
X4375652Y-8035058D01*
X4446621Y-7925753D01*
X4534790Y-7830535D01*
X4602584Y-7775855D01*
X4723192Y-7700588D01*
X4856800Y-7638018D01*
X5004552Y-7587894D01*
X5167596Y-7549968D01*
X5347076Y-7523990D01*
X5544139Y-7509710D01*
X5759931Y-7506880D01*
X5832059Y-7508322D01*
X6039477Y-7518213D01*
X6246680Y-7536904D01*
X6458538Y-7565059D01*
X6679920Y-7603340D01*
X6915696Y-7652408D01*
X6952672Y-7660756D01*
X7016389Y-7675252D01*
X7074329Y-7688391D01*
X7121766Y-7699104D01*
X7153974Y-7706323D01*
X7163377Y-7708393D01*
X7186376Y-7717292D01*
X7195127Y-7727837D01*
X8101871Y-7727837D01*
X7904799Y-7659121D01*
X7732073Y-7602761D01*
X7666914Y-7582172D01*
X7609833Y-7563954D01*
X7564289Y-7549227D01*
X7533739Y-7539109D01*
X7521642Y-7534717D01*
X7521594Y-7534679D01*
X7523430Y-7522636D01*
X7531537Y-7492012D01*
X7544881Y-7446128D01*
X7562428Y-7388308D01*
X7583143Y-7321875D01*
X7605991Y-7250152D01*
X7629940Y-7176462D01*
X7653953Y-7104127D01*
X7673676Y-7046096D01*
X7740460Y-6861831D01*
X7811144Y-6687135D01*
X7889665Y-6512752D01*
X7970356Y-6348288D01*
X8084908Y-6137154D01*
X8202735Y-5948869D01*
X8323838Y-5783433D01*
X8448213Y-5640849D01*
X8575859Y-5521118D01*
X8706775Y-5424243D01*
X8791364Y-5374719D01*
X8869372Y-5336056D01*
X8937163Y-5308749D01*
X9002837Y-5290088D01*
X9074492Y-5277365D01*
X9087671Y-5275620D01*
X9207429Y-5270696D01*
X9327027Y-5286744D01*
X9447505Y-5324134D01*
X9569901Y-5383235D01*
X9695254Y-5464417D01*
X9761692Y-5515272D01*
X9840211Y-5578399D01*
X9888692Y-5527796D01*
X9924895Y-5492061D01*
X9963894Y-5456599D01*
X9983354Y-5440273D01*
X10029536Y-5403354D01*
X9966036Y-5345329D01*
X9917227Y-5304232D01*
X9856696Y-5258489D01*
X9790374Y-5212114D01*
X9724193Y-5169119D01*
X9664086Y-5133516D01*
X9619208Y-5110722D01*
X9577428Y-5093541D01*
X9523863Y-5073283D01*
X9468753Y-5053795D01*
X9457973Y-5050171D01*
X9419009Y-5037726D01*
X9385536Y-5028920D01*
X9352160Y-5023133D01*
X9313489Y-5019745D01*
X9264129Y-5018137D01*
X9198688Y-5017690D01*
X9175172Y-5017689D01*
X9102897Y-5018071D01*
X9102897Y-5018071D01*
G37*
X9102897Y-5018071D02*
X9048102Y-5019505D01*
X9005182Y-5022612D01*
X8968531Y-5028010D01*
X8932543Y-5036319D01*
X8891611Y-5048158D01*
X8887248Y-5049493D01*
X8734926Y-5108139D01*
X8586343Y-5189271D01*
X8441736Y-5292551D01*
X8301342Y-5417641D01*
X8165401Y-5564203D01*
X8034148Y-5731900D01*
X7907821Y-5920393D01*
X7786658Y-6129345D01*
X7670897Y-6358417D01*
X7560775Y-6607271D01*
X7456530Y-6875571D01*
X7358398Y-7162977D01*
X7323826Y-7273637D01*
X7304368Y-7335661D01*
X7286588Y-7389036D01*
X7271750Y-7430229D01*
X7261113Y-7455706D01*
X7256403Y-7462391D01*
X7242656Y-7459347D01*
X7210167Y-7451959D01*
X7162693Y-7441086D01*
X7103989Y-7427589D01*
X7043158Y-7413561D01*
X6707825Y-7343421D01*
X6381598Y-7289807D01*
X6245523Y-7272061D01*
X6154060Y-7262960D01*
X6049190Y-7255640D01*
X5935417Y-7250160D01*
X5817244Y-7246580D01*
X5699176Y-7244957D01*
X5585718Y-7245352D01*
X5481372Y-7247823D01*
X5390644Y-7252429D01*
X5318037Y-7259229D01*
X5313218Y-7259860D01*
X5108556Y-7294089D01*
X4923428Y-7339341D01*
X4756864Y-7396020D01*
X4607893Y-7464529D01*
X4475545Y-7545273D01*
X4358849Y-7638654D01*
X4324808Y-7671118D01*
X4224657Y-7786164D01*
X4144820Y-7911447D01*
X4085156Y-8046497D01*
X4045523Y-8190840D01*
X4025779Y-8344005D01*
X4025780Y-8505521D01*
X4045386Y-8674915D01*
X4084454Y-8851716D01*
X4142842Y-9035451D01*
X4220407Y-9225649D01*
X4317008Y-9421838D01*
X4432502Y-9623546D01*
X4566747Y-9830301D01*
X4719601Y-10041632D01*
X4890922Y-10257066D01*
X5080568Y-10476132D01*
X5213249Y-10619880D01*
X5257601Y-10667261D01*
X5295799Y-10708960D01*
X5325239Y-10742061D01*
X5343317Y-10763649D01*
X5347854Y-10770591D01*
X5340179Y-10782725D01*
X5320602Y-10804428D01*
X5306182Y-10818713D01*
X5283043Y-10841833D01*
X5248522Y-10877609D01*
X5206807Y-10921646D01*
X5162088Y-10969547D01*
X5149453Y-10983211D01*
X5034395Y-11107922D01*
X5101648Y-11151939D01*
X5142191Y-11180601D01*
X5179939Y-11210834D01*
X5203051Y-11232412D01*
X5237203Y-11268868D01*
X5388885Y-11109914D01*
X5540567Y-10950961D01*
X5672234Y-11072992D01*
X5963045Y-11331977D01*
X6275443Y-11589825D01*
X6610159Y-11847140D01*
X6629668Y-11861612D01*
X6710361Y-11921325D01*
X6774472Y-11968857D01*
X6823899Y-12005872D01*
X6860538Y-12034034D01*
X6886289Y-12055007D01*
X6903047Y-12070457D01*
X6912710Y-12082047D01*
X6917176Y-12091441D01*
X6918342Y-12100304D01*
X6918106Y-12110301D01*
X6918043Y-12114561D01*
X6919870Y-12156539D01*
X6925064Y-12218209D01*
X6933209Y-12296479D01*
X6943891Y-12388261D01*
X6956695Y-12490467D01*
X6971208Y-12600006D01*
X6987015Y-12713791D01*
X7003701Y-12828731D01*
X7020851Y-12941738D01*
X7038052Y-13049723D01*
X7054889Y-13149597D01*
X7063209Y-13196455D01*
X7076646Y-13268546D01*
X7092185Y-13348517D01*
X7109005Y-13432467D01*
X7126285Y-13516497D01*
X7143205Y-13596705D01*
X7158942Y-13669192D01*
X7172677Y-13730056D01*
X7183588Y-13775398D01*
X7189944Y-13798552D01*
X7189136Y-13807228D01*
X7178765Y-13815508D01*
X7155679Y-13824592D01*
X7116730Y-13835678D01*
X7058767Y-13849965D01*
X7048334Y-13852435D01*
X6804658Y-13906642D01*
X6577324Y-13950111D01*
X6362485Y-13983308D01*
X6156292Y-14006699D01*
X5954896Y-14020749D01*
X5754449Y-14025922D01*
X5622712Y-14024742D01*
X5488432Y-14020317D01*
X5372105Y-14012976D01*
X5268706Y-14002068D01*
X5173208Y-13986937D01*
X5080585Y-13966932D01*
X4989120Y-13942363D01*
X4838305Y-13889337D01*
X4703881Y-13823129D01*
X4586703Y-13744494D01*
X4487626Y-13654186D01*
X4407505Y-13552961D01*
X4347196Y-13441573D01*
X4314029Y-13346546D01*
X4293947Y-13237967D01*
X4287887Y-13115103D01*
X4295688Y-12981892D01*
X4317191Y-12842271D01*
X4338164Y-12751009D01*
X4350275Y-12703554D01*
X4359793Y-12664665D01*
X4365443Y-12639634D01*
X4366447Y-12633470D01*
X4356719Y-12624495D01*
X4332041Y-12611289D01*
X4315476Y-12604013D01*
X4276516Y-12585952D01*
X4230537Y-12561796D01*
X4201470Y-12545088D01*
X4138392Y-12507104D01*
X4102593Y-12623757D01*
X4073164Y-12725239D01*
X4052072Y-12813200D01*
X4038146Y-12895163D01*
X4030215Y-12978648D01*
X4027110Y-13071179D01*
X4026950Y-13109864D01*
X4028592Y-13202549D01*
X4033952Y-13279423D01*
X4044288Y-13347633D01*
X4060857Y-13414328D01*
X4084917Y-13486656D01*
X4100565Y-13528240D01*
X4162494Y-13656735D01*
X4244602Y-13775474D01*
X4345791Y-13883665D01*
X4464959Y-13980515D01*
X4601007Y-14065233D01*
X4752835Y-14137027D01*
X4919342Y-14195103D01*
X5082309Y-14235285D01*
X5161285Y-14250632D01*
X5231935Y-14262707D01*
X5298813Y-14271877D01*
X5366472Y-14278511D01*
X5439463Y-14282976D01*
X5522340Y-14285639D01*
X5619655Y-14286870D01*
X5723081Y-14287057D01*
X5908499Y-14284098D01*
X6086210Y-14275343D01*
X6261116Y-14260190D01*
X6438115Y-14238036D01*
X6622108Y-14208279D01*
X6817995Y-14170318D01*
X7004627Y-14129527D01*
X7072256Y-14114108D01*
X7133316Y-14100228D01*
X7183750Y-14088805D01*
X7219501Y-14080758D01*
X7236013Y-14077110D01*
X7248185Y-14077181D01*
X7258132Y-14085979D01*
X7268081Y-14107507D01*
X7280256Y-14145767D01*
X7286706Y-14168274D01*
X7361530Y-14415534D01*
X7444811Y-14657951D01*
X7535366Y-14892921D01*
X7632015Y-15117841D01*
X7733576Y-15330107D01*
X7838870Y-15527115D01*
X7946715Y-15706263D01*
X8055930Y-15864946D01*
X8056864Y-15866203D01*
X8190555Y-16032093D01*
X8328619Y-16175848D01*
X8470871Y-16297327D01*
X8617130Y-16396389D01*
X8767211Y-16472891D01*
X8903854Y-16521890D01*
X8966537Y-16535483D01*
X9043727Y-16545345D01*
X9128401Y-16551212D01*
X9213535Y-16552823D01*
X9292103Y-16549918D01*
X9357083Y-16542234D01*
X9371445Y-16539293D01*
X9525072Y-16493059D01*
X9673516Y-16426268D01*
X9817261Y-16338533D01*
X9956788Y-16229465D01*
X10092577Y-16098676D01*
X10225111Y-15945779D01*
X10354871Y-15770385D01*
X10389498Y-15719113D01*
X10494402Y-15549278D01*
X10597640Y-15359456D01*
X10697861Y-15152754D01*
X10793715Y-14932272D01*
X10883850Y-14701116D01*
X10966916Y-14462389D01*
X11040185Y-14224000D01*
X11055734Y-14171428D01*
X11069736Y-14126949D01*
X11080638Y-14095312D01*
X11086819Y-14081343D01*
X11100431Y-14080464D01*
X11132336Y-14084572D01*
X11178450Y-14092961D01*
X11234686Y-14104927D01*
X11266702Y-14112360D01*
X11432238Y-14149898D01*
X11599311Y-14184104D01*
X11759252Y-14213265D01*
X11859491Y-14229337D01*
X11913192Y-14237426D01*
X11961234Y-14244741D01*
X11997201Y-14250302D01*
X12011451Y-14252575D01*
X12042185Y-14257653D01*
X12038588Y-14003288D01*
X10831945Y-14003288D01*
X10828483Y-14020169D01*
X10818851Y-14055373D01*
X10804179Y-14105313D01*
X10785598Y-14166405D01*
X10764238Y-14235064D01*
X10741230Y-14307705D01*
X10717704Y-14380744D01*
X10694791Y-14450595D01*
X10673621Y-14513674D01*
X10655325Y-14566396D01*
X10647775Y-14587298D01*
X10547874Y-14842914D01*
X10443478Y-15079264D01*
X10334879Y-15295953D01*
X10222369Y-15492586D01*
X10106241Y-15668770D01*
X9986787Y-15824110D01*
X9864299Y-15958211D01*
X9739069Y-16070679D01*
X9611390Y-16161119D01*
X9481554Y-16229138D01*
X9411184Y-16256226D01*
X9288061Y-16286983D01*
X9164810Y-16295699D01*
X9038207Y-16282497D01*
X8990445Y-16272222D01*
X8868188Y-16231199D01*
X8745379Y-16167725D01*
X8622723Y-16082407D01*
X8500922Y-15975852D01*
X8380678Y-15848666D01*
X8262694Y-15701455D01*
X8162390Y-15557500D01*
X8114243Y-15479614D01*
X8060347Y-15384928D01*
X8003118Y-15278242D01*
X7944971Y-15164354D01*
X7888321Y-15048066D01*
X7835582Y-14934177D01*
X7789169Y-14827485D01*
X7764465Y-14766637D01*
X7736457Y-14693303D01*
X7706895Y-14612449D01*
X7676671Y-14526857D01*
X7646677Y-14439310D01*
X7617806Y-14352594D01*
X7590950Y-14269490D01*
X7567001Y-14192782D01*
X7546851Y-14125255D01*
X7531392Y-14069691D01*
X7521517Y-14028874D01*
X7518119Y-14005587D01*
X7519156Y-14001365D01*
X7530937Y-13996989D01*
X7562035Y-13986282D01*
X7609832Y-13970123D01*
X7671709Y-13949389D01*
X7745046Y-13924960D01*
X7827226Y-13897715D01*
X7882081Y-13879591D01*
X8110349Y-13801484D01*
X8343631Y-13716402D01*
X8574849Y-13627075D01*
X8796924Y-13536231D01*
X8988506Y-13453018D01*
X9171294Y-13371025D01*
X9340642Y-13446442D01*
X9469642Y-13502673D01*
X9607863Y-13560724D01*
X9752308Y-13619478D01*
X9899980Y-13677817D01*
X10047881Y-13734625D01*
X10193014Y-13788785D01*
X10332382Y-13839181D01*
X10462986Y-13884695D01*
X10581831Y-13924210D01*
X10685918Y-13956611D01*
X10772250Y-13980779D01*
X10780046Y-13982764D01*
X10810721Y-13991940D01*
X10829348Y-14000310D01*
X10831945Y-14003288D01*
X12038588Y-14003288D01*
X12038445Y-13993199D01*
X12003809Y-13987345D01*
X11974529Y-13982653D01*
X11931945Y-13976125D01*
X11888354Y-13969629D01*
X11794533Y-13954539D01*
X11685719Y-13934855D01*
X11569207Y-13912017D01*
X11452294Y-13887463D01*
X11342274Y-13862633D01*
X11324320Y-13858378D01*
X11152832Y-13817406D01*
X11159242Y-13786908D01*
X11163657Y-13766259D01*
X11172080Y-13727176D01*
X11183618Y-13673791D01*
X11197378Y-13610236D01*
X11212467Y-13540642D01*
X11212538Y-13540318D01*
X11251608Y-13350273D01*
X11289684Y-13145871D01*
X11325201Y-12935841D01*
X11350821Y-12768946D01*
X11357163Y-12723343D01*
X11365003Y-12663532D01*
X11373913Y-12593136D01*
X11383463Y-12515779D01*
X11393225Y-12435082D01*
X11402770Y-12354670D01*
X11411669Y-12278165D01*
X11413597Y-12261161D01*
X11151335Y-12261161D01*
X11136045Y-12391103D01*
X11104625Y-12636553D01*
X11068136Y-12883679D01*
X11027625Y-13126192D01*
X10984139Y-13357807D01*
X10941664Y-13559165D01*
X10927983Y-13620501D01*
X10916282Y-13673479D01*
X10907409Y-13714204D01*
X10902217Y-13738783D01*
X10901218Y-13744241D01*
X10890635Y-13743470D01*
X10860192Y-13735745D01*
X10811851Y-13721665D01*
X10747572Y-13701829D01*
X10669316Y-13676837D01*
X10579044Y-13647290D01*
X10520816Y-13627920D01*
X10247866Y-13532376D01*
X9969809Y-13427008D01*
X9705065Y-13319049D01*
X9495005Y-13230122D01*
X8846811Y-13230122D01*
X8845406Y-13231265D01*
X8825586Y-13240702D01*
X8787750Y-13257254D01*
X8735338Y-13279509D01*
X8671792Y-13306053D01*
X8600554Y-13335474D01*
X8525064Y-13366358D01*
X8448765Y-13397293D01*
X8375098Y-13426866D01*
X8307504Y-13453664D01*
X8249425Y-13476274D01*
X8237729Y-13480751D01*
X8175756Y-13503850D01*
X8103187Y-13530032D01*
X8023061Y-13558284D01*
X7938420Y-13587590D01*
X7852302Y-13616935D01*
X7767749Y-13645305D01*
X7687800Y-13671685D01*
X7615495Y-13695060D01*
X7553874Y-13714416D01*
X7505978Y-13728736D01*
X7474846Y-13737008D01*
X7465089Y-13738659D01*
X7449018Y-13734680D01*
X7438209Y-13718462D01*
X7429106Y-13684642D01*
X7429023Y-13684250D01*
X7392031Y-13507661D01*
X7359900Y-13349636D01*
X7331954Y-13206324D01*
X7307512Y-13073874D01*
X7285898Y-12948434D01*
X7266432Y-12826151D01*
X7248438Y-12703175D01*
X7231237Y-12575653D01*
X7224276Y-12521316D01*
X7215387Y-12450302D01*
X7207592Y-12386713D01*
X7201331Y-12334252D01*
X7197044Y-12296625D01*
X7195173Y-12277537D01*
X7195127Y-12276364D01*
X7204164Y-12277315D01*
X7229094Y-12289334D01*
X7266643Y-12310610D01*
X7313538Y-12339333D01*
X7342331Y-12357782D01*
X7573976Y-12504936D01*
X7816835Y-12652693D01*
X8064931Y-12797614D01*
X8312285Y-12936257D01*
X8552921Y-13065182D01*
X8718445Y-13149948D01*
X8779773Y-13181598D01*
X8820885Y-13205046D01*
X8842867Y-13220988D01*
X8846811Y-13230122D01*
X9495005Y-13230122D01*
X9483350Y-13225188D01*
X9716034Y-13104026D01*
X10087685Y-12904843D01*
X10444455Y-12701736D01*
X10794537Y-12489904D01*
X11121527Y-12280712D01*
X11151335Y-12261161D01*
X11413597Y-12261161D01*
X11419492Y-12209190D01*
X11425811Y-12151369D01*
X11430196Y-12108323D01*
X11432219Y-12083677D01*
X11432305Y-12080862D01*
X11441244Y-12070199D01*
X11466039Y-12048672D01*
X11503661Y-12018704D01*
X11551083Y-11982718D01*
X11596831Y-11949211D01*
X11810275Y-11791296D01*
X12024579Y-11625124D01*
X12233770Y-11455505D01*
X12431873Y-11287247D01*
X12555991Y-11177157D01*
X12609201Y-11129142D01*
X12660686Y-11082874D01*
X12706221Y-11042136D01*
X12741582Y-11010712D01*
X12756919Y-10997238D01*
X12809755Y-10951248D01*
X12912481Y-11060738D01*
X13120152Y-11290067D01*
X13307647Y-11513796D01*
X13474772Y-11731616D01*
X13621337Y-11943219D01*
X13747150Y-12148299D01*
X13852017Y-12346545D01*
X13935747Y-12537651D01*
X13998149Y-12721309D01*
X14030874Y-12854158D01*
X14049161Y-12976323D01*
X14055273Y-13099380D01*
X14049570Y-13218644D01*
X14032413Y-13329428D01*
X14004165Y-13427045D01*
X13982986Y-13475498D01*
X13914880Y-13585661D01*
X13829751Y-13683409D01*
X13731281Y-13764577D01*
X13721720Y-13771039D01*
X13690057Y-13793423D01*
X13667964Y-13811640D01*
X13660581Y-13820981D01*
X13663301Y-13836434D01*
X13670346Y-13866875D01*
X13677900Y-13896817D01*
X13687936Y-13946726D01*
X13694187Y-13999710D01*
X13695218Y-14024381D01*
X13696727Y-14058397D01*
X13700604Y-14080569D01*
X13704060Y-14085455D01*
X13721610Y-14079167D01*
X13753222Y-14062257D01*
X13794261Y-14037654D01*
X13840093Y-14008286D01*
X13886083Y-13977083D01*
X13927598Y-13946975D01*
X13946521Y-13932205D01*
X14039384Y-13844627D01*
X14124194Y-13740371D01*
X14196751Y-13625526D01*
X14252858Y-13506180D01*
X14266739Y-13467773D01*
X14294857Y-13358651D01*
X14312338Y-13235353D01*
X14318827Y-13104381D01*
X14313965Y-12972236D01*
X14300123Y-12860785D01*
X14256853Y-12668321D01*
X14191565Y-12469509D01*
X14104242Y-12264323D01*
X13994869Y-12052736D01*
X13863430Y-11834723D01*
X13709911Y-11610258D01*
X13534296Y-11379316D01*
X13336569Y-11141870D01*
X13134420Y-10916903D01*
X12996659Y-10768609D01*
X12620296Y-10768609D01*
X12473689Y-10901687D01*
X12368264Y-10996577D01*
X12271025Y-11082196D01*
X12175423Y-11164152D01*
X12074910Y-11248052D01*
X11962938Y-11339501D01*
X11951854Y-11348472D01*
X11885079Y-11402009D01*
X11815663Y-11456823D01*
X11746096Y-11511030D01*
X11678870Y-11562744D01*
X11616476Y-11610079D01*
X11561405Y-11651150D01*
X11516148Y-11684073D01*
X11483197Y-11706960D01*
X11465041Y-11717928D01*
X11462807Y-11718613D01*
X11457464Y-11709249D01*
X11459174Y-11692659D01*
X11461150Y-11675001D01*
X11463776Y-11637285D01*
X11466893Y-11582531D01*
X11470346Y-11513760D01*
X11473980Y-11433991D01*
X11477637Y-11346243D01*
X11479323Y-11303000D01*
X11483374Y-11168603D01*
X11485962Y-11020063D01*
X11487129Y-10862080D01*
X11487070Y-10816341D01*
X11219007Y-10816341D01*
X11218750Y-10969790D01*
X11217628Y-11119797D01*
X11215643Y-11264026D01*
X11212793Y-11400143D01*
X11209080Y-11525815D01*
X11204503Y-11638706D01*
X11199061Y-11736484D01*
X11192756Y-11816812D01*
X11185587Y-11877358D01*
X11182397Y-11895926D01*
X11177861Y-11907849D01*
X11167325Y-11921713D01*
X11148638Y-11939179D01*
X11119647Y-11961906D01*
X11078200Y-11991554D01*
X11022145Y-12029782D01*
X10949330Y-12078250D01*
X10926010Y-12093642D01*
X10695561Y-12242023D01*
X10451978Y-12392322D01*
X10204048Y-12539201D01*
X10012218Y-12648565D01*
X9964316Y-12674943D01*
X9904159Y-12707389D01*
X9834354Y-12744558D01*
X9757509Y-12785102D01*
X9676233Y-12827673D01*
X9593135Y-12870924D01*
X9510823Y-12913508D01*
X9431904Y-12954077D01*
X9358989Y-12991285D01*
X9294684Y-13023784D01*
X9241598Y-13050227D01*
X9202340Y-13069267D01*
X9179518Y-13079556D01*
X9175001Y-13081000D01*
X9163435Y-13076005D01*
X9133854Y-13061870D01*
X9088852Y-13039873D01*
X9031021Y-13011292D01*
X8962955Y-12977405D01*
X8887246Y-12939488D01*
X8860103Y-12925845D01*
X8556461Y-12769212D01*
X8268616Y-12612458D01*
X7989606Y-12451563D01*
X7712467Y-12282512D01*
X7430237Y-12101286D01*
X7424612Y-12097589D01*
X7163416Y-11925809D01*
X7156239Y-11836654D01*
X7145826Y-11693571D01*
X7145032Y-11679637D01*
X6881533Y-11679637D01*
X6881383Y-11707576D01*
X6878616Y-11718628D01*
X6878501Y-11718637D01*
X6867112Y-11712040D01*
X6840723Y-11693855D01*
X6802702Y-11666485D01*
X6756417Y-11632338D01*
X6729951Y-11612514D01*
X6589926Y-11505241D01*
X6445905Y-11391462D01*
X6301907Y-11274520D01*
X6161950Y-11157757D01*
X6030055Y-11044516D01*
X5910239Y-10938139D01*
X5828149Y-10862453D01*
X5725399Y-10765771D01*
X5891649Y-10615310D01*
X6042735Y-10480264D01*
X6184692Y-10357185D01*
X6323817Y-10240860D01*
X6466408Y-10126074D01*
X6618763Y-10007614D01*
X6703254Y-9943347D01*
X6757549Y-9902757D01*
X6805340Y-9867874D01*
X6843687Y-9840774D01*
X6869650Y-9823534D01*
X6880290Y-9818230D01*
X6880326Y-9818260D01*
X6881149Y-9830678D01*
X6880856Y-9863000D01*
X6879542Y-9912072D01*
X6877307Y-9974739D01*
X6874247Y-10047845D01*
X6871250Y-10112153D01*
X6868762Y-10178105D01*
X6866761Y-10261526D01*
X6865233Y-10359556D01*
X6864163Y-10469335D01*
X6863536Y-10588000D01*
X6863338Y-10712692D01*
X6863555Y-10840549D01*
X6864172Y-10968712D01*
X6865174Y-11094318D01*
X6866546Y-11214508D01*
X6868275Y-11326420D01*
X6870346Y-11427194D01*
X6872743Y-11513968D01*
X6875454Y-11583882D01*
X6878462Y-11634076D01*
X6879025Y-11640705D01*
X6881533Y-11679637D01*
X7145032Y-11679637D01*
X7137494Y-11547365D01*
X7131124Y-11394312D01*
X7126596Y-11230688D01*
X7123791Y-11052769D01*
X7122590Y-10856829D01*
X7122527Y-10783455D01*
X7122870Y-10629039D01*
X7123896Y-10492542D01*
X7125770Y-10368798D01*
X7128656Y-10252641D01*
X7132716Y-10138906D01*
X7138116Y-10022425D01*
X7145019Y-9898033D01*
X7153589Y-9760565D01*
X7156306Y-9719072D01*
X7163697Y-9607188D01*
X7390117Y-9458308D01*
X7738901Y-9235243D01*
X8084930Y-9026959D01*
X8435896Y-8829023D01*
X8799494Y-8637005D01*
X8934725Y-8568593D01*
X9167642Y-8452043D01*
X9304180Y-8516866D01*
X9504278Y-8615106D01*
X9717976Y-8726027D01*
X9941285Y-8847353D01*
X10170215Y-8976806D01*
X10400778Y-9112107D01*
X10628982Y-9250979D01*
X10850840Y-9391144D01*
X10960389Y-9462479D01*
X11175424Y-9604022D01*
X11182430Y-9665534D01*
X11189951Y-9744924D01*
X11196609Y-9841881D01*
X11202401Y-9954069D01*
X11207329Y-10079154D01*
X11211393Y-10214803D01*
X11214593Y-10358680D01*
X11216929Y-10508452D01*
X11218400Y-10661784D01*
X11219007Y-10816341D01*
X11487070Y-10816341D01*
X11486919Y-10699349D01*
X11485375Y-10536568D01*
X11482539Y-10378433D01*
X11478455Y-10229642D01*
X11473166Y-10094892D01*
X11467266Y-9987258D01*
X11463752Y-9927715D01*
X11461403Y-9876848D01*
X11460362Y-9838866D01*
X11460774Y-9817981D01*
X11461395Y-9815338D01*
X11472723Y-9819672D01*
X11499886Y-9837139D01*
X11540888Y-9866198D01*
X11593735Y-9905310D01*
X11656430Y-9952936D01*
X11726978Y-10007537D01*
X11803383Y-10067572D01*
X11883650Y-10131504D01*
X11965783Y-10197792D01*
X12047786Y-10264898D01*
X12096172Y-10304977D01*
X12184602Y-10378931D01*
X12260109Y-10442970D01*
X12327819Y-10501583D01*
X12392857Y-10559262D01*
X12460346Y-10620497D01*
X12535411Y-10689778D01*
X12537189Y-10691428D01*
X12620296Y-10768609D01*
X12996659Y-10768609D01*
X12994317Y-10766088D01*
X13109295Y-10644885D01*
X13324451Y-10409117D01*
X13519533Y-10176678D01*
X13694268Y-9948005D01*
X13848383Y-9723535D01*
X13981604Y-9503704D01*
X14093660Y-9288947D01*
X14184276Y-9079701D01*
X14253180Y-8876402D01*
X14280017Y-8774546D01*
X14296681Y-8686869D01*
X14308775Y-8587543D01*
X14315935Y-8483730D01*
X14317645Y-8390762D01*
X14054608Y-8390762D01*
X14052939Y-8493219D01*
X14044163Y-8595414D01*
X14030818Y-8678344D01*
X13986214Y-8850491D01*
X13921133Y-9030943D01*
X13836194Y-9218608D01*
X13732012Y-9412397D01*
X13609204Y-9611218D01*
X13468388Y-9813979D01*
X13310179Y-10019589D01*
X13193384Y-10160000D01*
X13138654Y-10223108D01*
X13081689Y-10287461D01*
X13024682Y-10350710D01*
X12969827Y-10410510D01*
X12919318Y-10464513D01*
X12875350Y-10510371D01*
X12840116Y-10545737D01*
X12815810Y-10568265D01*
X12804883Y-10575637D01*
X12792560Y-10568147D01*
X12767424Y-10547812D01*
X12733267Y-10517835D01*
X12698076Y-10485383D01*
X12550690Y-10350411D01*
X12387347Y-10207768D01*
X12212307Y-10060939D01*
X12029828Y-9913409D01*
X11844173Y-9768661D01*
X11659600Y-9630182D01*
X11594791Y-9582933D01*
X11534850Y-9539143D01*
X11491288Y-9505965D01*
X11461440Y-9480952D01*
X11442643Y-9461656D01*
X11432231Y-9445630D01*
X11427539Y-9430426D01*
X11427324Y-9429124D01*
X11424065Y-9404676D01*
X11419028Y-9362425D01*
X11412806Y-9307536D01*
X11406473Y-9249568D01*
X11143672Y-9249568D01*
X11139122Y-9254447D01*
X11124155Y-9250392D01*
X11096797Y-9236358D01*
X11055076Y-9211302D01*
X10997019Y-9174180D01*
X10979150Y-9162517D01*
X10916660Y-9122181D01*
X10840619Y-9073996D01*
X10757330Y-9021902D01*
X10673094Y-8969839D01*
X10594214Y-8921749D01*
X10589540Y-8918925D01*
X10432578Y-8825658D01*
X10268555Y-8730937D01*
X10103022Y-8637854D01*
X9941528Y-8549502D01*
X9789624Y-8468972D01*
X9691873Y-8418862D01*
X9630248Y-8387447D01*
X9576373Y-8359304D01*
X9533404Y-8336139D01*
X9504499Y-8319657D01*
X9492814Y-8311563D01*
X9492714Y-8311286D01*
X9494780Y-8309879D01*
X8859574Y-8309879D01*
X8642146Y-8422669D01*
X8386506Y-8558296D01*
X8131475Y-8699433D01*
X7882130Y-8843140D01*
X7643548Y-8986480D01*
X7420805Y-9126511D01*
X7374297Y-9156670D01*
X7318736Y-9192711D01*
X7270319Y-9223727D01*
X7232151Y-9247759D01*
X7207340Y-9262850D01*
X7198986Y-9267162D01*
X7199647Y-9255544D01*
X7202869Y-9224533D01*
X7208245Y-9177636D01*
X7215374Y-9118359D01*
X7223850Y-9050210D01*
X7225157Y-9039886D01*
X7257479Y-8801758D01*
X7292807Y-8575566D01*
X7332929Y-8350190D01*
X7352046Y-8251039D01*
X7368593Y-8168604D01*
X7385542Y-8087012D01*
X7402167Y-8009480D01*
X7417745Y-7939227D01*
X7431553Y-7879470D01*
X7442866Y-7833428D01*
X7450959Y-7804317D01*
X7454560Y-7795446D01*
X7467004Y-7796880D01*
X7497891Y-7804625D01*
X7543782Y-7817619D01*
X7601239Y-7834800D01*
X7666822Y-7855105D01*
X7737093Y-7877471D01*
X7808614Y-7900835D01*
X7877944Y-7924136D01*
X7934036Y-7943610D01*
X8085974Y-7998389D01*
X8240253Y-8055959D01*
X8392191Y-8114484D01*
X8537106Y-8172123D01*
X8670317Y-8227039D01*
X8787141Y-8277394D01*
X8809555Y-8287397D01*
X8859574Y-8309879D01*
X9494780Y-8309879D01*
X9503004Y-8304281D01*
X9532082Y-8290061D01*
X9577207Y-8269759D01*
X9635640Y-8244510D01*
X9704640Y-8215449D01*
X9781467Y-8183710D01*
X9863382Y-8150428D01*
X9947642Y-8116737D01*
X10031510Y-8083772D01*
X10112243Y-8052668D01*
X10168846Y-8031334D01*
X10262051Y-7997156D01*
X10357312Y-7963234D01*
X10452072Y-7930390D01*
X10543779Y-7899442D01*
X10629877Y-7871212D01*
X10707812Y-7846518D01*
X10775028Y-7826181D01*
X10828972Y-7811021D01*
X10867089Y-7801857D01*
X10886823Y-7799511D01*
X10888778Y-7800259D01*
X10893785Y-7814143D01*
X10902625Y-7847168D01*
X10914519Y-7895853D01*
X10928685Y-7956713D01*
X10944343Y-8026265D01*
X10960711Y-8101027D01*
X10977011Y-8177514D01*
X10992460Y-8252245D01*
X11006278Y-8321735D01*
X11010094Y-8341591D01*
X11022980Y-8412120D01*
X11037134Y-8494478D01*
X11052081Y-8585420D01*
X11067342Y-8681699D01*
X11082440Y-8780070D01*
X11096897Y-8877286D01*
X11110237Y-8970102D01*
X11121981Y-9055272D01*
X11131651Y-9129550D01*
X11138771Y-9189689D01*
X11142863Y-9232445D01*
X11143672Y-9249568D01*
X11406473Y-9249568D01*
X11405992Y-9245175D01*
X11403207Y-9219046D01*
X11372261Y-8959325D01*
X11333617Y-8689278D01*
X11288719Y-8417789D01*
X11239013Y-8153745D01*
X11199539Y-7966364D01*
X11184602Y-7898411D01*
X11171454Y-7837626D01*
X11160905Y-7787837D01*
X11153766Y-7752868D01*
X11150847Y-7736546D01*
X11150839Y-7736459D01*
X11157536Y-7727215D01*
X11179856Y-7716215D01*
X11218970Y-7703144D01*
X11276051Y-7687686D01*
X11352271Y-7669529D01*
X11448803Y-7648357D01*
X11566818Y-7623855D01*
X11582400Y-7620693D01*
X11861969Y-7570090D01*
X12129768Y-7533800D01*
X12384834Y-7511836D01*
X12626209Y-7504216D01*
X12852932Y-7510953D01*
X13064043Y-7532065D01*
X13258582Y-7567565D01*
X13354627Y-7592215D01*
X13503839Y-7644012D01*
X13637325Y-7709409D01*
X13754122Y-7787527D01*
X13853262Y-7877483D01*
X13933781Y-7978396D01*
X13994714Y-8089385D01*
X14035094Y-8209569D01*
X14036277Y-8214591D01*
X14049083Y-8295426D01*
X14054608Y-8390762D01*
X14317645Y-8390762D01*
X14317796Y-8382592D01*
X14313994Y-8291289D01*
X14307445Y-8235038D01*
X14284397Y-8131910D01*
X14249158Y-8024132D01*
X14205517Y-7922351D01*
X14177155Y-7869068D01*
X14117083Y-7782169D01*
X14039102Y-7694331D01*
X13947829Y-7609679D01*
X13847885Y-7532338D01*
X13743887Y-7466432D01*
X13700382Y-7443290D01*
X13614107Y-7405425D01*
X13509907Y-7368427D01*
X13392941Y-7333719D01*
X13268369Y-7302724D01*
X13141350Y-7276867D01*
X13037127Y-7260240D01*
X12983683Y-7254966D01*
X12911590Y-7250871D01*
X12825262Y-7247954D01*
X12729109Y-7246215D01*
X12627544Y-7245654D01*
X12524980Y-7246269D01*
X12425829Y-7248061D01*
X12334503Y-7251029D01*
X12255414Y-7255172D01*
X12194309Y-7260341D01*
X12077626Y-7274607D01*
X11947189Y-7292881D01*
X11811438Y-7313837D01*
X11678816Y-7336153D01*
X11557764Y-7358505D01*
X11518973Y-7366238D01*
X11445468Y-7381579D01*
X11369688Y-7397989D01*
X11295674Y-7414531D01*
X11227469Y-7430271D01*
X11169115Y-7444273D01*
X11124653Y-7455602D01*
X11098127Y-7463323D01*
X11095862Y-7464144D01*
X11085306Y-7462839D01*
X11074845Y-7448097D01*
X11062699Y-7416565D01*
X11051731Y-7380962D01*
X11036130Y-7329076D01*
X11016880Y-7267228D01*
X10995205Y-7199124D01*
X10972331Y-7128473D01*
X10949483Y-7058983D01*
X10927887Y-6994362D01*
X10908766Y-6938318D01*
X10893348Y-6894559D01*
X10882856Y-6866794D01*
X10879335Y-6859195D01*
X10870264Y-6851963D01*
X10853721Y-6852360D01*
X10824792Y-6861198D01*
X10793061Y-6873432D01*
X10746927Y-6890285D01*
X10701997Y-6904063D01*
X10671423Y-6911116D01*
X10625624Y-6918439D01*
X10675227Y-7058515D01*
X10695097Y-7116153D01*
X10716534Y-7180927D01*
X10738451Y-7249246D01*
X10759758Y-7317516D01*
X10779368Y-7382147D01*
X10796192Y-7439546D01*
X10809142Y-7486121D01*
X10817130Y-7518280D01*
X10819066Y-7532431D01*
X10818904Y-7532701D01*
X10807322Y-7537178D01*
X10776412Y-7548052D01*
X10728760Y-7564439D01*
X10666953Y-7585460D01*
X10593577Y-7610234D01*
X10511218Y-7637880D01*
X10450945Y-7658022D01*
X10151205Y-7762356D01*
X9852243Y-7874824D01*
X9562202Y-7992276D01*
X9358255Y-8080481D01*
X9171883Y-8163502D01*
X9000346Y-8086645D01*
X8793022Y-7996582D01*
X8573145Y-7906258D01*
X8347375Y-7818212D01*
X8122373Y-7734986D01*
X8101871Y-7727837D01*
X7195127Y-7727837D01*
X7192691Y-7742694D01*
X7185928Y-7776208D01*
X7175656Y-7824526D01*
X7162693Y-7883794D01*
X7149499Y-7942871D01*
X7103202Y-8161610D01*
X7059021Y-8396248D01*
X7018117Y-8639612D01*
X6981652Y-8884531D01*
X6950787Y-9123830D01*
X6934389Y-9271877D01*
X6914705Y-9463255D01*
X6722984Y-9603635D01*
X6482760Y-9783153D01*
X6258927Y-9958183D01*
X6046437Y-10132822D01*
X5840245Y-10311166D01*
X5734627Y-10406013D01*
X5667002Y-10466887D01*
X5614394Y-10512784D01*
X5575321Y-10544878D01*
X5548295Y-10564343D01*
X5531832Y-10572352D01*
X5525346Y-10571379D01*
X5513242Y-10558752D01*
X5488410Y-10532511D01*
X5453905Y-10495896D01*
X5412783Y-10452146D01*
X5388609Y-10426384D01*
X5211112Y-10230029D01*
X5045911Y-10032931D01*
X4894632Y-9837294D01*
X4758899Y-9645320D01*
X4640336Y-9459212D01*
X4540566Y-9281172D01*
X4532027Y-9264567D01*
X4470724Y-9139732D01*
X4420916Y-9027270D01*
X4380197Y-8921116D01*
X4346158Y-8815208D01*
X4328898Y-8752911D01*
X4315173Y-8698733D01*
X4305512Y-8653640D01*
X4299199Y-8611231D01*
X4295517Y-8565105D01*
X4293748Y-8508861D01*
X4293175Y-8436095D01*
X4293170Y-8433955D01*
X4293288Y-8362378D01*
X4294428Y-8308564D01*
X4297175Y-8267189D01*
X4302114Y-8232929D01*
X4309829Y-8200459D01*
X4320907Y-8164456D01*
X4323711Y-8155959D01*
X4375652Y-8035058D01*
X4446621Y-7925753D01*
X4534790Y-7830535D01*
X4602584Y-7775855D01*
X4723192Y-7700588D01*
X4856800Y-7638018D01*
X5004552Y-7587894D01*
X5167596Y-7549968D01*
X5347076Y-7523990D01*
X5544139Y-7509710D01*
X5759931Y-7506880D01*
X5832059Y-7508322D01*
X6039477Y-7518213D01*
X6246680Y-7536904D01*
X6458538Y-7565059D01*
X6679920Y-7603340D01*
X6915696Y-7652408D01*
X6952672Y-7660756D01*
X7016389Y-7675252D01*
X7074329Y-7688391D01*
X7121766Y-7699104D01*
X7153974Y-7706323D01*
X7163377Y-7708393D01*
X7186376Y-7717292D01*
X7195127Y-7727837D01*
X8101871Y-7727837D01*
X7904799Y-7659121D01*
X7732073Y-7602761D01*
X7666914Y-7582172D01*
X7609833Y-7563954D01*
X7564289Y-7549227D01*
X7533739Y-7539109D01*
X7521642Y-7534717D01*
X7521594Y-7534679D01*
X7523430Y-7522636D01*
X7531537Y-7492012D01*
X7544881Y-7446128D01*
X7562428Y-7388308D01*
X7583143Y-7321875D01*
X7605991Y-7250152D01*
X7629940Y-7176462D01*
X7653953Y-7104127D01*
X7673676Y-7046096D01*
X7740460Y-6861831D01*
X7811144Y-6687135D01*
X7889665Y-6512752D01*
X7970356Y-6348288D01*
X8084908Y-6137154D01*
X8202735Y-5948869D01*
X8323838Y-5783433D01*
X8448213Y-5640849D01*
X8575859Y-5521118D01*
X8706775Y-5424243D01*
X8791364Y-5374719D01*
X8869372Y-5336056D01*
X8937163Y-5308749D01*
X9002837Y-5290088D01*
X9074492Y-5277365D01*
X9087671Y-5275620D01*
X9207429Y-5270696D01*
X9327027Y-5286744D01*
X9447505Y-5324134D01*
X9569901Y-5383235D01*
X9695254Y-5464417D01*
X9761692Y-5515272D01*
X9840211Y-5578399D01*
X9888692Y-5527796D01*
X9924895Y-5492061D01*
X9963894Y-5456599D01*
X9983354Y-5440273D01*
X10029536Y-5403354D01*
X9966036Y-5345329D01*
X9917227Y-5304232D01*
X9856696Y-5258489D01*
X9790374Y-5212114D01*
X9724193Y-5169119D01*
X9664086Y-5133516D01*
X9619208Y-5110722D01*
X9577428Y-5093541D01*
X9523863Y-5073283D01*
X9468753Y-5053795D01*
X9457973Y-5050171D01*
X9419009Y-5037726D01*
X9385536Y-5028920D01*
X9352160Y-5023133D01*
X9313489Y-5019745D01*
X9264129Y-5018137D01*
X9198688Y-5017690D01*
X9175172Y-5017689D01*
X9102897Y-5018071D01*
G36*
X8562810Y-18234024D02*
X8553028Y-18263705D01*
X8547963Y-18281650D01*
X8537858Y-18300984D01*
X8528050Y-18313400D01*
X8513871Y-18331808D01*
X8510798Y-18338800D01*
X8505623Y-18357147D01*
X8491251Y-18394172D01*
X8469364Y-18445601D01*
X8463253Y-18459450D01*
X8449163Y-18491778D01*
X8440366Y-18513101D01*
X8439150Y-18516600D01*
X8433490Y-18531100D01*
X8421075Y-18560077D01*
X8415048Y-18573750D01*
X8388108Y-18634872D01*
X8370658Y-18675508D01*
X8363253Y-18694364D01*
X8363243Y-18694400D01*
X8357402Y-18708906D01*
X8344878Y-18737893D01*
X8338848Y-18751550D01*
X8311043Y-18814652D01*
X8293821Y-18854905D01*
X8287175Y-18872200D01*
X8281343Y-18886502D01*
X8268380Y-18915870D01*
X8259408Y-18935700D01*
X8235401Y-18990340D01*
X8222544Y-19024837D01*
X8220012Y-19041444D01*
X8220423Y-19042449D01*
X8214998Y-19054215D01*
X8199057Y-19074066D01*
X8184992Y-19092947D01*
X8185150Y-19100800D01*
X8185963Y-19108478D01*
X8175324Y-19123025D01*
X8159059Y-19144056D01*
X8153958Y-19154641D01*
X8145774Y-19183374D01*
X8125977Y-19232126D01*
X8110893Y-19265900D01*
X8095648Y-19300647D01*
X8085939Y-19325297D01*
X8084190Y-19331516D01*
X8078135Y-19347687D01*
X8066323Y-19344170D01*
X8052084Y-19324998D01*
X8038750Y-19294201D01*
X8031777Y-19268083D01*
X8023732Y-19241838D01*
X8018951Y-19229983D01*
X8009852Y-19208731D01*
X8007383Y-19202400D01*
X8000971Y-19185597D01*
X7989184Y-19155850D01*
X7976244Y-19123729D01*
X7966796Y-19100800D01*
X7958458Y-19080443D01*
X7956550Y-19075400D01*
X7950114Y-19059674D01*
X7944950Y-19047816D01*
X7935288Y-19020101D01*
X7932990Y-19009716D01*
X7924201Y-18984346D01*
X7918461Y-18973800D01*
X7906018Y-18944503D01*
X7902690Y-18930346D01*
X7894124Y-18902629D01*
X7888103Y-18892246D01*
X7877645Y-18872058D01*
X7864865Y-18838610D01*
X7861300Y-18827750D01*
X7848947Y-18792822D01*
X7837795Y-18768086D01*
X7835325Y-18764250D01*
X7825739Y-18747987D01*
X7825100Y-18745200D01*
X7823945Y-18738446D01*
X7819781Y-18725015D01*
X7810951Y-18700170D01*
X7795795Y-18659171D01*
X7782864Y-18624550D01*
X7767908Y-18584260D01*
X7757018Y-18554337D01*
X7752788Y-18542000D01*
X7747283Y-18526572D01*
X7735851Y-18497135D01*
X7722225Y-18463174D01*
X7712796Y-18440400D01*
X7704846Y-18420068D01*
X7703251Y-18415000D01*
X7698231Y-18400996D01*
X7686225Y-18369437D01*
X7669553Y-18326401D01*
X7664473Y-18313400D01*
X7647396Y-18267847D01*
X7635184Y-18231532D01*
X7629910Y-18210752D01*
X7629945Y-18208625D01*
X7619212Y-18204882D01*
X7587970Y-18201830D01*
X7541106Y-18199795D01*
X7486651Y-18199100D01*
X7427655Y-18200068D01*
X7380559Y-18202722D01*
X7350038Y-18206679D01*
X7340600Y-18210973D01*
X7344773Y-18231180D01*
X7351779Y-18252248D01*
X7360903Y-18278583D01*
X7364222Y-18291308D01*
X7370449Y-18308299D01*
X7383867Y-18336497D01*
X7385050Y-18338800D01*
X7398817Y-18367397D01*
X7405767Y-18385640D01*
X7405879Y-18386291D01*
X7410810Y-18404499D01*
X7418699Y-18427700D01*
X7431268Y-18462664D01*
X7437545Y-18481777D01*
X7440101Y-18492990D01*
X7440326Y-18494508D01*
X7446620Y-18511493D01*
X7460078Y-18539719D01*
X7461319Y-18542133D01*
X7472188Y-18567429D01*
X7473182Y-18579842D01*
X7472308Y-18580100D01*
X7473183Y-18587958D01*
X7486650Y-18605500D01*
X7500562Y-18623827D01*
X7500993Y-18630900D01*
X7500257Y-18640615D01*
X7509753Y-18664444D01*
X7511982Y-18668866D01*
X7524936Y-18695377D01*
X7530488Y-18709683D01*
X7530465Y-18710141D01*
X7533672Y-18723102D01*
X7543009Y-18750646D01*
X7555279Y-18783733D01*
X7565305Y-18808700D01*
X7573144Y-18829023D01*
X7574648Y-18834100D01*
X7581536Y-18849606D01*
X7583579Y-18853150D01*
X7591431Y-18871537D01*
X7603689Y-18905679D01*
X7613650Y-18935700D01*
X7627167Y-18975972D01*
X7638545Y-19006712D01*
X7643722Y-19018250D01*
X7652024Y-19035193D01*
X7652620Y-19037300D01*
X7657747Y-19052371D01*
X7668436Y-19080166D01*
X7669066Y-19081750D01*
X7683515Y-19118755D01*
X7690370Y-19139205D01*
X7691800Y-19149995D01*
X7691409Y-19152823D01*
X7696956Y-19167949D01*
X7704045Y-19178223D01*
X7715628Y-19199745D01*
X7730436Y-19236306D01*
X7740650Y-19265900D01*
X7754450Y-19306204D01*
X7766554Y-19336951D01*
X7772426Y-19348450D01*
X7781948Y-19367922D01*
X7794203Y-19400890D01*
X7797813Y-19411950D01*
X7809600Y-19446827D01*
X7819364Y-19471563D01*
X7821336Y-19475450D01*
X7830617Y-19498207D01*
X7831202Y-19500850D01*
X7837391Y-19519869D01*
X7849851Y-19551445D01*
X7853930Y-19561114D01*
X7866635Y-19592468D01*
X7873484Y-19612642D01*
X7873888Y-19615222D01*
X7878880Y-19629860D01*
X7891579Y-19656732D01*
X7893050Y-19659600D01*
X7906817Y-19688197D01*
X7913767Y-19706440D01*
X7913879Y-19707091D01*
X7919298Y-19726626D01*
X7930652Y-19759328D01*
X7944314Y-19794837D01*
X7946146Y-19799300D01*
X7955202Y-19823959D01*
X7957303Y-19831050D01*
X7964169Y-19849779D01*
X7977483Y-19881570D01*
X7983188Y-19894550D01*
X7997235Y-19926863D01*
X8005870Y-19948188D01*
X8007001Y-19951700D01*
X8014204Y-19964951D01*
X8031403Y-19992119D01*
X8045872Y-20013924D01*
X8069901Y-20049728D01*
X8089471Y-20079183D01*
X8096250Y-20089558D01*
X8118639Y-20119423D01*
X8148405Y-20152967D01*
X8179805Y-20184455D01*
X8207097Y-20208157D01*
X8224540Y-20218340D01*
X8225317Y-20218400D01*
X8240861Y-20224861D01*
X8242300Y-20229199D01*
X8252747Y-20239428D01*
X8279628Y-20256607D01*
X8316251Y-20277176D01*
X8355928Y-20297576D01*
X8391967Y-20314247D01*
X8417678Y-20323630D01*
X8421124Y-20324340D01*
X8446521Y-20331828D01*
X8451850Y-20334485D01*
X8470182Y-20338526D01*
X8506224Y-20342070D01*
X8552287Y-20344369D01*
X8553780Y-20344412D01*
X8643010Y-20346919D01*
X8642532Y-20226419D01*
X8641713Y-20173743D01*
X8639905Y-20131378D01*
X8637420Y-20105219D01*
X8635852Y-20099851D01*
X8620787Y-20095050D01*
X8588532Y-20089094D01*
X8559800Y-20085049D01*
X8518004Y-20077916D01*
X8485634Y-20068971D01*
X8474075Y-20063253D01*
X8460528Y-20056649D01*
X8458200Y-20059650D01*
X8450312Y-20060561D01*
X8437796Y-20052175D01*
X8409118Y-20032277D01*
X8390713Y-20021941D01*
X8367504Y-20003693D01*
X8339883Y-19973064D01*
X8328572Y-19957945D01*
X8302371Y-19917762D01*
X8274588Y-19870762D01*
X8247953Y-19822196D01*
X8225196Y-19777320D01*
X8209048Y-19741386D01*
X8202237Y-19719649D01*
X8202839Y-19715995D01*
X8211153Y-19699928D01*
X8211162Y-19699816D01*
X8216501Y-19684787D01*
X8229875Y-19653710D01*
X8247535Y-19615150D01*
X8266226Y-19573933D01*
X8279981Y-19540992D01*
X8285580Y-19524356D01*
X8295184Y-19502322D01*
X8302102Y-19492606D01*
X8315233Y-19472868D01*
X8317768Y-19466058D01*
X8326622Y-19435936D01*
X8347315Y-19385390D01*
X8361008Y-19354800D01*
X8376246Y-19320548D01*
X8386051Y-19296909D01*
X8387906Y-19291300D01*
X8394616Y-19276435D01*
X8400888Y-19265900D01*
X8412568Y-19242558D01*
X8414993Y-19234150D01*
X8421074Y-19215881D01*
X8434331Y-19183728D01*
X8442962Y-19164300D01*
X8481117Y-19080030D01*
X8513675Y-19007242D01*
X8539399Y-18948751D01*
X8557054Y-18907370D01*
X8565402Y-18885915D01*
X8565698Y-18884900D01*
X8571560Y-18870995D01*
X8585271Y-18840777D01*
X8603135Y-18802350D01*
X8621757Y-18761496D01*
X8635429Y-18729294D01*
X8640981Y-18713450D01*
X8649153Y-18692356D01*
X8655213Y-18681700D01*
X8666154Y-18662156D01*
X8668328Y-18656300D01*
X8673631Y-18641810D01*
X8685833Y-18612855D01*
X8691853Y-18599150D01*
X8717561Y-18540863D01*
X8733843Y-18502932D01*
X8741859Y-18482624D01*
X8743081Y-18478500D01*
X8750171Y-18463610D01*
X8756488Y-18453100D01*
X8768238Y-18429749D01*
X8770720Y-18421350D01*
X8776875Y-18404004D01*
X8790919Y-18371101D01*
X8808566Y-18332450D01*
X8826881Y-18292419D01*
X8839988Y-18261854D01*
X8844939Y-18247783D01*
X8853247Y-18231764D01*
X8855075Y-18229791D01*
X8863394Y-18217199D01*
X8857157Y-18208438D01*
X8833702Y-18202904D01*
X8790368Y-18199994D01*
X8724492Y-18199102D01*
X8719793Y-18199099D01*
X8574985Y-18199099D01*
X8562810Y-18234024D01*
X8562810Y-18234024D01*
G37*
X8562810Y-18234024D02*
X8553028Y-18263705D01*
X8547963Y-18281650D01*
X8537858Y-18300984D01*
X8528050Y-18313400D01*
X8513871Y-18331808D01*
X8510798Y-18338800D01*
X8505623Y-18357147D01*
X8491251Y-18394172D01*
X8469364Y-18445601D01*
X8463253Y-18459450D01*
X8449163Y-18491778D01*
X8440366Y-18513101D01*
X8439150Y-18516600D01*
X8433490Y-18531100D01*
X8421075Y-18560077D01*
X8415048Y-18573750D01*
X8388108Y-18634872D01*
X8370658Y-18675508D01*
X8363253Y-18694364D01*
X8363243Y-18694400D01*
X8357402Y-18708906D01*
X8344878Y-18737893D01*
X8338848Y-18751550D01*
X8311043Y-18814652D01*
X8293821Y-18854905D01*
X8287175Y-18872200D01*
X8281343Y-18886502D01*
X8268380Y-18915870D01*
X8259408Y-18935700D01*
X8235401Y-18990340D01*
X8222544Y-19024837D01*
X8220012Y-19041444D01*
X8220423Y-19042449D01*
X8214998Y-19054215D01*
X8199057Y-19074066D01*
X8184992Y-19092947D01*
X8185150Y-19100800D01*
X8185963Y-19108478D01*
X8175324Y-19123025D01*
X8159059Y-19144056D01*
X8153958Y-19154641D01*
X8145774Y-19183374D01*
X8125977Y-19232126D01*
X8110893Y-19265900D01*
X8095648Y-19300647D01*
X8085939Y-19325297D01*
X8084190Y-19331516D01*
X8078135Y-19347687D01*
X8066323Y-19344170D01*
X8052084Y-19324998D01*
X8038750Y-19294201D01*
X8031777Y-19268083D01*
X8023732Y-19241838D01*
X8018951Y-19229983D01*
X8009852Y-19208731D01*
X8007383Y-19202400D01*
X8000971Y-19185597D01*
X7989184Y-19155850D01*
X7976244Y-19123729D01*
X7966796Y-19100800D01*
X7958458Y-19080443D01*
X7956550Y-19075400D01*
X7950114Y-19059674D01*
X7944950Y-19047816D01*
X7935288Y-19020101D01*
X7932990Y-19009716D01*
X7924201Y-18984346D01*
X7918461Y-18973800D01*
X7906018Y-18944503D01*
X7902690Y-18930346D01*
X7894124Y-18902629D01*
X7888103Y-18892246D01*
X7877645Y-18872058D01*
X7864865Y-18838610D01*
X7861300Y-18827750D01*
X7848947Y-18792822D01*
X7837795Y-18768086D01*
X7835325Y-18764250D01*
X7825739Y-18747987D01*
X7825100Y-18745200D01*
X7823945Y-18738446D01*
X7819781Y-18725015D01*
X7810951Y-18700170D01*
X7795795Y-18659171D01*
X7782864Y-18624550D01*
X7767908Y-18584260D01*
X7757018Y-18554337D01*
X7752788Y-18542000D01*
X7747283Y-18526572D01*
X7735851Y-18497135D01*
X7722225Y-18463174D01*
X7712796Y-18440400D01*
X7704846Y-18420068D01*
X7703251Y-18415000D01*
X7698231Y-18400996D01*
X7686225Y-18369437D01*
X7669553Y-18326401D01*
X7664473Y-18313400D01*
X7647396Y-18267847D01*
X7635184Y-18231532D01*
X7629910Y-18210752D01*
X7629945Y-18208625D01*
X7619212Y-18204882D01*
X7587970Y-18201830D01*
X7541106Y-18199795D01*
X7486651Y-18199100D01*
X7427655Y-18200068D01*
X7380559Y-18202722D01*
X7350038Y-18206679D01*
X7340600Y-18210973D01*
X7344773Y-18231180D01*
X7351779Y-18252248D01*
X7360903Y-18278583D01*
X7364222Y-18291308D01*
X7370449Y-18308299D01*
X7383867Y-18336497D01*
X7385050Y-18338800D01*
X7398817Y-18367397D01*
X7405767Y-18385640D01*
X7405879Y-18386291D01*
X7410810Y-18404499D01*
X7418699Y-18427700D01*
X7431268Y-18462664D01*
X7437545Y-18481777D01*
X7440101Y-18492990D01*
X7440326Y-18494508D01*
X7446620Y-18511493D01*
X7460078Y-18539719D01*
X7461319Y-18542133D01*
X7472188Y-18567429D01*
X7473182Y-18579842D01*
X7472308Y-18580100D01*
X7473183Y-18587958D01*
X7486650Y-18605500D01*
X7500562Y-18623827D01*
X7500993Y-18630900D01*
X7500257Y-18640615D01*
X7509753Y-18664444D01*
X7511982Y-18668866D01*
X7524936Y-18695377D01*
X7530488Y-18709683D01*
X7530465Y-18710141D01*
X7533672Y-18723102D01*
X7543009Y-18750646D01*
X7555279Y-18783733D01*
X7565305Y-18808700D01*
X7573144Y-18829023D01*
X7574648Y-18834100D01*
X7581536Y-18849606D01*
X7583579Y-18853150D01*
X7591431Y-18871537D01*
X7603689Y-18905679D01*
X7613650Y-18935700D01*
X7627167Y-18975972D01*
X7638545Y-19006712D01*
X7643722Y-19018250D01*
X7652024Y-19035193D01*
X7652620Y-19037300D01*
X7657747Y-19052371D01*
X7668436Y-19080166D01*
X7669066Y-19081750D01*
X7683515Y-19118755D01*
X7690370Y-19139205D01*
X7691800Y-19149995D01*
X7691409Y-19152823D01*
X7696956Y-19167949D01*
X7704045Y-19178223D01*
X7715628Y-19199745D01*
X7730436Y-19236306D01*
X7740650Y-19265900D01*
X7754450Y-19306204D01*
X7766554Y-19336951D01*
X7772426Y-19348450D01*
X7781948Y-19367922D01*
X7794203Y-19400890D01*
X7797813Y-19411950D01*
X7809600Y-19446827D01*
X7819364Y-19471563D01*
X7821336Y-19475450D01*
X7830617Y-19498207D01*
X7831202Y-19500850D01*
X7837391Y-19519869D01*
X7849851Y-19551445D01*
X7853930Y-19561114D01*
X7866635Y-19592468D01*
X7873484Y-19612642D01*
X7873888Y-19615222D01*
X7878880Y-19629860D01*
X7891579Y-19656732D01*
X7893050Y-19659600D01*
X7906817Y-19688197D01*
X7913767Y-19706440D01*
X7913879Y-19707091D01*
X7919298Y-19726626D01*
X7930652Y-19759328D01*
X7944314Y-19794837D01*
X7946146Y-19799300D01*
X7955202Y-19823959D01*
X7957303Y-19831050D01*
X7964169Y-19849779D01*
X7977483Y-19881570D01*
X7983188Y-19894550D01*
X7997235Y-19926863D01*
X8005870Y-19948188D01*
X8007001Y-19951700D01*
X8014204Y-19964951D01*
X8031403Y-19992119D01*
X8045872Y-20013924D01*
X8069901Y-20049728D01*
X8089471Y-20079183D01*
X8096250Y-20089558D01*
X8118639Y-20119423D01*
X8148405Y-20152967D01*
X8179805Y-20184455D01*
X8207097Y-20208157D01*
X8224540Y-20218340D01*
X8225317Y-20218400D01*
X8240861Y-20224861D01*
X8242300Y-20229199D01*
X8252747Y-20239428D01*
X8279628Y-20256607D01*
X8316251Y-20277176D01*
X8355928Y-20297576D01*
X8391967Y-20314247D01*
X8417678Y-20323630D01*
X8421124Y-20324340D01*
X8446521Y-20331828D01*
X8451850Y-20334485D01*
X8470182Y-20338526D01*
X8506224Y-20342070D01*
X8552287Y-20344369D01*
X8553780Y-20344412D01*
X8643010Y-20346919D01*
X8642532Y-20226419D01*
X8641713Y-20173743D01*
X8639905Y-20131378D01*
X8637420Y-20105219D01*
X8635852Y-20099851D01*
X8620787Y-20095050D01*
X8588532Y-20089094D01*
X8559800Y-20085049D01*
X8518004Y-20077916D01*
X8485634Y-20068971D01*
X8474075Y-20063253D01*
X8460528Y-20056649D01*
X8458200Y-20059650D01*
X8450312Y-20060561D01*
X8437796Y-20052175D01*
X8409118Y-20032277D01*
X8390713Y-20021941D01*
X8367504Y-20003693D01*
X8339883Y-19973064D01*
X8328572Y-19957945D01*
X8302371Y-19917762D01*
X8274588Y-19870762D01*
X8247953Y-19822196D01*
X8225196Y-19777320D01*
X8209048Y-19741386D01*
X8202237Y-19719649D01*
X8202839Y-19715995D01*
X8211153Y-19699928D01*
X8211162Y-19699816D01*
X8216501Y-19684787D01*
X8229875Y-19653710D01*
X8247535Y-19615150D01*
X8266226Y-19573933D01*
X8279981Y-19540992D01*
X8285580Y-19524356D01*
X8295184Y-19502322D01*
X8302102Y-19492606D01*
X8315233Y-19472868D01*
X8317768Y-19466058D01*
X8326622Y-19435936D01*
X8347315Y-19385390D01*
X8361008Y-19354800D01*
X8376246Y-19320548D01*
X8386051Y-19296909D01*
X8387906Y-19291300D01*
X8394616Y-19276435D01*
X8400888Y-19265900D01*
X8412568Y-19242558D01*
X8414993Y-19234150D01*
X8421074Y-19215881D01*
X8434331Y-19183728D01*
X8442962Y-19164300D01*
X8481117Y-19080030D01*
X8513675Y-19007242D01*
X8539399Y-18948751D01*
X8557054Y-18907370D01*
X8565402Y-18885915D01*
X8565698Y-18884900D01*
X8571560Y-18870995D01*
X8585271Y-18840777D01*
X8603135Y-18802350D01*
X8621757Y-18761496D01*
X8635429Y-18729294D01*
X8640981Y-18713450D01*
X8649153Y-18692356D01*
X8655213Y-18681700D01*
X8666154Y-18662156D01*
X8668328Y-18656300D01*
X8673631Y-18641810D01*
X8685833Y-18612855D01*
X8691853Y-18599150D01*
X8717561Y-18540863D01*
X8733843Y-18502932D01*
X8741859Y-18482624D01*
X8743081Y-18478500D01*
X8750171Y-18463610D01*
X8756488Y-18453100D01*
X8768238Y-18429749D01*
X8770720Y-18421350D01*
X8776875Y-18404004D01*
X8790919Y-18371101D01*
X8808566Y-18332450D01*
X8826881Y-18292419D01*
X8839988Y-18261854D01*
X8844939Y-18247783D01*
X8853247Y-18231764D01*
X8855075Y-18229791D01*
X8863394Y-18217199D01*
X8857157Y-18208438D01*
X8833702Y-18202904D01*
X8790368Y-18199994D01*
X8724492Y-18199102D01*
X8719793Y-18199099D01*
X8574985Y-18199099D01*
X8562810Y-18234024D01*
G36*
X8382000Y-20008850D02*
X8388350Y-20015200D01*
X8394700Y-20008850D01*
X8388350Y-20002500D01*
X8382000Y-20008850D01*
X8382000Y-20008850D01*
G37*
X8382000Y-20008850D02*
X8388350Y-20015200D01*
X8394700Y-20008850D01*
X8388350Y-20002500D01*
X8382000Y-20008850D01*
G36*
X7159301Y-19387794D02*
X7129639Y-19393760D01*
X7104963Y-19408650D01*
X7075072Y-19436556D01*
X7071944Y-19439679D01*
X7041105Y-19473068D01*
X7024703Y-19500986D01*
X7017700Y-19534269D01*
X7015970Y-19560090D01*
X7019137Y-19622245D01*
X7037757Y-19672077D01*
X7075747Y-19719205D01*
X7084128Y-19727368D01*
X7128721Y-19754923D01*
X7185335Y-19769846D01*
X7243615Y-19770704D01*
X7292794Y-19756285D01*
X7328870Y-19735348D01*
X7357592Y-19716159D01*
X7373884Y-19702399D01*
X7373621Y-19697700D01*
X7371666Y-19689867D01*
X7379728Y-19677411D01*
X7398888Y-19639427D01*
X7407963Y-19590118D01*
X7406693Y-19539274D01*
X7394819Y-19496686D01*
X7384933Y-19481669D01*
X7371937Y-19463481D01*
X7373330Y-19456400D01*
X7370658Y-19450115D01*
X7351470Y-19434047D01*
X7334024Y-19421475D01*
X7298928Y-19400694D01*
X7263997Y-19390129D01*
X7217903Y-19386744D01*
X7204150Y-19386662D01*
X7159301Y-19387794D01*
X7159301Y-19387794D01*
G37*
X7159301Y-19387794D02*
X7129639Y-19393760D01*
X7104963Y-19408650D01*
X7075072Y-19436556D01*
X7071944Y-19439679D01*
X7041105Y-19473068D01*
X7024703Y-19500986D01*
X7017700Y-19534269D01*
X7015970Y-19560090D01*
X7019137Y-19622245D01*
X7037757Y-19672077D01*
X7075747Y-19719205D01*
X7084128Y-19727368D01*
X7128721Y-19754923D01*
X7185335Y-19769846D01*
X7243615Y-19770704D01*
X7292794Y-19756285D01*
X7328870Y-19735348D01*
X7357592Y-19716159D01*
X7373884Y-19702399D01*
X7373621Y-19697700D01*
X7371666Y-19689867D01*
X7379728Y-19677411D01*
X7398888Y-19639427D01*
X7407963Y-19590118D01*
X7406693Y-19539274D01*
X7394819Y-19496686D01*
X7384933Y-19481669D01*
X7371937Y-19463481D01*
X7373330Y-19456400D01*
X7370658Y-19450115D01*
X7351470Y-19434047D01*
X7334024Y-19421475D01*
X7298928Y-19400694D01*
X7263997Y-19390129D01*
X7217903Y-19386744D01*
X7204150Y-19386662D01*
X7159301Y-19387794D01*
G36*
X5966649Y-18167538D02*
X5885886Y-18174420D01*
X5813882Y-18190084D01*
X5742555Y-18216462D01*
X5663826Y-18255486D01*
X5638800Y-18269252D01*
X5617533Y-18284781D01*
X5585665Y-18312260D01*
X5547717Y-18347275D01*
X5508210Y-18385414D01*
X5471664Y-18422263D01*
X5442599Y-18453410D01*
X5425534Y-18474442D01*
X5422900Y-18480032D01*
X5416326Y-18495867D01*
X5399803Y-18523762D01*
X5391706Y-18536039D01*
X5367215Y-18579152D01*
X5341423Y-18635381D01*
X5318911Y-18693711D01*
X5304259Y-18743127D01*
X5302937Y-18749539D01*
X5298018Y-18771176D01*
X5295584Y-18776950D01*
X5291161Y-18788638D01*
X5287462Y-18819669D01*
X5284626Y-18863994D01*
X5282793Y-18915562D01*
X5282104Y-18968322D01*
X5282699Y-19016225D01*
X5284716Y-19053222D01*
X5288298Y-19073260D01*
X5288713Y-19074044D01*
X5299947Y-19077557D01*
X5329633Y-19080524D01*
X5378780Y-19082968D01*
X5448396Y-19084909D01*
X5539490Y-19086371D01*
X5653072Y-19087375D01*
X5790149Y-19087943D01*
X5931831Y-19088100D01*
X6566263Y-19088100D01*
X6559083Y-19128855D01*
X6549972Y-19162573D01*
X6538296Y-19186005D01*
X6530130Y-19199917D01*
X6531842Y-19202400D01*
X6533756Y-19211383D01*
X6523002Y-19234910D01*
X6502975Y-19267848D01*
X6477070Y-19305064D01*
X6448681Y-19341424D01*
X6421202Y-19371796D01*
X6417385Y-19375502D01*
X6386918Y-19399374D01*
X6343634Y-19427358D01*
X6295706Y-19454797D01*
X6251307Y-19477036D01*
X6218612Y-19489418D01*
X6216650Y-19489863D01*
X6194222Y-19494184D01*
X6178550Y-19497044D01*
X6150922Y-19504733D01*
X6139972Y-19509825D01*
X6121508Y-19513526D01*
X6084965Y-19515899D01*
X6037628Y-19516967D01*
X5986781Y-19516755D01*
X5939710Y-19515288D01*
X5903699Y-19512591D01*
X5886450Y-19508961D01*
X5863655Y-19500762D01*
X5849749Y-19497851D01*
X5809580Y-19485919D01*
X5761351Y-19464070D01*
X5716887Y-19438196D01*
X5693307Y-19419875D01*
X5671227Y-19400834D01*
X5657484Y-19392900D01*
X5657474Y-19392900D01*
X5643238Y-19384975D01*
X5630636Y-19373850D01*
X5618409Y-19358866D01*
X5618759Y-19354800D01*
X5616539Y-19346620D01*
X5601490Y-19326709D01*
X5599609Y-19324525D01*
X5579312Y-19304615D01*
X5561121Y-19302133D01*
X5536446Y-19312630D01*
X5508759Y-19328633D01*
X5492929Y-19341822D01*
X5492756Y-19342090D01*
X5478417Y-19353219D01*
X5448178Y-19370817D01*
X5416582Y-19387091D01*
X5378137Y-19407315D01*
X5359639Y-19424320D01*
X5360383Y-19444017D01*
X5379665Y-19472314D01*
X5403149Y-19499650D01*
X5424071Y-19525983D01*
X5435097Y-19544820D01*
X5435600Y-19547275D01*
X5446046Y-19556512D01*
X5456767Y-19558000D01*
X5470949Y-19561624D01*
X5470072Y-19565861D01*
X5471171Y-19579207D01*
X5485280Y-19596359D01*
X5503747Y-19607858D01*
X5509338Y-19608800D01*
X5526792Y-19617517D01*
X5536733Y-19627286D01*
X5556199Y-19642417D01*
X5591586Y-19663441D01*
X5635755Y-19686797D01*
X5681570Y-19708926D01*
X5721895Y-19726267D01*
X5749590Y-19735261D01*
X5754271Y-19735800D01*
X5777337Y-19740830D01*
X5783101Y-19744634D01*
X5793390Y-19751576D01*
X5810963Y-19756719D01*
X5839846Y-19760500D01*
X5884061Y-19763353D01*
X5947635Y-19765716D01*
X5988050Y-19766853D01*
X6054105Y-19767574D01*
X6116711Y-19766454D01*
X6168190Y-19763732D01*
X6197600Y-19760313D01*
X6256205Y-19749140D01*
X6296470Y-19740204D01*
X6325110Y-19731561D01*
X6348838Y-19721268D01*
X6367917Y-19711036D01*
X6396672Y-19696950D01*
X6414811Y-19691896D01*
X6416824Y-19692557D01*
X6428280Y-19689089D01*
X6438646Y-19678956D01*
X6459259Y-19662701D01*
X6470237Y-19659600D01*
X6489717Y-19650947D01*
X6508750Y-19634200D01*
X6531057Y-19615160D01*
X6546672Y-19608800D01*
X6562087Y-19600162D01*
X6589166Y-19577332D01*
X6622508Y-19544932D01*
X6628272Y-19538950D01*
X6658569Y-19505989D01*
X6678953Y-19481408D01*
X6685873Y-19469564D01*
X6685193Y-19469100D01*
X6686870Y-19461148D01*
X6702587Y-19441141D01*
X6711950Y-19431000D01*
X6731952Y-19407799D01*
X6739285Y-19394297D01*
X6737758Y-19392900D01*
X6736351Y-19385071D01*
X6746152Y-19370675D01*
X6766347Y-19340629D01*
X6777446Y-19311839D01*
X6778038Y-19304000D01*
X6782982Y-19289262D01*
X6793242Y-19268250D01*
X6807179Y-19237248D01*
X6813378Y-19217450D01*
X6818959Y-19191746D01*
X6827367Y-19154425D01*
X6829786Y-19143872D01*
X6835020Y-19105839D01*
X6838048Y-19051544D01*
X6839001Y-18987492D01*
X6838011Y-18920192D01*
X6835357Y-18859500D01*
X6567426Y-18859500D01*
X6057807Y-18859500D01*
X5930787Y-18859472D01*
X5826890Y-18859313D01*
X5743839Y-18858908D01*
X5679356Y-18858143D01*
X5631163Y-18856901D01*
X5596985Y-18855068D01*
X5574542Y-18852531D01*
X5561559Y-18849173D01*
X5555759Y-18844879D01*
X5554862Y-18839536D01*
X5556216Y-18834208D01*
X5564749Y-18801842D01*
X5570524Y-18774278D01*
X5579998Y-18742353D01*
X5590308Y-18723369D01*
X5598390Y-18709531D01*
X5596659Y-18707100D01*
X5596320Y-18697972D01*
X5607610Y-18674433D01*
X5626728Y-18642245D01*
X5649872Y-18607171D01*
X5673242Y-18574975D01*
X5693035Y-18551420D01*
X5705379Y-18542271D01*
X5720647Y-18534511D01*
X5744556Y-18516129D01*
X5745520Y-18515295D01*
X5768323Y-18498174D01*
X5781988Y-18492860D01*
X5782383Y-18493070D01*
X5795374Y-18489272D01*
X5812092Y-18477123D01*
X5834653Y-18462307D01*
X5864533Y-18448024D01*
X5893606Y-18437404D01*
X5913747Y-18433574D01*
X5918200Y-18436265D01*
X5925942Y-18435989D01*
X5934571Y-18429924D01*
X5953892Y-18424524D01*
X5991252Y-18421380D01*
X6039392Y-18420449D01*
X6091055Y-18421687D01*
X6138983Y-18425051D01*
X6175918Y-18430498D01*
X6179675Y-18431392D01*
X6251215Y-18451749D01*
X6300264Y-18470903D01*
X6329622Y-18489988D01*
X6332714Y-18493148D01*
X6352842Y-18511149D01*
X6364572Y-18516600D01*
X6384667Y-18526212D01*
X6412893Y-18550796D01*
X6443761Y-18583976D01*
X6471777Y-18619372D01*
X6491452Y-18650607D01*
X6497381Y-18670841D01*
X6504026Y-18685204D01*
X6520244Y-18705766D01*
X6534782Y-18724693D01*
X6535672Y-18732500D01*
X6534065Y-18741824D01*
X6541438Y-18759650D01*
X6554595Y-18793398D01*
X6561697Y-18823150D01*
X6567426Y-18859500D01*
X6835357Y-18859500D01*
X6835210Y-18856149D01*
X6830729Y-18801871D01*
X6824701Y-18763864D01*
X6821905Y-18754725D01*
X6813865Y-18730203D01*
X6814113Y-18719802D01*
X6814191Y-18719800D01*
X6813381Y-18710030D01*
X6803071Y-18686074D01*
X6800850Y-18681700D01*
X6789946Y-18656349D01*
X6788904Y-18643870D01*
X6789793Y-18643600D01*
X6788918Y-18635741D01*
X6775450Y-18618200D01*
X6762071Y-18599922D01*
X6762750Y-18592800D01*
X6763400Y-18585076D01*
X6751991Y-18569544D01*
X6738315Y-18549706D01*
X6737401Y-18539833D01*
X6734008Y-18527787D01*
X6718378Y-18510320D01*
X6699401Y-18489249D01*
X6692900Y-18475615D01*
X6683820Y-18457940D01*
X6659746Y-18428971D01*
X6625433Y-18393390D01*
X6585633Y-18355880D01*
X6545098Y-18321124D01*
X6508583Y-18293805D01*
X6507928Y-18293368D01*
X6446698Y-18256293D01*
X6383990Y-18224566D01*
X6327867Y-18202004D01*
X6297802Y-18193885D01*
X6274696Y-18188946D01*
X6267450Y-18186372D01*
X6255040Y-18180503D01*
X6218954Y-18175379D01*
X6160910Y-18171161D01*
X6082626Y-18168006D01*
X6064250Y-18167506D01*
X5966649Y-18167538D01*
X5966649Y-18167538D01*
G37*
X5966649Y-18167538D02*
X5885886Y-18174420D01*
X5813882Y-18190084D01*
X5742555Y-18216462D01*
X5663826Y-18255486D01*
X5638800Y-18269252D01*
X5617533Y-18284781D01*
X5585665Y-18312260D01*
X5547717Y-18347275D01*
X5508210Y-18385414D01*
X5471664Y-18422263D01*
X5442599Y-18453410D01*
X5425534Y-18474442D01*
X5422900Y-18480032D01*
X5416326Y-18495867D01*
X5399803Y-18523762D01*
X5391706Y-18536039D01*
X5367215Y-18579152D01*
X5341423Y-18635381D01*
X5318911Y-18693711D01*
X5304259Y-18743127D01*
X5302937Y-18749539D01*
X5298018Y-18771176D01*
X5295584Y-18776950D01*
X5291161Y-18788638D01*
X5287462Y-18819669D01*
X5284626Y-18863994D01*
X5282793Y-18915562D01*
X5282104Y-18968322D01*
X5282699Y-19016225D01*
X5284716Y-19053222D01*
X5288298Y-19073260D01*
X5288713Y-19074044D01*
X5299947Y-19077557D01*
X5329633Y-19080524D01*
X5378780Y-19082968D01*
X5448396Y-19084909D01*
X5539490Y-19086371D01*
X5653072Y-19087375D01*
X5790149Y-19087943D01*
X5931831Y-19088100D01*
X6566263Y-19088100D01*
X6559083Y-19128855D01*
X6549972Y-19162573D01*
X6538296Y-19186005D01*
X6530130Y-19199917D01*
X6531842Y-19202400D01*
X6533756Y-19211383D01*
X6523002Y-19234910D01*
X6502975Y-19267848D01*
X6477070Y-19305064D01*
X6448681Y-19341424D01*
X6421202Y-19371796D01*
X6417385Y-19375502D01*
X6386918Y-19399374D01*
X6343634Y-19427358D01*
X6295706Y-19454797D01*
X6251307Y-19477036D01*
X6218612Y-19489418D01*
X6216650Y-19489863D01*
X6194222Y-19494184D01*
X6178550Y-19497044D01*
X6150922Y-19504733D01*
X6139972Y-19509825D01*
X6121508Y-19513526D01*
X6084965Y-19515899D01*
X6037628Y-19516967D01*
X5986781Y-19516755D01*
X5939710Y-19515288D01*
X5903699Y-19512591D01*
X5886450Y-19508961D01*
X5863655Y-19500762D01*
X5849749Y-19497851D01*
X5809580Y-19485919D01*
X5761351Y-19464070D01*
X5716887Y-19438196D01*
X5693307Y-19419875D01*
X5671227Y-19400834D01*
X5657484Y-19392900D01*
X5657474Y-19392900D01*
X5643238Y-19384975D01*
X5630636Y-19373850D01*
X5618409Y-19358866D01*
X5618759Y-19354800D01*
X5616539Y-19346620D01*
X5601490Y-19326709D01*
X5599609Y-19324525D01*
X5579312Y-19304615D01*
X5561121Y-19302133D01*
X5536446Y-19312630D01*
X5508759Y-19328633D01*
X5492929Y-19341822D01*
X5492756Y-19342090D01*
X5478417Y-19353219D01*
X5448178Y-19370817D01*
X5416582Y-19387091D01*
X5378137Y-19407315D01*
X5359639Y-19424320D01*
X5360383Y-19444017D01*
X5379665Y-19472314D01*
X5403149Y-19499650D01*
X5424071Y-19525983D01*
X5435097Y-19544820D01*
X5435600Y-19547275D01*
X5446046Y-19556512D01*
X5456767Y-19558000D01*
X5470949Y-19561624D01*
X5470072Y-19565861D01*
X5471171Y-19579207D01*
X5485280Y-19596359D01*
X5503747Y-19607858D01*
X5509338Y-19608800D01*
X5526792Y-19617517D01*
X5536733Y-19627286D01*
X5556199Y-19642417D01*
X5591586Y-19663441D01*
X5635755Y-19686797D01*
X5681570Y-19708926D01*
X5721895Y-19726267D01*
X5749590Y-19735261D01*
X5754271Y-19735800D01*
X5777337Y-19740830D01*
X5783101Y-19744634D01*
X5793390Y-19751576D01*
X5810963Y-19756719D01*
X5839846Y-19760500D01*
X5884061Y-19763353D01*
X5947635Y-19765716D01*
X5988050Y-19766853D01*
X6054105Y-19767574D01*
X6116711Y-19766454D01*
X6168190Y-19763732D01*
X6197600Y-19760313D01*
X6256205Y-19749140D01*
X6296470Y-19740204D01*
X6325110Y-19731561D01*
X6348838Y-19721268D01*
X6367917Y-19711036D01*
X6396672Y-19696950D01*
X6414811Y-19691896D01*
X6416824Y-19692557D01*
X6428280Y-19689089D01*
X6438646Y-19678956D01*
X6459259Y-19662701D01*
X6470237Y-19659600D01*
X6489717Y-19650947D01*
X6508750Y-19634200D01*
X6531057Y-19615160D01*
X6546672Y-19608800D01*
X6562087Y-19600162D01*
X6589166Y-19577332D01*
X6622508Y-19544932D01*
X6628272Y-19538950D01*
X6658569Y-19505989D01*
X6678953Y-19481408D01*
X6685873Y-19469564D01*
X6685193Y-19469100D01*
X6686870Y-19461148D01*
X6702587Y-19441141D01*
X6711950Y-19431000D01*
X6731952Y-19407799D01*
X6739285Y-19394297D01*
X6737758Y-19392900D01*
X6736351Y-19385071D01*
X6746152Y-19370675D01*
X6766347Y-19340629D01*
X6777446Y-19311839D01*
X6778038Y-19304000D01*
X6782982Y-19289262D01*
X6793242Y-19268250D01*
X6807179Y-19237248D01*
X6813378Y-19217450D01*
X6818959Y-19191746D01*
X6827367Y-19154425D01*
X6829786Y-19143872D01*
X6835020Y-19105839D01*
X6838048Y-19051544D01*
X6839001Y-18987492D01*
X6838011Y-18920192D01*
X6835357Y-18859500D01*
X6567426Y-18859500D01*
X6057807Y-18859500D01*
X5930787Y-18859472D01*
X5826890Y-18859313D01*
X5743839Y-18858908D01*
X5679356Y-18858143D01*
X5631163Y-18856901D01*
X5596985Y-18855068D01*
X5574542Y-18852531D01*
X5561559Y-18849173D01*
X5555759Y-18844879D01*
X5554862Y-18839536D01*
X5556216Y-18834208D01*
X5564749Y-18801842D01*
X5570524Y-18774278D01*
X5579998Y-18742353D01*
X5590308Y-18723369D01*
X5598390Y-18709531D01*
X5596659Y-18707100D01*
X5596320Y-18697972D01*
X5607610Y-18674433D01*
X5626728Y-18642245D01*
X5649872Y-18607171D01*
X5673242Y-18574975D01*
X5693035Y-18551420D01*
X5705379Y-18542271D01*
X5720647Y-18534511D01*
X5744556Y-18516129D01*
X5745520Y-18515295D01*
X5768323Y-18498174D01*
X5781988Y-18492860D01*
X5782383Y-18493070D01*
X5795374Y-18489272D01*
X5812092Y-18477123D01*
X5834653Y-18462307D01*
X5864533Y-18448024D01*
X5893606Y-18437404D01*
X5913747Y-18433574D01*
X5918200Y-18436265D01*
X5925942Y-18435989D01*
X5934571Y-18429924D01*
X5953892Y-18424524D01*
X5991252Y-18421380D01*
X6039392Y-18420449D01*
X6091055Y-18421687D01*
X6138983Y-18425051D01*
X6175918Y-18430498D01*
X6179675Y-18431392D01*
X6251215Y-18451749D01*
X6300264Y-18470903D01*
X6329622Y-18489988D01*
X6332714Y-18493148D01*
X6352842Y-18511149D01*
X6364572Y-18516600D01*
X6384667Y-18526212D01*
X6412893Y-18550796D01*
X6443761Y-18583976D01*
X6471777Y-18619372D01*
X6491452Y-18650607D01*
X6497381Y-18670841D01*
X6504026Y-18685204D01*
X6520244Y-18705766D01*
X6534782Y-18724693D01*
X6535672Y-18732500D01*
X6534065Y-18741824D01*
X6541438Y-18759650D01*
X6554595Y-18793398D01*
X6561697Y-18823150D01*
X6567426Y-18859500D01*
X6835357Y-18859500D01*
X6835210Y-18856149D01*
X6830729Y-18801871D01*
X6824701Y-18763864D01*
X6821905Y-18754725D01*
X6813865Y-18730203D01*
X6814113Y-18719802D01*
X6814191Y-18719800D01*
X6813381Y-18710030D01*
X6803071Y-18686074D01*
X6800850Y-18681700D01*
X6789946Y-18656349D01*
X6788904Y-18643870D01*
X6789793Y-18643600D01*
X6788918Y-18635741D01*
X6775450Y-18618200D01*
X6762071Y-18599922D01*
X6762750Y-18592800D01*
X6763400Y-18585076D01*
X6751991Y-18569544D01*
X6738315Y-18549706D01*
X6737401Y-18539833D01*
X6734008Y-18527787D01*
X6718378Y-18510320D01*
X6699401Y-18489249D01*
X6692900Y-18475615D01*
X6683820Y-18457940D01*
X6659746Y-18428971D01*
X6625433Y-18393390D01*
X6585633Y-18355880D01*
X6545098Y-18321124D01*
X6508583Y-18293805D01*
X6507928Y-18293368D01*
X6446698Y-18256293D01*
X6383990Y-18224566D01*
X6327867Y-18202004D01*
X6297802Y-18193885D01*
X6274696Y-18188946D01*
X6267450Y-18186372D01*
X6255040Y-18180503D01*
X6218954Y-18175379D01*
X6160910Y-18171161D01*
X6082626Y-18168006D01*
X6064250Y-18167506D01*
X5966649Y-18167538D01*
G36*
X4431863Y-18172581D02*
X4312678Y-18198358D01*
X4207597Y-18245012D01*
X4116124Y-18312767D01*
X4037763Y-18401850D01*
X4032250Y-18409612D01*
X4004665Y-18453692D01*
X3995251Y-18480982D01*
X4004119Y-18491137D01*
X4005705Y-18491200D01*
X4027580Y-18500142D01*
X4038637Y-18510293D01*
X4057855Y-18525418D01*
X4092516Y-18546198D01*
X4131995Y-18566589D01*
X4184839Y-18588054D01*
X4219822Y-18592722D01*
X4238180Y-18580541D01*
X4241800Y-18561986D01*
X4252150Y-18540074D01*
X4278887Y-18511991D01*
X4315547Y-18482649D01*
X4355664Y-18456960D01*
X4392772Y-18439838D01*
X4407444Y-18436130D01*
X4432940Y-18428850D01*
X4438650Y-18426104D01*
X4466336Y-18418990D01*
X4510006Y-18416488D01*
X4560721Y-18418306D01*
X4609545Y-18424154D01*
X4645025Y-18432815D01*
X4677081Y-18442866D01*
X4696420Y-18446371D01*
X4699000Y-18445231D01*
X4707241Y-18449492D01*
X4728631Y-18467400D01*
X4752623Y-18489511D01*
X4783207Y-18520497D01*
X4799219Y-18545454D01*
X4805335Y-18574926D01*
X4806245Y-18610468D01*
X4803755Y-18656636D01*
X4794230Y-18687895D01*
X4774848Y-18714149D01*
X4746308Y-18740485D01*
X4719579Y-18758680D01*
X4718050Y-18759405D01*
X4689956Y-18773799D01*
X4655155Y-18793627D01*
X4651375Y-18795900D01*
X4625160Y-18810016D01*
X4610943Y-18814263D01*
X4610100Y-18813236D01*
X4602344Y-18813247D01*
X4593229Y-18819592D01*
X4566842Y-18833160D01*
X4549106Y-18837753D01*
X4523213Y-18844843D01*
X4513061Y-18850706D01*
X4494433Y-18857843D01*
X4476750Y-18859500D01*
X4450375Y-18863498D01*
X4439709Y-18869025D01*
X4423538Y-18878615D01*
X4421717Y-18878855D01*
X4399231Y-18882885D01*
X4362419Y-18892242D01*
X4321020Y-18904138D01*
X4284776Y-18915783D01*
X4264198Y-18923961D01*
X4235615Y-18934075D01*
X4222750Y-18935700D01*
X4190582Y-18945236D01*
X4148938Y-18970734D01*
X4103161Y-19007525D01*
X4058594Y-19050938D01*
X4020578Y-19096307D01*
X3997670Y-19132405D01*
X3968934Y-19212978D01*
X3957902Y-19304195D01*
X3964591Y-19398469D01*
X3989019Y-19488213D01*
X3996790Y-19506629D01*
X4014245Y-19536342D01*
X4040747Y-19572101D01*
X4071125Y-19607997D01*
X4100208Y-19638123D01*
X4122827Y-19656571D01*
X4130676Y-19659600D01*
X4146867Y-19667446D01*
X4167387Y-19683938D01*
X4198361Y-19705395D01*
X4223445Y-19715789D01*
X4258277Y-19726480D01*
X4288865Y-19737852D01*
X4321057Y-19750224D01*
X4343400Y-19757648D01*
X4365343Y-19760378D01*
X4406213Y-19762796D01*
X4459540Y-19764767D01*
X4518854Y-19766160D01*
X4577682Y-19766840D01*
X4629553Y-19766675D01*
X4667998Y-19765531D01*
X4679950Y-19764576D01*
X4714071Y-19758803D01*
X4737100Y-19752385D01*
X4764959Y-19743167D01*
X4773096Y-19741198D01*
X4800337Y-19731747D01*
X4838817Y-19714020D01*
X4880238Y-19692391D01*
X4916299Y-19671235D01*
X4938698Y-19654925D01*
X4940543Y-19652958D01*
X4961063Y-19637037D01*
X4971565Y-19634200D01*
X4988627Y-19625147D01*
X5014059Y-19601865D01*
X5043025Y-19570167D01*
X5070688Y-19535866D01*
X5092212Y-19504776D01*
X5102758Y-19482709D01*
X5102430Y-19476917D01*
X5107333Y-19464902D01*
X5121378Y-19447094D01*
X5136071Y-19427758D01*
X5132579Y-19413503D01*
X5118203Y-19399343D01*
X5099886Y-19385988D01*
X5092700Y-19386795D01*
X5084702Y-19387049D01*
X5065331Y-19373244D01*
X5064125Y-19372193D01*
X5032551Y-19349075D01*
X4993420Y-19326631D01*
X4953964Y-19308244D01*
X4921414Y-19297296D01*
X4903302Y-19296969D01*
X4890212Y-19315488D01*
X4889500Y-19320754D01*
X4881484Y-19339609D01*
X4861851Y-19365739D01*
X4858502Y-19369439D01*
X4840097Y-19393232D01*
X4834419Y-19409078D01*
X4835219Y-19410585D01*
X4832215Y-19417221D01*
X4823322Y-19418300D01*
X4799210Y-19427349D01*
X4787706Y-19437584D01*
X4763937Y-19456822D01*
X4727620Y-19477632D01*
X4690406Y-19493859D01*
X4671412Y-19499011D01*
X4646238Y-19506625D01*
X4641850Y-19508833D01*
X4621737Y-19513355D01*
X4585321Y-19516047D01*
X4539859Y-19516990D01*
X4492608Y-19516262D01*
X4450826Y-19513942D01*
X4421767Y-19510110D01*
X4412718Y-19506337D01*
X4395456Y-19496427D01*
X4377576Y-19493571D01*
X4333966Y-19481792D01*
X4289926Y-19453572D01*
X4255561Y-19415581D01*
X4252919Y-19411285D01*
X4239680Y-19377824D01*
X4231928Y-19337038D01*
X4230289Y-19297671D01*
X4235392Y-19268465D01*
X4242008Y-19259421D01*
X4249650Y-19244698D01*
X4248096Y-19240412D01*
X4254113Y-19228196D01*
X4277128Y-19208062D01*
X4311485Y-19183578D01*
X4351527Y-19158311D01*
X4391599Y-19135830D01*
X4426044Y-19119703D01*
X4449207Y-19113500D01*
X4449268Y-19113500D01*
X4464656Y-19109114D01*
X4491799Y-19098689D01*
X4519021Y-19087785D01*
X4533900Y-19082508D01*
X4558343Y-19076476D01*
X4595548Y-19066561D01*
X4635874Y-19055420D01*
X4669677Y-19045711D01*
X4686300Y-19040490D01*
X4714320Y-19031865D01*
X4722217Y-19030009D01*
X4748520Y-19022005D01*
X4760317Y-19017320D01*
X4790322Y-19006846D01*
X4801501Y-19004068D01*
X4850644Y-18985447D01*
X4904920Y-18951086D01*
X4958712Y-18906249D01*
X5006402Y-18856198D01*
X5042372Y-18806198D01*
X5061004Y-18761510D01*
X5061140Y-18760820D01*
X5065642Y-18742160D01*
X5067300Y-18738850D01*
X5072028Y-18727540D01*
X5077548Y-18698985D01*
X5082485Y-18661248D01*
X5084618Y-18637250D01*
X5080180Y-18554801D01*
X5057435Y-18469632D01*
X5052787Y-18457884D01*
X5041783Y-18429151D01*
X5036615Y-18411583D01*
X5027083Y-18396283D01*
X5003752Y-18369543D01*
X4971959Y-18336622D01*
X4937044Y-18302779D01*
X4904345Y-18273274D01*
X4879200Y-18253366D01*
X4871343Y-18248748D01*
X4840900Y-18233467D01*
X4826000Y-18224522D01*
X4797657Y-18209626D01*
X4757320Y-18192712D01*
X4717373Y-18178899D01*
X4711700Y-18177279D01*
X4691390Y-18174613D01*
X4652191Y-18171671D01*
X4600607Y-18168891D01*
X4565650Y-18167455D01*
X4431863Y-18172581D01*
X4431863Y-18172581D01*
G37*
X4431863Y-18172581D02*
X4312678Y-18198358D01*
X4207597Y-18245012D01*
X4116124Y-18312767D01*
X4037763Y-18401850D01*
X4032250Y-18409612D01*
X4004665Y-18453692D01*
X3995251Y-18480982D01*
X4004119Y-18491137D01*
X4005705Y-18491200D01*
X4027580Y-18500142D01*
X4038637Y-18510293D01*
X4057855Y-18525418D01*
X4092516Y-18546198D01*
X4131995Y-18566589D01*
X4184839Y-18588054D01*
X4219822Y-18592722D01*
X4238180Y-18580541D01*
X4241800Y-18561986D01*
X4252150Y-18540074D01*
X4278887Y-18511991D01*
X4315547Y-18482649D01*
X4355664Y-18456960D01*
X4392772Y-18439838D01*
X4407444Y-18436130D01*
X4432940Y-18428850D01*
X4438650Y-18426104D01*
X4466336Y-18418990D01*
X4510006Y-18416488D01*
X4560721Y-18418306D01*
X4609545Y-18424154D01*
X4645025Y-18432815D01*
X4677081Y-18442866D01*
X4696420Y-18446371D01*
X4699000Y-18445231D01*
X4707241Y-18449492D01*
X4728631Y-18467400D01*
X4752623Y-18489511D01*
X4783207Y-18520497D01*
X4799219Y-18545454D01*
X4805335Y-18574926D01*
X4806245Y-18610468D01*
X4803755Y-18656636D01*
X4794230Y-18687895D01*
X4774848Y-18714149D01*
X4746308Y-18740485D01*
X4719579Y-18758680D01*
X4718050Y-18759405D01*
X4689956Y-18773799D01*
X4655155Y-18793627D01*
X4651375Y-18795900D01*
X4625160Y-18810016D01*
X4610943Y-18814263D01*
X4610100Y-18813236D01*
X4602344Y-18813247D01*
X4593229Y-18819592D01*
X4566842Y-18833160D01*
X4549106Y-18837753D01*
X4523213Y-18844843D01*
X4513061Y-18850706D01*
X4494433Y-18857843D01*
X4476750Y-18859500D01*
X4450375Y-18863498D01*
X4439709Y-18869025D01*
X4423538Y-18878615D01*
X4421717Y-18878855D01*
X4399231Y-18882885D01*
X4362419Y-18892242D01*
X4321020Y-18904138D01*
X4284776Y-18915783D01*
X4264198Y-18923961D01*
X4235615Y-18934075D01*
X4222750Y-18935700D01*
X4190582Y-18945236D01*
X4148938Y-18970734D01*
X4103161Y-19007525D01*
X4058594Y-19050938D01*
X4020578Y-19096307D01*
X3997670Y-19132405D01*
X3968934Y-19212978D01*
X3957902Y-19304195D01*
X3964591Y-19398469D01*
X3989019Y-19488213D01*
X3996790Y-19506629D01*
X4014245Y-19536342D01*
X4040747Y-19572101D01*
X4071125Y-19607997D01*
X4100208Y-19638123D01*
X4122827Y-19656571D01*
X4130676Y-19659600D01*
X4146867Y-19667446D01*
X4167387Y-19683938D01*
X4198361Y-19705395D01*
X4223445Y-19715789D01*
X4258277Y-19726480D01*
X4288865Y-19737852D01*
X4321057Y-19750224D01*
X4343400Y-19757648D01*
X4365343Y-19760378D01*
X4406213Y-19762796D01*
X4459540Y-19764767D01*
X4518854Y-19766160D01*
X4577682Y-19766840D01*
X4629553Y-19766675D01*
X4667998Y-19765531D01*
X4679950Y-19764576D01*
X4714071Y-19758803D01*
X4737100Y-19752385D01*
X4764959Y-19743167D01*
X4773096Y-19741198D01*
X4800337Y-19731747D01*
X4838817Y-19714020D01*
X4880238Y-19692391D01*
X4916299Y-19671235D01*
X4938698Y-19654925D01*
X4940543Y-19652958D01*
X4961063Y-19637037D01*
X4971565Y-19634200D01*
X4988627Y-19625147D01*
X5014059Y-19601865D01*
X5043025Y-19570167D01*
X5070688Y-19535866D01*
X5092212Y-19504776D01*
X5102758Y-19482709D01*
X5102430Y-19476917D01*
X5107333Y-19464902D01*
X5121378Y-19447094D01*
X5136071Y-19427758D01*
X5132579Y-19413503D01*
X5118203Y-19399343D01*
X5099886Y-19385988D01*
X5092700Y-19386795D01*
X5084702Y-19387049D01*
X5065331Y-19373244D01*
X5064125Y-19372193D01*
X5032551Y-19349075D01*
X4993420Y-19326631D01*
X4953964Y-19308244D01*
X4921414Y-19297296D01*
X4903302Y-19296969D01*
X4890212Y-19315488D01*
X4889500Y-19320754D01*
X4881484Y-19339609D01*
X4861851Y-19365739D01*
X4858502Y-19369439D01*
X4840097Y-19393232D01*
X4834419Y-19409078D01*
X4835219Y-19410585D01*
X4832215Y-19417221D01*
X4823322Y-19418300D01*
X4799210Y-19427349D01*
X4787706Y-19437584D01*
X4763937Y-19456822D01*
X4727620Y-19477632D01*
X4690406Y-19493859D01*
X4671412Y-19499011D01*
X4646238Y-19506625D01*
X4641850Y-19508833D01*
X4621737Y-19513355D01*
X4585321Y-19516047D01*
X4539859Y-19516990D01*
X4492608Y-19516262D01*
X4450826Y-19513942D01*
X4421767Y-19510110D01*
X4412718Y-19506337D01*
X4395456Y-19496427D01*
X4377576Y-19493571D01*
X4333966Y-19481792D01*
X4289926Y-19453572D01*
X4255561Y-19415581D01*
X4252919Y-19411285D01*
X4239680Y-19377824D01*
X4231928Y-19337038D01*
X4230289Y-19297671D01*
X4235392Y-19268465D01*
X4242008Y-19259421D01*
X4249650Y-19244698D01*
X4248096Y-19240412D01*
X4254113Y-19228196D01*
X4277128Y-19208062D01*
X4311485Y-19183578D01*
X4351527Y-19158311D01*
X4391599Y-19135830D01*
X4426044Y-19119703D01*
X4449207Y-19113500D01*
X4449268Y-19113500D01*
X4464656Y-19109114D01*
X4491799Y-19098689D01*
X4519021Y-19087785D01*
X4533900Y-19082508D01*
X4558343Y-19076476D01*
X4595548Y-19066561D01*
X4635874Y-19055420D01*
X4669677Y-19045711D01*
X4686300Y-19040490D01*
X4714320Y-19031865D01*
X4722217Y-19030009D01*
X4748520Y-19022005D01*
X4760317Y-19017320D01*
X4790322Y-19006846D01*
X4801501Y-19004068D01*
X4850644Y-18985447D01*
X4904920Y-18951086D01*
X4958712Y-18906249D01*
X5006402Y-18856198D01*
X5042372Y-18806198D01*
X5061004Y-18761510D01*
X5061140Y-18760820D01*
X5065642Y-18742160D01*
X5067300Y-18738850D01*
X5072028Y-18727540D01*
X5077548Y-18698985D01*
X5082485Y-18661248D01*
X5084618Y-18637250D01*
X5080180Y-18554801D01*
X5057435Y-18469632D01*
X5052787Y-18457884D01*
X5041783Y-18429151D01*
X5036615Y-18411583D01*
X5027083Y-18396283D01*
X5003752Y-18369543D01*
X4971959Y-18336622D01*
X4937044Y-18302779D01*
X4904345Y-18273274D01*
X4879200Y-18253366D01*
X4871343Y-18248748D01*
X4840900Y-18233467D01*
X4826000Y-18224522D01*
X4797657Y-18209626D01*
X4757320Y-18192712D01*
X4717373Y-18178899D01*
X4711700Y-18177279D01*
X4691390Y-18174613D01*
X4652191Y-18171671D01*
X4600607Y-18168891D01*
X4565650Y-18167455D01*
X4431863Y-18172581D01*
G36*
X13423012Y-17805400D02*
X13499656Y-17806987D01*
X13550424Y-17808554D01*
X13582207Y-17811109D01*
X13601416Y-17815308D01*
X13608050Y-17818100D01*
X13625013Y-17823908D01*
X13627100Y-17824450D01*
X13644987Y-17830258D01*
X13646150Y-17830800D01*
X13663309Y-17835264D01*
X13665490Y-17835562D01*
X13680864Y-17844748D01*
X13707540Y-17866970D01*
X13733363Y-17891236D01*
X13778998Y-17947268D01*
X13807599Y-18011193D01*
X13821537Y-18089184D01*
X13823547Y-18126075D01*
X13825548Y-18199100D01*
X13423900Y-18199100D01*
X13423900Y-18452455D01*
X13623925Y-18455952D01*
X13823950Y-18459450D01*
X13823824Y-19735800D01*
X14097000Y-19735800D01*
X14097000Y-18453100D01*
X14338300Y-18453100D01*
X14338300Y-18199100D01*
X14100581Y-18199100D01*
X14093123Y-18094325D01*
X14087369Y-18023898D01*
X14080630Y-17971283D01*
X14071214Y-17928901D01*
X14057429Y-17889173D01*
X14037580Y-17844522D01*
X14037097Y-17843500D01*
X14015431Y-17805711D01*
X13985041Y-17762707D01*
X13950328Y-17719590D01*
X13915694Y-17681465D01*
X13885541Y-17653434D01*
X13864269Y-17640602D01*
X13861849Y-17640300D01*
X13841694Y-17632157D01*
X13832205Y-17624425D01*
X13814000Y-17610143D01*
X13807440Y-17607485D01*
X13790649Y-17602067D01*
X13762131Y-17590396D01*
X13760450Y-17589659D01*
X13727858Y-17576660D01*
X13703300Y-17569053D01*
X13643652Y-17559374D01*
X13573720Y-17551394D01*
X13508621Y-17546755D01*
X13493750Y-17546287D01*
X13430250Y-17545050D01*
X13423012Y-17805400D01*
X13423012Y-17805400D01*
G37*
X13423012Y-17805400D02*
X13499656Y-17806987D01*
X13550424Y-17808554D01*
X13582207Y-17811109D01*
X13601416Y-17815308D01*
X13608050Y-17818100D01*
X13625013Y-17823908D01*
X13627100Y-17824450D01*
X13644987Y-17830258D01*
X13646150Y-17830800D01*
X13663309Y-17835264D01*
X13665490Y-17835562D01*
X13680864Y-17844748D01*
X13707540Y-17866970D01*
X13733363Y-17891236D01*
X13778998Y-17947268D01*
X13807599Y-18011193D01*
X13821537Y-18089184D01*
X13823547Y-18126075D01*
X13825548Y-18199100D01*
X13423900Y-18199100D01*
X13423900Y-18452455D01*
X13623925Y-18455952D01*
X13823950Y-18459450D01*
X13823824Y-19735800D01*
X14097000Y-19735800D01*
X14097000Y-18453100D01*
X14338300Y-18453100D01*
X14338300Y-18199100D01*
X14100581Y-18199100D01*
X14093123Y-18094325D01*
X14087369Y-18023898D01*
X14080630Y-17971283D01*
X14071214Y-17928901D01*
X14057429Y-17889173D01*
X14037580Y-17844522D01*
X14037097Y-17843500D01*
X14015431Y-17805711D01*
X13985041Y-17762707D01*
X13950328Y-17719590D01*
X13915694Y-17681465D01*
X13885541Y-17653434D01*
X13864269Y-17640602D01*
X13861849Y-17640300D01*
X13841694Y-17632157D01*
X13832205Y-17624425D01*
X13814000Y-17610143D01*
X13807440Y-17607485D01*
X13790649Y-17602067D01*
X13762131Y-17590396D01*
X13760450Y-17589659D01*
X13727858Y-17576660D01*
X13703300Y-17569053D01*
X13643652Y-17559374D01*
X13573720Y-17551394D01*
X13508621Y-17546755D01*
X13493750Y-17546287D01*
X13430250Y-17545050D01*
X13423012Y-17805400D01*
G36*
X12477587Y-18305338D02*
X12478346Y-18360903D01*
X12480055Y-18406414D01*
X12482439Y-18436275D01*
X12484483Y-18445016D01*
X12499843Y-18450027D01*
X12531862Y-18455648D01*
X12554198Y-18458478D01*
X12603042Y-18464427D01*
X12636693Y-18470546D01*
X12665271Y-18479107D01*
X12691302Y-18489248D01*
X12718080Y-18499601D01*
X12732206Y-18503900D01*
X12744547Y-18510609D01*
X12770969Y-18527913D01*
X12795201Y-18544671D01*
X12829011Y-18573146D01*
X12862071Y-18608450D01*
X12888958Y-18643871D01*
X12904247Y-18672692D01*
X12905898Y-18681700D01*
X12911028Y-18696758D01*
X12918196Y-18711388D01*
X12930369Y-18742244D01*
X12937203Y-18768538D01*
X12943708Y-18801361D01*
X12947888Y-18821400D01*
X12948886Y-18838173D01*
X12949853Y-18877318D01*
X12950755Y-18935806D01*
X12951561Y-19010608D01*
X12952235Y-19098696D01*
X12952745Y-19197042D01*
X12953029Y-19288125D01*
X12954000Y-19735800D01*
X13220700Y-19735800D01*
X13220700Y-18199100D01*
X12954000Y-18199100D01*
X12954000Y-18320499D01*
X12952745Y-18381931D01*
X12949051Y-18420182D01*
X12943025Y-18434312D01*
X12941093Y-18433921D01*
X12932836Y-18420164D01*
X12934064Y-18416434D01*
X12930183Y-18401895D01*
X12913099Y-18378161D01*
X12908357Y-18372862D01*
X12889873Y-18350951D01*
X12883662Y-18339353D01*
X12884544Y-18338799D01*
X12884318Y-18332792D01*
X12865144Y-18314249D01*
X12826173Y-18282388D01*
X12807637Y-18267898D01*
X12747419Y-18231548D01*
X12672502Y-18201484D01*
X12593451Y-18181379D01*
X12540952Y-18175180D01*
X12477153Y-18172122D01*
X12477587Y-18305338D01*
X12477587Y-18305338D01*
G37*
X12477587Y-18305338D02*
X12478346Y-18360903D01*
X12480055Y-18406414D01*
X12482439Y-18436275D01*
X12484483Y-18445016D01*
X12499843Y-18450027D01*
X12531862Y-18455648D01*
X12554198Y-18458478D01*
X12603042Y-18464427D01*
X12636693Y-18470546D01*
X12665271Y-18479107D01*
X12691302Y-18489248D01*
X12718080Y-18499601D01*
X12732206Y-18503900D01*
X12744547Y-18510609D01*
X12770969Y-18527913D01*
X12795201Y-18544671D01*
X12829011Y-18573146D01*
X12862071Y-18608450D01*
X12888958Y-18643871D01*
X12904247Y-18672692D01*
X12905898Y-18681700D01*
X12911028Y-18696758D01*
X12918196Y-18711388D01*
X12930369Y-18742244D01*
X12937203Y-18768538D01*
X12943708Y-18801361D01*
X12947888Y-18821400D01*
X12948886Y-18838173D01*
X12949853Y-18877318D01*
X12950755Y-18935806D01*
X12951561Y-19010608D01*
X12952235Y-19098696D01*
X12952745Y-19197042D01*
X12953029Y-19288125D01*
X12954000Y-19735800D01*
X13220700Y-19735800D01*
X13220700Y-18199100D01*
X12954000Y-18199100D01*
X12954000Y-18320499D01*
X12952745Y-18381931D01*
X12949051Y-18420182D01*
X12943025Y-18434312D01*
X12941093Y-18433921D01*
X12932836Y-18420164D01*
X12934064Y-18416434D01*
X12930183Y-18401895D01*
X12913099Y-18378161D01*
X12908357Y-18372862D01*
X12889873Y-18350951D01*
X12883662Y-18339353D01*
X12884544Y-18338799D01*
X12884318Y-18332792D01*
X12865144Y-18314249D01*
X12826173Y-18282388D01*
X12807637Y-18267898D01*
X12747419Y-18231548D01*
X12672502Y-18201484D01*
X12593451Y-18181379D01*
X12540952Y-18175180D01*
X12477153Y-18172122D01*
X12477587Y-18305338D01*
G36*
X11950700Y-19735800D02*
X12223803Y-19735800D01*
X12223803Y-18199100D01*
X11950700Y-18199100D01*
X11950700Y-19735800D01*
X11950700Y-19735800D01*
G37*
X11950700Y-19735800D02*
X12223803Y-19735800D01*
X12223803Y-18199100D01*
X11950700Y-18199100D01*
X11950700Y-19735800D01*
G36*
X10439400Y-18288172D02*
X10442210Y-18349606D01*
X10452547Y-18395323D01*
X10473270Y-18434575D01*
X10492364Y-18459450D01*
X10511088Y-18483656D01*
X10539943Y-18522993D01*
X10574755Y-18571604D01*
X10611350Y-18623632D01*
X10645552Y-18673219D01*
X10660638Y-18695546D01*
X10685046Y-18729592D01*
X10707671Y-18757380D01*
X10712237Y-18762221D01*
X10725215Y-18778193D01*
X10724742Y-18783300D01*
X10727135Y-18791692D01*
X10742809Y-18813066D01*
X10755585Y-18828191D01*
X10778921Y-18856571D01*
X10793060Y-18877236D01*
X10795000Y-18882296D01*
X10802868Y-18896794D01*
X10822290Y-18920830D01*
X10827264Y-18926304D01*
X10845676Y-18948455D01*
X10851476Y-18960417D01*
X10850288Y-18961100D01*
X10852281Y-18969062D01*
X10868200Y-18989093D01*
X10877550Y-18999200D01*
X10897856Y-19022437D01*
X10905856Y-19035928D01*
X10904683Y-19037300D01*
X10906712Y-19045392D01*
X10922570Y-19065896D01*
X10933998Y-19078575D01*
X10957595Y-19106727D01*
X10971326Y-19128864D01*
X10972742Y-19134169D01*
X10981636Y-19153315D01*
X10993103Y-19165339D01*
X11009745Y-19183656D01*
X11035199Y-19216696D01*
X11064442Y-19257882D01*
X11069495Y-19265319D01*
X11103762Y-19315117D01*
X11139566Y-19365590D01*
X11168999Y-19405600D01*
X11192902Y-19438447D01*
X11209029Y-19463241D01*
X11213257Y-19472275D01*
X11201271Y-19474595D01*
X11166893Y-19476711D01*
X11113131Y-19478552D01*
X11042993Y-19480046D01*
X10959487Y-19481123D01*
X10865620Y-19481710D01*
X10810549Y-19481800D01*
X10406997Y-19481800D01*
X10407486Y-19605625D01*
X10407976Y-19729450D01*
X10998776Y-19732748D01*
X11589577Y-19736047D01*
X11588735Y-19643848D01*
X11585032Y-19581101D01*
X11572633Y-19532562D01*
X11547595Y-19488318D01*
X11507861Y-19440525D01*
X11490174Y-19418303D01*
X11485583Y-19406291D01*
X11487150Y-19405600D01*
X11486920Y-19397552D01*
X11472586Y-19377541D01*
X11466574Y-19370675D01*
X11438493Y-19336495D01*
X11409300Y-19296348D01*
X11403873Y-19288211D01*
X11383208Y-19259504D01*
X11367265Y-19242539D01*
X11363325Y-19240586D01*
X11354200Y-19230602D01*
X11353800Y-19226633D01*
X11348088Y-19210409D01*
X11329831Y-19182176D01*
X11297352Y-19139550D01*
X11260410Y-19093983D01*
X11240716Y-19067954D01*
X11232159Y-19052175D01*
X11233150Y-19050000D01*
X11231391Y-19041413D01*
X11216679Y-19019648D01*
X11205891Y-19006016D01*
X11160952Y-18950296D01*
X11131565Y-18910855D01*
X11116051Y-18885312D01*
X11112500Y-18873366D01*
X11105700Y-18860019D01*
X11102975Y-18859413D01*
X11090899Y-18849663D01*
X11071545Y-18825170D01*
X11062428Y-18811788D01*
X11034615Y-18772457D01*
X11005251Y-18735590D01*
X10999727Y-18729325D01*
X10982113Y-18707086D01*
X10977587Y-18695082D01*
X10979150Y-18694400D01*
X10978920Y-18686352D01*
X10964586Y-18666341D01*
X10958574Y-18659475D01*
X10930493Y-18625295D01*
X10901300Y-18585148D01*
X10895873Y-18577011D01*
X10875208Y-18548304D01*
X10859265Y-18531339D01*
X10855325Y-18529386D01*
X10846328Y-18519299D01*
X10845800Y-18514425D01*
X10837945Y-18494168D01*
X10824782Y-18476325D01*
X10819682Y-18469695D01*
X10819432Y-18464463D01*
X10826564Y-18460463D01*
X10843607Y-18457531D01*
X10873092Y-18455502D01*
X10917549Y-18454209D01*
X10979508Y-18453488D01*
X11061500Y-18453173D01*
X11166055Y-18453100D01*
X11557000Y-18453100D01*
X11557000Y-18199100D01*
X10439400Y-18199100D01*
X10439400Y-18288172D01*
X10439400Y-18288172D01*
G37*
X10439400Y-18288172D02*
X10442210Y-18349606D01*
X10452547Y-18395323D01*
X10473270Y-18434575D01*
X10492364Y-18459450D01*
X10511088Y-18483656D01*
X10539943Y-18522993D01*
X10574755Y-18571604D01*
X10611350Y-18623632D01*
X10645552Y-18673219D01*
X10660638Y-18695546D01*
X10685046Y-18729592D01*
X10707671Y-18757380D01*
X10712237Y-18762221D01*
X10725215Y-18778193D01*
X10724742Y-18783300D01*
X10727135Y-18791692D01*
X10742809Y-18813066D01*
X10755585Y-18828191D01*
X10778921Y-18856571D01*
X10793060Y-18877236D01*
X10795000Y-18882296D01*
X10802868Y-18896794D01*
X10822290Y-18920830D01*
X10827264Y-18926304D01*
X10845676Y-18948455D01*
X10851476Y-18960417D01*
X10850288Y-18961100D01*
X10852281Y-18969062D01*
X10868200Y-18989093D01*
X10877550Y-18999200D01*
X10897856Y-19022437D01*
X10905856Y-19035928D01*
X10904683Y-19037300D01*
X10906712Y-19045392D01*
X10922570Y-19065896D01*
X10933998Y-19078575D01*
X10957595Y-19106727D01*
X10971326Y-19128864D01*
X10972742Y-19134169D01*
X10981636Y-19153315D01*
X10993103Y-19165339D01*
X11009745Y-19183656D01*
X11035199Y-19216696D01*
X11064442Y-19257882D01*
X11069495Y-19265319D01*
X11103762Y-19315117D01*
X11139566Y-19365590D01*
X11168999Y-19405600D01*
X11192902Y-19438447D01*
X11209029Y-19463241D01*
X11213257Y-19472275D01*
X11201271Y-19474595D01*
X11166893Y-19476711D01*
X11113131Y-19478552D01*
X11042993Y-19480046D01*
X10959487Y-19481123D01*
X10865620Y-19481710D01*
X10810549Y-19481800D01*
X10406997Y-19481800D01*
X10407486Y-19605625D01*
X10407976Y-19729450D01*
X10998776Y-19732748D01*
X11589577Y-19736047D01*
X11588735Y-19643848D01*
X11585032Y-19581101D01*
X11572633Y-19532562D01*
X11547595Y-19488318D01*
X11507861Y-19440525D01*
X11490174Y-19418303D01*
X11485583Y-19406291D01*
X11487150Y-19405600D01*
X11486920Y-19397552D01*
X11472586Y-19377541D01*
X11466574Y-19370675D01*
X11438493Y-19336495D01*
X11409300Y-19296348D01*
X11403873Y-19288211D01*
X11383208Y-19259504D01*
X11367265Y-19242539D01*
X11363325Y-19240586D01*
X11354200Y-19230602D01*
X11353800Y-19226633D01*
X11348088Y-19210409D01*
X11329831Y-19182176D01*
X11297352Y-19139550D01*
X11260410Y-19093983D01*
X11240716Y-19067954D01*
X11232159Y-19052175D01*
X11233150Y-19050000D01*
X11231391Y-19041413D01*
X11216679Y-19019648D01*
X11205891Y-19006016D01*
X11160952Y-18950296D01*
X11131565Y-18910855D01*
X11116051Y-18885312D01*
X11112500Y-18873366D01*
X11105700Y-18860019D01*
X11102975Y-18859413D01*
X11090899Y-18849663D01*
X11071545Y-18825170D01*
X11062428Y-18811788D01*
X11034615Y-18772457D01*
X11005251Y-18735590D01*
X10999727Y-18729325D01*
X10982113Y-18707086D01*
X10977587Y-18695082D01*
X10979150Y-18694400D01*
X10978920Y-18686352D01*
X10964586Y-18666341D01*
X10958574Y-18659475D01*
X10930493Y-18625295D01*
X10901300Y-18585148D01*
X10895873Y-18577011D01*
X10875208Y-18548304D01*
X10859265Y-18531339D01*
X10855325Y-18529386D01*
X10846328Y-18519299D01*
X10845800Y-18514425D01*
X10837945Y-18494168D01*
X10824782Y-18476325D01*
X10819682Y-18469695D01*
X10819432Y-18464463D01*
X10826564Y-18460463D01*
X10843607Y-18457531D01*
X10873092Y-18455502D01*
X10917549Y-18454209D01*
X10979508Y-18453488D01*
X11061500Y-18453173D01*
X11166055Y-18453100D01*
X11557000Y-18453100D01*
X11557000Y-18199100D01*
X10439400Y-18199100D01*
X10439400Y-18288172D01*
G36*
X9029700Y-18289860D02*
X9030967Y-18340677D01*
X9036730Y-18376705D01*
X9049936Y-18408511D01*
X9073364Y-18446402D01*
X9099874Y-18484237D01*
X9123779Y-18514799D01*
X9136864Y-18528647D01*
X9153377Y-18548710D01*
X9156759Y-18559430D01*
X9164869Y-18576774D01*
X9185204Y-18603520D01*
X9195503Y-18615025D01*
X9216604Y-18639498D01*
X9225818Y-18654295D01*
X9224818Y-18656300D01*
X9226729Y-18664259D01*
X9242597Y-18684284D01*
X9251950Y-18694400D01*
X9272286Y-18717641D01*
X9280352Y-18731130D01*
X9279213Y-18732500D01*
X9280761Y-18740513D01*
X9296062Y-18760440D01*
X9302237Y-18767295D01*
X9323292Y-18792249D01*
X9334115Y-18809467D01*
X9334500Y-18811303D01*
X9342203Y-18825530D01*
X9361725Y-18851069D01*
X9373916Y-18865408D01*
X9395398Y-18891492D01*
X9405998Y-18907685D01*
X9405750Y-18910300D01*
X9407485Y-18918450D01*
X9422158Y-18938135D01*
X9422793Y-18938875D01*
X9437667Y-18956830D01*
X9455063Y-18979512D01*
X9477666Y-19010646D01*
X9508162Y-19053957D01*
X9549235Y-19113170D01*
X9567802Y-19140074D01*
X9597642Y-19181881D01*
X9624306Y-19216653D01*
X9642833Y-19237977D01*
X9645114Y-19240054D01*
X9661491Y-19260084D01*
X9664759Y-19270630D01*
X9672869Y-19287974D01*
X9693204Y-19314720D01*
X9703503Y-19326225D01*
X9724604Y-19350698D01*
X9733818Y-19365495D01*
X9732818Y-19367500D01*
X9734729Y-19375459D01*
X9750597Y-19395484D01*
X9759950Y-19405600D01*
X9780047Y-19428812D01*
X9787587Y-19442310D01*
X9786172Y-19443700D01*
X9784319Y-19451468D01*
X9791551Y-19462569D01*
X9793517Y-19467847D01*
X9788149Y-19472117D01*
X9773054Y-19475516D01*
X9745840Y-19478179D01*
X9704116Y-19480245D01*
X9645489Y-19481850D01*
X9567568Y-19483129D01*
X9467960Y-19484221D01*
X9402742Y-19484794D01*
X8998272Y-19488150D01*
X8997784Y-19611975D01*
X8997297Y-19735800D01*
X10188090Y-19735800D01*
X10183570Y-19636317D01*
X10180305Y-19584273D01*
X10174563Y-19549442D01*
X10163783Y-19523636D01*
X10145406Y-19498666D01*
X10137775Y-19489825D01*
X10113821Y-19460821D01*
X10098928Y-19439474D01*
X10096500Y-19433603D01*
X10088633Y-19419105D01*
X10069211Y-19395069D01*
X10064237Y-19389595D01*
X10045825Y-19367444D01*
X10040025Y-19355482D01*
X10041213Y-19354800D01*
X10039780Y-19346701D01*
X10024731Y-19326579D01*
X10018833Y-19319875D01*
X9992785Y-19287840D01*
X9963101Y-19246791D01*
X9950450Y-19227800D01*
X9922359Y-19186936D01*
X9893401Y-19149025D01*
X9882068Y-19135725D01*
X9863870Y-19113407D01*
X9858023Y-19101441D01*
X9859090Y-19100800D01*
X9858112Y-19092680D01*
X9843823Y-19073059D01*
X9843108Y-19072225D01*
X9817578Y-19040718D01*
X9785471Y-18997451D01*
X9744362Y-18939069D01*
X9698201Y-18871619D01*
X9668692Y-18829729D01*
X9642134Y-18794834D01*
X9623559Y-18773492D01*
X9621503Y-18771639D01*
X9604741Y-18751510D01*
X9601142Y-18740469D01*
X9593032Y-18723125D01*
X9572697Y-18696379D01*
X9562398Y-18684875D01*
X9541297Y-18660401D01*
X9532083Y-18645604D01*
X9533083Y-18643600D01*
X9531735Y-18635504D01*
X9516737Y-18615389D01*
X9510833Y-18608675D01*
X9486069Y-18578749D01*
X9459090Y-18542334D01*
X9434485Y-18506155D01*
X9416841Y-18476934D01*
X9410700Y-18461942D01*
X9422874Y-18459690D01*
X9457290Y-18457650D01*
X9510791Y-18455898D01*
X9580220Y-18454507D01*
X9662419Y-18453556D01*
X9754232Y-18453119D01*
X9779000Y-18453100D01*
X10147300Y-18453100D01*
X10147300Y-18199100D01*
X9029700Y-18199100D01*
X9029700Y-18289860D01*
X9029700Y-18289860D01*
G37*
X9029700Y-18289860D02*
X9030967Y-18340677D01*
X9036730Y-18376705D01*
X9049936Y-18408511D01*
X9073364Y-18446402D01*
X9099874Y-18484237D01*
X9123779Y-18514799D01*
X9136864Y-18528647D01*
X9153377Y-18548710D01*
X9156759Y-18559430D01*
X9164869Y-18576774D01*
X9185204Y-18603520D01*
X9195503Y-18615025D01*
X9216604Y-18639498D01*
X9225818Y-18654295D01*
X9224818Y-18656300D01*
X9226729Y-18664259D01*
X9242597Y-18684284D01*
X9251950Y-18694400D01*
X9272286Y-18717641D01*
X9280352Y-18731130D01*
X9279213Y-18732500D01*
X9280761Y-18740513D01*
X9296062Y-18760440D01*
X9302237Y-18767295D01*
X9323292Y-18792249D01*
X9334115Y-18809467D01*
X9334500Y-18811303D01*
X9342203Y-18825530D01*
X9361725Y-18851069D01*
X9373916Y-18865408D01*
X9395398Y-18891492D01*
X9405998Y-18907685D01*
X9405750Y-18910300D01*
X9407485Y-18918450D01*
X9422158Y-18938135D01*
X9422793Y-18938875D01*
X9437667Y-18956830D01*
X9455063Y-18979512D01*
X9477666Y-19010646D01*
X9508162Y-19053957D01*
X9549235Y-19113170D01*
X9567802Y-19140074D01*
X9597642Y-19181881D01*
X9624306Y-19216653D01*
X9642833Y-19237977D01*
X9645114Y-19240054D01*
X9661491Y-19260084D01*
X9664759Y-19270630D01*
X9672869Y-19287974D01*
X9693204Y-19314720D01*
X9703503Y-19326225D01*
X9724604Y-19350698D01*
X9733818Y-19365495D01*
X9732818Y-19367500D01*
X9734729Y-19375459D01*
X9750597Y-19395484D01*
X9759950Y-19405600D01*
X9780047Y-19428812D01*
X9787587Y-19442310D01*
X9786172Y-19443700D01*
X9784319Y-19451468D01*
X9791551Y-19462569D01*
X9793517Y-19467847D01*
X9788149Y-19472117D01*
X9773054Y-19475516D01*
X9745840Y-19478179D01*
X9704116Y-19480245D01*
X9645489Y-19481850D01*
X9567568Y-19483129D01*
X9467960Y-19484221D01*
X9402742Y-19484794D01*
X8998272Y-19488150D01*
X8997784Y-19611975D01*
X8997297Y-19735800D01*
X10188090Y-19735800D01*
X10183570Y-19636317D01*
X10180305Y-19584273D01*
X10174563Y-19549442D01*
X10163783Y-19523636D01*
X10145406Y-19498666D01*
X10137775Y-19489825D01*
X10113821Y-19460821D01*
X10098928Y-19439474D01*
X10096500Y-19433603D01*
X10088633Y-19419105D01*
X10069211Y-19395069D01*
X10064237Y-19389595D01*
X10045825Y-19367444D01*
X10040025Y-19355482D01*
X10041213Y-19354800D01*
X10039780Y-19346701D01*
X10024731Y-19326579D01*
X10018833Y-19319875D01*
X9992785Y-19287840D01*
X9963101Y-19246791D01*
X9950450Y-19227800D01*
X9922359Y-19186936D01*
X9893401Y-19149025D01*
X9882068Y-19135725D01*
X9863870Y-19113407D01*
X9858023Y-19101441D01*
X9859090Y-19100800D01*
X9858112Y-19092680D01*
X9843823Y-19073059D01*
X9843108Y-19072225D01*
X9817578Y-19040718D01*
X9785471Y-18997451D01*
X9744362Y-18939069D01*
X9698201Y-18871619D01*
X9668692Y-18829729D01*
X9642134Y-18794834D01*
X9623559Y-18773492D01*
X9621503Y-18771639D01*
X9604741Y-18751510D01*
X9601142Y-18740469D01*
X9593032Y-18723125D01*
X9572697Y-18696379D01*
X9562398Y-18684875D01*
X9541297Y-18660401D01*
X9532083Y-18645604D01*
X9533083Y-18643600D01*
X9531735Y-18635504D01*
X9516737Y-18615389D01*
X9510833Y-18608675D01*
X9486069Y-18578749D01*
X9459090Y-18542334D01*
X9434485Y-18506155D01*
X9416841Y-18476934D01*
X9410700Y-18461942D01*
X9422874Y-18459690D01*
X9457290Y-18457650D01*
X9510791Y-18455898D01*
X9580220Y-18454507D01*
X9662419Y-18453556D01*
X9754232Y-18453119D01*
X9779000Y-18453100D01*
X10147300Y-18453100D01*
X10147300Y-18199100D01*
X9029700Y-18199100D01*
X9029700Y-18289860D01*
G36*
X4953000Y-19653250D02*
X4959350Y-19659600D01*
X4965700Y-19653250D01*
X4959350Y-19646900D01*
X4953000Y-19653250D01*
X4953000Y-19653250D01*
G37*
X4953000Y-19653250D02*
X4959350Y-19659600D01*
X4965700Y-19653250D01*
X4959350Y-19646900D01*
X4953000Y-19653250D01*
G36*
X5461000Y-19348450D02*
X5467350Y-19354800D01*
X5473700Y-19348450D01*
X5467350Y-19342100D01*
X5461000Y-19348450D01*
X5461000Y-19348450D01*
G37*
X5461000Y-19348450D02*
X5467350Y-19354800D01*
X5473700Y-19348450D01*
X5467350Y-19342100D01*
X5461000Y-19348450D01*
G36*
X4851400Y-18230850D02*
X4857750Y-18237200D01*
X4864100Y-18230850D01*
X4857750Y-18224500D01*
X4851400Y-18230850D01*
X4851400Y-18230850D01*
G37*
X4851400Y-18230850D02*
X4857750Y-18237200D01*
X4864100Y-18230850D01*
X4857750Y-18224500D01*
X4851400Y-18230850D01*
G36*
X12042136Y-17568942D02*
X12014003Y-17577235D01*
X11986841Y-17596973D01*
X11964467Y-17618304D01*
X11932900Y-17651767D01*
X11916258Y-17678591D01*
X11910179Y-17708667D01*
X11909998Y-17741900D01*
X11913820Y-17792248D01*
X11924527Y-17827414D01*
X11945990Y-17857435D01*
X11960124Y-17871879D01*
X11991042Y-17897580D01*
X12022090Y-17910208D01*
X12065458Y-17914574D01*
X12068536Y-17914673D01*
X12110221Y-17914646D01*
X12143116Y-17912371D01*
X12153900Y-17910273D01*
X12187969Y-17889570D01*
X12223011Y-17854419D01*
X12251030Y-17814133D01*
X12263362Y-17782761D01*
X12265134Y-17746678D01*
X12260007Y-17706544D01*
X12249988Y-17670326D01*
X12237085Y-17645994D01*
X12227474Y-17640300D01*
X12219143Y-17635340D01*
X12221029Y-17632438D01*
X12220086Y-17618687D01*
X12213130Y-17610213D01*
X12173550Y-17583303D01*
X12125113Y-17570095D01*
X12081942Y-17567463D01*
X12042136Y-17568942D01*
X12042136Y-17568942D01*
G37*
X12042136Y-17568942D02*
X12014003Y-17577235D01*
X11986841Y-17596973D01*
X11964467Y-17618304D01*
X11932900Y-17651767D01*
X11916258Y-17678591D01*
X11910179Y-17708667D01*
X11909998Y-17741900D01*
X11913820Y-17792248D01*
X11924527Y-17827414D01*
X11945990Y-17857435D01*
X11960124Y-17871879D01*
X11991042Y-17897580D01*
X12022090Y-17910208D01*
X12065458Y-17914574D01*
X12068536Y-17914673D01*
X12110221Y-17914646D01*
X12143116Y-17912371D01*
X12153900Y-17910273D01*
X12187969Y-17889570D01*
X12223011Y-17854419D01*
X12251030Y-17814133D01*
X12263362Y-17782761D01*
X12265134Y-17746678D01*
X12260007Y-17706544D01*
X12249988Y-17670326D01*
X12237085Y-17645994D01*
X12227474Y-17640300D01*
X12219143Y-17635340D01*
X12221029Y-17632438D01*
X12220086Y-17618687D01*
X12213130Y-17610213D01*
X12173550Y-17583303D01*
X12125113Y-17570095D01*
X12081942Y-17567463D01*
X12042136Y-17568942D01*
M02*
